{
.appVersion = "1060";
classes = (
{
code = "uni0710 uni0710.Fina1 uni0710.Medi2 uni0712 uni0713 uni0713.Fina uni0713.Medi uni0714 uni0714.Fina uni0714.Medi uni071A uni071B uni071C uni071D uni071F uni0720 uni0721 uni0722 uni0723 uni0724 uni0725 uni0726 uni0727 uni0729 uni072B uni072D uni072E uni072E.Fina uni072E.Medi uni074E uni074F";
name = aalt1;
},
{
code = "uni0713.Init uni0714.Init uni0715 uni0716 uni0717 uni0718 uni0719 uni071B.Medi uni071B.Init uni071C.Medi uni071C.Init uni071D.Medi uni071D.Init uni0720.Medi uni0720.Init uni0722.Fina uni0722.Medi uni0722.Init uni0723.Fina uni0728 uni072A uni072C uni072E.Init uni072F uni074D uni074F.Medi uni074F.Init uni070F uni0741 uni0742 parenleft parenright SAM4xout SAM12xout SAM18xout";
name = aalt2;
},
{
code = "uni0713.InitLong uni0714.InitLong uni0715.Fina uni0716.Fina uni0717.Fina uni0718.Fina uni0719.Fina uni071B.MediLongG uni071B.InitLongG uni071C.MediLongG uni071C.InitLongG uni071D.MediB uni071D.InitB uni0720.MediB uni0720.InitB uni0722.FinaSoft uni0722.MediB uni0722.InitB uni0724.Fina uni0728.Fina uni072A.Fina uni072C.Fina uni072E.InitLong uni072F.Fina uni074D.Fina uni074F.MediB uni074F.InitB uni070F.blank uni030A uni0325 parenleft.alt parenright.alt SAM4out SAM12out SAM18out";
name = aalt3;
},
{
code = "uni0712.Medi uni0712.Init uni0713.Medi uni0713.Init uni0714.Medi uni0714.Init uni0721.Medi uni0721.Init uni0722.Medi uni0722.Init uni0726.Medi uni0726.Init uni072B.Medi uni072B.Init uni072D.Medi uni072D.Init uni072E.Medi uni072E.Init uni0713.MediWide uni0714.MediWide uni072E.MediWide uni0713.MediWide2 uni0714.MediWide2 uni072E.MediWide2 uni0713.MediLong uni0713.InitLong uni0714.MediLong uni0714.InitLong uni072E.MediLong uni072E.InitLong";
name = calt10;
},
{

glyphs = (
{
glyphname = uni200C;
lastChange = "2017-09-07 21:15:43 +0000";
layers = (
{
layerId = UUID0;
paths = (
{
closed = 1;
nodes = (
"-18 714 LINE",
"-18 0 LINE",
"18 0 LINE",
"18 714 LINE"
);
}
);
width = 0;
}
);
unicode = 200C;
},
{
glyphname = uni200D;
lastChange = "2017-09-07 21:15:43 +0000";
layers = (
{
layerId = UUID0;
paths = (
{
closed = 1;
nodes = (
"18 579 LINE",
"83 512 LINE",
"107 536 LINE",
"23 619 LINE",
"107 701 LINE",
"83 725 LINE",
"0 641 LINE",
"-83 725 LINE",
"-107 701 LINE",
"-23 619 LINE",
"-107 536 LINE",
"-83 512 LINE",
"-18 579 LINE",
"-18 0 LINE",
"18 0 LINE"
);
}
);
width = 0;
}
);
unicode = 200D;
},
{
glyphname = uni200E;
lastChange = "2017-09-07 21:15:43 +0000";
layers = (
{
layerId = UUID0;
paths = (
{
closed = 1;
nodes = (
"104 725 LINE",
"80 701 LINE",
"147 637 LINE",
"-18 637 LINE",
"-18 0 LINE",
"17 0 LINE",
"17 603 LINE",
"147 603 LINE",
"80 539 LINE",
"104 515 LINE",
"210 620 LINE"
);
}
);
width = 0;
}
);
unicode = 200E;
},
{
glyphname = uni200F;
lastChange = "2017-09-07 21:15:43 +0000";
layers = (
{
layerId = UUID0;
paths = (
{
closed = 1;
nodes = (
"17 637 LINE",
"-147 637 LINE",
"-81 701 LINE",
"-104 725 LINE",
"-210 620 LINE",
"-104 515 LINE",
"-81 539 LINE",
"-147 603 LINE",
"-18 603 LINE",
"-18 0 LINE",
"17 0 LINE"
);
}
);
width = 0;
}
);
unicode = 200F;
},
{
glyphname = uni0710;
lastChange = "2017-09-07 21:15:43 +0000";
layers = (
{
anchors = (
{
name = mark0;
position = "{429, -49}";
}
);
layerId = UUID0;
paths = (
{
closed = 1;
nodes = (
"390 307 LINE",
"482 310 OFFCURVE",
"581 336 OFFCURVE",
"686 384 CURVE SMOOTH",
"791 433 OFFCURVE",
"870 487 OFFCURVE",
"922 547 CURVE",
"869 595 LINE",
"801 531 OFFCURVE",
"713 477 OFFCURVE",
"605 432 CURVE SMOOTH",
"498 388 OFFCURVE",
"399 366 OFFCURVE",
"310 366 CURVE SMOOTH",
"272 366 LINE SMOOTH",
"246 366 OFFCURVE",
"216 367 OFFCURVE",
"183 369 CURVE SMOOTH",
"150 371 OFFCURVE",
"123 374 OFFCURVE",
"102 377 CURVE",
"81 370 OFFCURVE",
"73 355 OFFCURVE",
"73 326 CURVE SMOOTH",
"73 317 OFFCURVE",
"80 279 OFFCURVE",
"95 213 CURVE SMOOTH",
"110 148 OFFCURVE",
"123 77 OFFCURVE",
"134 0 CURVE",
"208 0 LINE",
"201 52 OFFCURVE",
"191 108 OFFCURVE",
"179 167 CURVE SMOOTH",
"167 227 OFFCURVE",
"157 272 OFFCURVE",
"148 303 CURVE",
"156 303 LINE SMOOTH",
"265 303 OFFCURVE",
"374 254 OFFCURVE",
"484 156 CURVE SMOOTH",
"594 58 OFFCURVE",
"681 3 OFFCURVE",
"746 -8 CURVE",
"780 58 LINE",
"744 69 OFFCURVE",
"708 85 OFFCURVE",
"671 107 CURVE",
"635 130 OFFCURVE",
"590 164 OFFCURVE",
"535 209 CURVE",
"481 255 OFFCURVE",
"433 286 OFFCURVE",
"390 302 CURVE"
);
}
);
width = 930;
}
);
leftKerningGroup = uni0710;
rightKerningGroup = uni0710;
unicode = 0710;
},
{
glyphname = uni0710.Fina1;
lastChange = "2017-09-07 21:15:43 +0000";
layers = (
{
anchors = (
{
name = mark0;
position = "{429, -49}";
}
);
layerId = UUID0;
paths = (
{
closed = 1;
nodes = (
"870 76 LINE",
"837 76 LINE SMOOTH",
"780 76 OFFCURVE",
"729 86 OFFCURVE",
"684 107 CURVE SMOOTH",
"639 128 OFFCURVE",
"589 162 OFFCURVE",
"532 209 CURVE SMOOTH",
"475 256 OFFCURVE",
"427 287 OFFCURVE",
"388 302 CURVE",
"388 306 LINE",
"481 310 OFFCURVE",
"581 336 OFFCURVE",
"686 384 CURVE SMOOTH",
"791 432 OFFCURVE",
"870 486 OFFCURVE",
"922 547 CURVE",
"869 595 LINE",
"801 531 OFFCURVE",
"713 477 OFFCURVE",
"605 432 CURVE SMOOTH",
"498 388 OFFCURVE",
"399 366 OFFCURVE",
"310 366 CURVE SMOOTH",
"272 366 LINE SMOOTH",
"246 366 OFFCURVE",
"216 367 OFFCURVE",
"183 369 CURVE SMOOTH",
"150 371 OFFCURVE",
"123 374 OFFCURVE",
"102 377 CURVE",
"81 370 OFFCURVE",
"73 356 OFFCURVE",
"73 327 CURVE SMOOTH",
"73 317 OFFCURVE",
"80 279 OFFCURVE",
"95 213 CURVE SMOOTH",
"110 148 OFFCURVE",
"123 77 OFFCURVE",
"134 0 CURVE",
"208 0 LINE",
"201 47 OFFCURVE",
"192 101 OFFCURVE",
"180 160 CURVE SMOOTH",
"169 219 OFFCURVE",
"158 267 OFFCURVE",
"149 303 CURVE",
"156 303 LINE SMOOTH",
"219 303 OFFCURVE",
"275 290 OFFCURVE",
"324 265 CURVE SMOOTH",
"374 240 OFFCURVE",
"430 200 OFFCURVE",
"491 145 CURVE SMOOTH",
"553 90 OFFCURVE",
"609 52 OFFCURVE",
"659 31 CURVE SMOOTH",
"709 10 OFFCURVE",
"764 0 OFFCURVE",
"825 0 CURVE SMOOTH",
"870 0 LINE"
);
}
);
width = 870;
}
);
rightKerningGroup = uni0710;
},
{
glyphname = uni0711;
lastChange = "2017-09-07 21:15:43 +0000";
layers = (
{
anchors = (
{
name = _mark0;
position = "{0, 542}";
}
);
layerId = UUID0;
paths = (
{
closed = 1;
nodes = (
"104 578 LINE",
"84 585 OFFCURVE",
"63 597 OFFCURVE",
"42 615 CURVE SMOOTH",
"21 633 OFFCURVE",
"4 645 OFFCURVE",
"-8 652 CURVE",
"-8 654 LINE",
"55 665 OFFCURVE",
"103 691 OFFCURVE",
"132 730 CURVE",
"105 755 LINE",
"62 711 OFFCURVE",
"8 684 OFFCURVE",
"-48 684 CURVE SMOOTH",
"-57 684 OFFCURVE",
"-80 684 OFFCURVE",
"-103 688 CURVE",
"-114 685 OFFCURVE",
"-121 677 OFFCURVE",
"-121 662 CURVE SMOOTH",
"-121 651 OFFCURVE",
"-113 619 OFFCURVE",
"-108 594 CURVE",
"-105 571 LINE",
"-102 546 LINE",
"-62 546 LINE",
"-63 561 OFFCURVE",
"-66 579 OFFCURVE",
"-70 600 CURVE SMOOTH",
"-74 622 OFFCURVE",
"-78 639 OFFCURVE",
"-81 650 CURVE",
"-62 650 OFFCURVE",
"-47 644 OFFCURVE",
"-35 633 CURVE SMOOTH",
"14 586 LINE SMOOTH",
"35 567 OFFCURVE",
"59 552 OFFCURVE",
"86 542 CURVE"
);
}
);
width = 0;
}
);
unicode = 0711;
},
{
glyphname = uni0712;
lastChange = "2017-09-07 21:15:43 +0000";
layers = (
{
anchors = (
{
name = mark0;
position = "{812, -81}";
}
);
layerId = UUID0;
paths = (
{
closed = 1;
nodes = (
"708 0 LINE SMOOTH",
"837 0 OFFCURVE",
"889 50 OFFCURVE",
"889 175 CURVE SMOOTH",
"889 195 OFFCURVE",
"886 225 OFFCURVE",
"883 253 CURVE",
"879 275 LINE SMOOTH",
"862 376 OFFCURVE",
"809 426 OFFCURVE",
"705 426 CURVE SMOOTH",
"628 426 OFFCURVE",
"551 421 OFFCURVE",
"474 421 CURVE SMOOTH",
"391 421 OFFCURVE",
"347 424 OFFCURVE",
"326 429 CURVE",
"326 357 LINE",
"347 352 OFFCURVE",
"394 348 OFFCURVE",
"479 348 CURVE SMOOTH",
"548 348 OFFCURVE",
"621 353 OFFCURVE",
"690 353 CURVE SMOOTH",
"759 353 OFFCURVE",
"789 334 OFFCURVE",
"805 270 CURVE SMOOTH",
"813 239 OFFCURVE",
"817 207 OFFCURVE",
"817 175 CURVE SMOOTH",
"817 100 OFFCURVE",
"793 76 OFFCURVE",
"729 76 CURVE SMOOTH",
"262 76 LINE SMOOTH",
"174 76 OFFCURVE",
"129 89 OFFCURVE",
"94 138 CURVE",
"49 78 LINE",
"69 30 OFFCURVE",
"136 0 OFFCURVE",
"240 0 CURVE SMOOTH"
);
}
);
width = 958;
}
);
unicode = 0712;
},
{
glyphname = uni0712.Fina;
lastChange = "2017-09-07 21:15:43 +0000";
layers = (
{
anchors = (
{
name = mark0;
position = "{813, -83}";
}
);
layerId = UUID0;
paths = (
{
closed = 1;
nodes = (
"708 0 LINE SMOOTH",
"773 0 OFFCURVE",
"814 14 OFFCURVE",
"841 42 CURVE",
"846 42 LINE",
"874 7 OFFCURVE",
"908 0 OFFCURVE",
"968 0 CURVE",
"968 76 LINE",
"907 76 OFFCURVE",
"887 85 OFFCURVE",
"880 104 CURVE",
"887 124 OFFCURVE",
"889 148 OFFCURVE",
"889 175 CURVE SMOOTH",
"889 195 OFFCURVE",
"886 225 OFFCURVE",
"883 253 CURVE",
"879 275 LINE SMOOTH",
"862 376 OFFCURVE",
"809 426 OFFCURVE",
"705 426 CURVE SMOOTH",
"628 426 OFFCURVE",
"551 421 OFFCURVE",
"474 421 CURVE SMOOTH",
"391 421 OFFCURVE",
"347 424 OFFCURVE",
"326 429 CURVE",
"326 357 LINE",
"347 352 OFFCURVE",
"394 348 OFFCURVE",
"479 348 CURVE SMOOTH",
"548 348 OFFCURVE",
"621 353 OFFCURVE",
"690 353 CURVE SMOOTH",
"759 353 OFFCURVE",
"789 334 OFFCURVE",
"805 270 CURVE SMOOTH",
"813 239 OFFCURVE",
"817 207 OFFCURVE",
"817 175 CURVE SMOOTH",
"817 100 OFFCURVE",
"793 76 OFFCURVE",
"729 76 CURVE SMOOTH",
"262 76 LINE SMOOTH",
"174 76 OFFCURVE",
"129 89 OFFCURVE",
"94 138 CURVE",
"49 78 LINE",
"69 30 OFFCURVE",
"136 0 OFFCURVE",
"240 0 CURVE SMOOTH"
);
}
);
width = 968;
}
);
},
{
glyphname = uni0712.Medi;
lastChange = "2017-09-07 21:15:43 +0000";
layers = (
{
anchors = (
{
name = mark0;
position = "{585, -81}";
}
);
layerId = UUID0;
paths = (
{
closed = 1;
nodes = (
"480 0 LINE SMOOTH",
"545 0 OFFCURVE",
"586 14 OFFCURVE",
"613 42 CURVE",
"618 42 LINE",
"646 7 OFFCURVE",
"680 0 OFFCURVE",
"740 0 CURVE",
"740 76 LINE",
"679 76 OFFCURVE",
"659 85 OFFCURVE",
"652 104 CURVE",
"659 124 OFFCURVE",
"661 148 OFFCURVE",
"661 175 CURVE SMOOTH",
"661 195 OFFCURVE",
"658 225 OFFCURVE",
"655 253 CURVE",
"651 275 LINE SMOOTH",
"634 376 OFFCURVE",
"581 426 OFFCURVE",
"477 426 CURVE SMOOTH",
"400 426 OFFCURVE",
"323 421 OFFCURVE",
"246 421 CURVE SMOOTH",
"163 421 OFFCURVE",
"119 424 OFFCURVE",
"98 429 CURVE",
"98 357 LINE",
"119 352 OFFCURVE",
"166 348 OFFCURVE",
"251 348 CURVE SMOOTH",
"320 348 OFFCURVE",
"393 353 OFFCURVE",
"462 353 CURVE SMOOTH",
"531 353 OFFCURVE",
"561 334 OFFCURVE",
"577 270 CURVE SMOOTH",
"585 239 OFFCURVE",
"589 207 OFFCURVE",
"589 175 CURVE SMOOTH",
"589 100 OFFCURVE",
"565 76 OFFCURVE",
"501 76 CURVE SMOOTH",
"0 76 LINE SMOOTH",
"-21 76 OFFCURVE",
"-39 61 OFFCURVE",
"-39 38 CURVE SMOOTH",
"-39 14 OFFCURVE",
"-21 0 OFFCURVE",
"0 0 CURVE SMOOTH"
);
}
);
width = 740;
}
);
},
{
glyphname = uni0712.Init;
lastChange = "2017-09-07 21:15:43 +0000";
layers = (
{
anchors = (
{
name = mark0;
position = "{585, -81}";
}
);
layerId = UUID0;
paths = (
{
closed = 1;
nodes = (
"480 0 LINE SMOOTH",
"609 0 OFFCURVE",
"661 50 OFFCURVE",
"661 175 CURVE SMOOTH",
"661 195 OFFCURVE",
"658 225 OFFCURVE",
"655 253 CURVE",
"651 275 LINE SMOOTH",
"634 376 OFFCURVE",
"581 426 OFFCURVE",
"477 426 CURVE SMOOTH",
"400 426 OFFCURVE",
"323 421 OFFCURVE",
"246 421 CURVE SMOOTH",
"163 421 OFFCURVE",
"119 424 OFFCURVE",
"98 429 CURVE",
"98 357 LINE",
"119 352 OFFCURVE",
"166 348 OFFCURVE",
"251 348 CURVE SMOOTH",
"320 348 OFFCURVE",
"393 353 OFFCURVE",
"462 353 CURVE SMOOTH",
"531 353 OFFCURVE",
"561 334 OFFCURVE",
"577 270 CURVE SMOOTH",
"585 239 OFFCURVE",
"589 207 OFFCURVE",
"589 175 CURVE SMOOTH",
"589 100 OFFCURVE",
"565 76 OFFCURVE",
"501 76 CURVE SMOOTH",
"0 76 LINE SMOOTH",
"-21 76 OFFCURVE",
"-39 61 OFFCURVE",
"-39 38 CURVE SMOOTH",
"-39 14 OFFCURVE",
"-21 0 OFFCURVE",
"0 0 CURVE SMOOTH"
);
}
);
width = 730;
}
);
},
{
glyphname = uni0713;
lastChange = "2017-09-07 21:15:43 +0000";
layers = (
{
anchors = (
{
name = mark0;
position = "{880, -232}";
}
);
layerId = UUID0;
paths = (
{
closed = 1;
nodes = (
"955 -100 LINE",
"877 -52 OFFCURVE",
"804 -17 OFFCURVE",
"737 5 CURVE SMOOTH",
"670 28 OFFCURVE",
"600 45 OFFCURVE",
"529 57 CURVE SMOOTH",
"458 70 OFFCURVE",
"375 76 OFFCURVE",
"278 76 CURVE SMOOTH",
"246 76 OFFCURVE",
"207 74 OFFCURVE",
"160 71 CURVE SMOOTH",
"114 68 OFFCURVE",
"77 63 OFFCURVE",
"49 58 CURVE",
"63 -12 LINE",
"87 -9 OFFCURVE",
"120 -7 OFFCURVE",
"163 -4 CURVE SMOOTH",
"206 -1 OFFCURVE",
"250 0 OFFCURVE",
"293 0 CURVE SMOOTH",
"440 0 OFFCURVE",
"587 -24 OFFCURVE",
"743 -77 CURVE SMOOTH",
"822 -104 OFFCURVE",
"895 -136 OFFCURVE",
"962 -171 CURVE SMOOTH",
"1029 -206 OFFCURVE",
"1116 -261 OFFCURVE",
"1222 -335 CURVE SMOOTH",
"1278 -375 LINE",
"1324 -316 LINE",
"1249 -267 OFFCURVE",
"1161 -197 OFFCURVE",
"1061 -107 CURVE SMOOTH",
"961 -17 OFFCURVE",
"863 84 OFFCURVE",
"767 195 CURVE SMOOTH",
"672 306 OFFCURVE",
"582 420 OFFCURVE",
"497 536 CURVE",
"427 496 LINE",
"518 368 OFFCURVE",
"612 250 OFFCURVE",
"708 141 CURVE SMOOTH",
"805 32 OFFCURVE",
"888 -47 OFFCURVE",
"958 -97 CURVE"
);
}
);
width = 1091;
}
);
leftKerningGroup = uni0713;
unicode = 0713;
},
{
glyphname = uni0713.Fina;
lastChange = "2017-09-07 21:15:43 +0000";
layers = (
{
anchors = (
{
name = mark0;
position = "{881, -232}";
}
);
layerId = UUID0;
paths = (
{
closed = 1;
nodes = (
"955 -100 LINE",
"877 -52 OFFCURVE",
"804 -17 OFFCURVE",
"737 5 CURVE SMOOTH",
"670 28 OFFCURVE",
"600 45 OFFCURVE",
"529 57 CURVE SMOOTH",
"458 70 OFFCURVE",
"375 76 OFFCURVE",
"278 76 CURVE SMOOTH",
"246 76 OFFCURVE",
"207 74 OFFCURVE",
"160 71 CURVE SMOOTH",
"114 68 OFFCURVE",
"77 63 OFFCURVE",
"49 58 CURVE",
"63 -12 LINE",
"87 -9 OFFCURVE",
"120 -7 OFFCURVE",
"163 -4 CURVE SMOOTH",
"206 -1 OFFCURVE",
"250 0 OFFCURVE",
"293 0 CURVE SMOOTH",
"440 0 OFFCURVE",
"587 -24 OFFCURVE",
"743 -77 CURVE SMOOTH",
"822 -104 OFFCURVE",
"895 -136 OFFCURVE",
"962 -171 CURVE SMOOTH",
"1029 -206 OFFCURVE",
"1116 -261 OFFCURVE",
"1222 -335 CURVE SMOOTH",
"1278 -375 LINE",
"1324 -316 LINE",
"1263 -277 OFFCURVE",
"1198 -226 OFFCURVE",
"1127 -165 CURVE SMOOTH",
"1057 -104 OFFCURVE",
"996 -48 OFFCURVE",
"945 3 CURVE",
"945 76 LINE",
"875 76 LINE",
"754 204 OFFCURVE",
"624 361 OFFCURVE",
"497 536 CURVE",
"427 496 LINE",
"518 368 OFFCURVE",
"612 250 OFFCURVE",
"708 141 CURVE SMOOTH",
"805 32 OFFCURVE",
"888 -47 OFFCURVE",
"958 -97 CURVE"
);
}
);
width = 945;
}
);
},
{
glyphname = uni0713.Medi;
lastChange = "2017-09-07 21:15:43 +0000";
layers = (
{
anchors = (
{
name = mark0;
position = "{508, -230}";
}
);
layerId = UUID0;
paths = (
{
closed = 1;
nodes = (
"535 -61 LINE",
"438 -8 OFFCURVE",
"349 28 OFFCURVE",
"270 47 CURVE SMOOTH",
"191 66 OFFCURVE",
"101 76 OFFCURVE",
"0 76 CURVE SMOOTH",
"-21 76 OFFCURVE",
"-39 61 OFFCURVE",
"-39 38 CURVE SMOOTH",
"-39 14 OFFCURVE",
"-21 0 OFFCURVE",
"0 0 CURVE SMOOTH",
"151 0 OFFCURVE",
"282 -25 OFFCURVE",
"399 -69 CURVE SMOOTH",
"518 -114 OFFCURVE",
"619 -174 OFFCURVE",
"750 -266 CURVE SMOOTH",
"870 -351 LINE",
"905 -375 LINE",
"951 -316 LINE",
"892 -278 OFFCURVE",
"829 -229 OFFCURVE",
"760 -170 CURVE SMOOTH",
"691 -111 OFFCURVE",
"628 -53 OFFCURVE",
"571 4 CURVE",
"571 76 LINE",
"501 76 LINE",
"386 199 OFFCURVE",
"253 357 OFFCURVE",
"124 536 CURVE",
"54 496 LINE",
"221 261 OFFCURVE",
"385 73 OFFCURVE",
"538 -58 CURVE"
);
}
);
width = 571;
}
);
},
{
glyphname = uni0713.Init;
lastChange = "2017-09-07 21:15:43 +0000";
layers = (
{
anchors = (
{
name = mark0;
position = "{508, -232}";
}
);
layerId = UUID0;
paths = (
{
closed = 1;
nodes = (
"535 -61 LINE",
"438 -8 OFFCURVE",
"349 28 OFFCURVE",
"270 47 CURVE SMOOTH",
"191 66 OFFCURVE",
"101 76 OFFCURVE",
"0 76 CURVE SMOOTH",
"-21 76 OFFCURVE",
"-39 61 OFFCURVE",
"-39 38 CURVE SMOOTH",
"-39 14 OFFCURVE",
"-21 0 OFFCURVE",
"0 0 CURVE SMOOTH",
"151 0 OFFCURVE",
"282 -25 OFFCURVE",
"399 -69 CURVE SMOOTH",
"518 -114 OFFCURVE",
"619 -174 OFFCURVE",
"750 -266 CURVE SMOOTH",
"870 -351 LINE",
"905 -375 LINE",
"951 -316 LINE",
"876 -267 OFFCURVE",
"789 -198 OFFCURVE",
"690 -109 CURVE SMOOTH",
"591 -20 OFFCURVE",
"494 79 OFFCURVE",
"399 188 CURVE SMOOTH",
"304 298 OFFCURVE",
"213 414 OFFCURVE",
"124 536 CURVE",
"54 496 LINE",
"221 261 OFFCURVE",
"385 73 OFFCURVE",
"538 -58 CURVE"
);
}
);
width = 718;
}
);
leftKerningGroup = uni0713;
},
{
glyphname = uni0716;
lastChange = "2017-09-07 21:15:43 +0000";
layers = (
{
anchors = (
{
name = mark0;
position = "{443, -106}";
}
);
layerId = UUID0;
paths = (
{
closed = 1;
nodes = (
"44 353 LINE",
"341 353 LINE",
"349 328 OFFCURVE",
"359 274 OFFCURVE",
"371 190 CURVE",
"384 107 OFFCURVE",
"393 37 OFFCURVE",
"398 -18 CURVE",
"471 -18 LINE",
"464 48 OFFCURVE",
"455 122 OFFCURVE",
"442 203 CURVE SMOOTH",
"429 285 OFFCURVE",
"418 343 OFFCURVE",
"409 376 CURVE SMOOTH",
"400 409 OFFCURVE",
"374 426 OFFCURVE",
"330 426 CURVE SMOOTH",
"44 426 LINE"
);
}
);
width = 539;
}
);
rightKerningGroup = uni0715;
unicode = 0716;
},
{
glyphname = uni0716.Fina;
lastChange = "2017-09-07 21:15:43 +0000";
layers = (
{
anchors = (
{
name = mark0;
position = "{443, -106}";
}
);
layerId = UUID0;
paths = (
{
closed = 1;
nodes = (
"44 353 LINE",
"341 353 LINE",
"349 328 OFFCURVE",
"359 274 OFFCURVE",
"371 190 CURVE",
"384 107 OFFCURVE",
"393 37 OFFCURVE",
"398 -18 CURVE",
"470 -18 LINE",
"466 18 LINE",
"470 18 LINE",
"482 6 OFFCURVE",
"503 0 OFFCURVE",
"527 0 CURVE SMOOTH",
"531 0 LINE",
"531 76 LINE",
"519 76 LINE SMOOTH",
"483 76 OFFCURVE",
"459 87 OFFCURVE",
"456 111 CURVE SMOOTH",
"445 186 LINE SMOOTH",
"430 284 OFFCURVE",
"418 348 OFFCURVE",
"408 379 CURVE SMOOTH",
"399 410 OFFCURVE",
"373 426 OFFCURVE",
"330 426 CURVE SMOOTH",
"44 426 LINE"
);
}
);
width = 531;
}
);
rightKerningGroup = uni0715;
},
{
glyphname = uni0717;
lastChange = "2017-09-07 21:15:43 +0000";
layers = (
{
anchors = (
{
name = mark0;
position = "{474, -97}";
}
);
layerId = UUID0;
paths = (
{
closed = 1;
nodes = (
"426 -6 LINE",
"535 353 LINE",
"563 357 OFFCURVE",
"600 362 OFFCURVE",
"643 362 CURVE SMOOTH",
"748 362 OFFCURVE",
"788 314 OFFCURVE",
"788 198 CURVE SMOOTH",
"788 101 OFFCURVE",
"744 76 OFFCURVE",
"656 76 CURVE SMOOTH",
"646 76 LINE",
"643 2 LINE",
"648 1 OFFCURVE",
"653 0 OFFCURVE",
"658 0 CURVE SMOOTH",
"667 0 LINE SMOOTH",
"794 0 OFFCURVE",
"861 63 OFFCURVE",
"861 195 CURVE SMOOTH",
"861 356 OFFCURVE",
"789 436 OFFCURVE",
"649 436 CURVE SMOOTH",
"609 436 OFFCURVE",
"559 426 OFFCURVE",
"498 426 CURVE SMOOTH",
"453 426 OFFCURVE",
"377 437 OFFCURVE",
"312 437 CURVE SMOOTH",
"161 437 OFFCURVE",
"68 356 OFFCURVE",
"68 225 CURVE SMOOTH",
"68 108 OFFCURVE",
"119 35 OFFCURVE",
"231 -8 CURVE",
"264 57 LINE",
"176 93 OFFCURVE",
"142 140 OFFCURVE",
"142 216 CURVE SMOOTH",
"142 313 OFFCURVE",
"201 365 OFFCURVE",
"333 365 CURVE SMOOTH",
"386 365 OFFCURVE",
"429 359 OFFCURVE",
"458 354 CURVE",
"355 5 LINE"
);
}
);
width = 930;
}
);
rightKerningGroup = uni0717;
unicode = 0717;
},
{
glyphname = uni0717.Fina;
lastChange = "2017-09-07 21:15:43 +0000";
layers = (
{
anchors = (
{
name = mark0;
position = "{474, -97}";
}
);
layerId = UUID0;
paths = (
{
closed = 1;
nodes = (
"942 0 LINE",
"942 76 LINE",
"933 76 LINE SMOOTH",
"878 76 OFFCURVE",
"854 83 OFFCURVE",
"846 102 CURVE",
"858 133 OFFCURVE",
"861 166 OFFCURVE",
"861 195 CURVE SMOOTH",
"861 356 OFFCURVE",
"789 436 OFFCURVE",
"649 436 CURVE SMOOTH",
"609 436 OFFCURVE",
"559 426 OFFCURVE",
"498 426 CURVE SMOOTH",
"453 426 OFFCURVE",
"377 437 OFFCURVE",
"312 437 CURVE SMOOTH",
"161 437 OFFCURVE",
"68 356 OFFCURVE",
"68 225 CURVE SMOOTH",
"68 108 OFFCURVE",
"119 35 OFFCURVE",
"231 -8 CURVE",
"264 57 LINE",
"176 93 OFFCURVE",
"142 140 OFFCURVE",
"142 216 CURVE SMOOTH",
"142 313 OFFCURVE",
"201 365 OFFCURVE",
"333 365 CURVE SMOOTH",
"386 365 OFFCURVE",
"429 359 OFFCURVE",
"458 354 CURVE",
"355 5 LINE",
"426 -6 LINE",
"535 353 LINE",
"563 357 OFFCURVE",
"600 362 OFFCURVE",
"643 362 CURVE SMOOTH",
"748 362 OFFCURVE",
"788 314 OFFCURVE",
"788 198 CURVE SMOOTH",
"788 101 OFFCURVE",
"744 76 OFFCURVE",
"656 76 CURVE SMOOTH",
"646 76 LINE",
"643 2 LINE",
"648 1 OFFCURVE",
"653 0 OFFCURVE",
"658 0 CURVE SMOOTH",
"667 0 LINE SMOOTH",
"734 0 OFFCURVE",
"776 18 OFFCURVE",
"805 43 CURVE",
"810 43 LINE",
"841 7 OFFCURVE",
"877 0 OFFCURVE",
"933 0 CURVE SMOOTH"
);
}
);
width = 942;
}
);
rightKerningGroup = uni0717;
},
{
glyphname = uni0718;
lastChange = "2017-09-07 21:15:43 +0000";
layers = (
{
anchors = (
{
name = mark0;
position = "{316, -98}";
}
);
layerId = UUID0;
paths = (
{
closed = 1;
nodes = (
"545 -9 LINE",
"519 176 OFFCURVE",
"490 297 OFFCURVE",
"458 352 CURVE SMOOTH",
"426 408 OFFCURVE",
"371 436 OFFCURVE",
"294 436 CURVE SMOOTH",
"233 436 OFFCURVE",
"180 412 OFFCURVE",
"135 363 CURVE SMOOTH",
"90 314 OFFCURVE",
"68 258 OFFCURVE",
"68 195 CURVE SMOOTH",
"68 68 OFFCURVE",
"150 -9 OFFCURVE",
"283 -9 CURVE SMOOTH",
"326 -9 OFFCURVE",
"363 -6 OFFCURVE",
"396 9 CURVE",
"375 74 LINE",
"347 66 OFFCURVE",
"325 64 OFFCURVE",
"292 64 CURVE SMOOTH",
"196 64 OFFCURVE",
"142 110 OFFCURVE",
"142 197 CURVE SMOOTH",
"142 242 OFFCURVE",
"157 280 OFFCURVE",
"186 313 CURVE SMOOTH",
"215 346 OFFCURVE",
"252 362 OFFCURVE",
"297 362 CURVE SMOOTH",
"334 362 OFFCURVE",
"362 352 OFFCURVE",
"381 331 CURVE SMOOTH",
"400 311 OFFCURVE",
"416 274 OFFCURVE",
"429 219 CURVE SMOOTH",
"442 164 OFFCURVE",
"454 107 OFFCURVE",
"463 48 CURVE",
"473 -9 LINE"
);
}
);
width = 610;
}
);
rightKerningGroup = uni0718;
unicode = 0718;
},
{
glyphname = uni0718.Fina;
lastChange = "2017-09-07 21:15:43 +0000";
layers = (
{
anchors = (
{
name = mark0;
position = "{316, -98}";
}
);
layerId = UUID0;
paths = (
{
closed = 1;
nodes = (
"542 -9 LINE",
"538 23 LINE",
"542 23 LINE",
"555 8 OFFCURVE",
"571 0 OFFCURVE",
"598 0 CURVE",
"598 76 LINE",
"562 76 OFFCURVE",
"529 89 OFFCURVE",
"526 112 CURVE SMOOTH",
"525 123 OFFCURVE",
"521 144 OFFCURVE",
"514 175 CURVE SMOOTH",
"501 230 LINE SMOOTH",
"483 309 OFFCURVE",
"458 363 OFFCURVE",
"426 392 CURVE SMOOTH",
"395 421 OFFCURVE",
"351 436 OFFCURVE",
"294 436 CURVE SMOOTH",
"233 436 OFFCURVE",
"180 412 OFFCURVE",
"135 363 CURVE SMOOTH",
"90 314 OFFCURVE",
"68 258 OFFCURVE",
"68 195 CURVE SMOOTH",
"68 68 OFFCURVE",
"150 -9 OFFCURVE",
"283 -9 CURVE SMOOTH",
"326 -9 OFFCURVE",
"363 -6 OFFCURVE",
"396 9 CURVE",
"375 74 LINE",
"347 66 OFFCURVE",
"325 64 OFFCURVE",
"292 64 CURVE SMOOTH",
"196 64 OFFCURVE",
"142 110 OFFCURVE",
"142 197 CURVE SMOOTH",
"142 242 OFFCURVE",
"157 280 OFFCURVE",
"186 313 CURVE SMOOTH",
"215 346 OFFCURVE",
"252 362 OFFCURVE",
"297 362 CURVE SMOOTH",
"334 362 OFFCURVE",
"362 352 OFFCURVE",
"381 331 CURVE SMOOTH",
"400 311 OFFCURVE",
"416 274 OFFCURVE",
"429 219 CURVE SMOOTH",
"442 164 OFFCURVE",
"454 107 OFFCURVE",
"463 48 CURVE",
"473 -9 LINE"
);
}
);
width = 598;
}
);
rightKerningGroup = uni0718;
},
{
glyphname = uni0719;
lastChange = "2017-09-07 21:15:43 +0000";
layers = (
{
anchors = (
{
name = mark0;
position = "{152, -138}";
}
);
layerId = UUID0;
paths = (
{
closed = 1;
nodes = (
"68 417 LINE",
"79 359 LINE",
"90 294 OFFCURVE",
"101 224 OFFCURVE",
"112 150 CURVE SMOOTH",
"123 76 OFFCURVE",
"132 14 OFFCURVE",
"137 -37 CURVE",
"209 -37 LINE",
"206 -6 OFFCURVE",
"202 33 OFFCURVE",
"195 80 CURVE SMOOTH",
"189 127 OFFCURVE",
"183 170 OFFCURVE",
"177 208 CURVE SMOOTH",
"152 364 LINE",
"141 426 LINE"
);
}
);
width = 275;
}
);
rightKerningGroup = uni0719;
unicode = 0719;
},
{
glyphname = uni0719.Fina;
lastChange = "2017-09-07 21:15:43 +0000";
layers = (
{
anchors = (
{
name = mark0;
position = "{151, -137}";
}
);
layerId = UUID0;
paths = (
{
closed = 1;
nodes = (
"68 417 LINE",
"79 359 LINE SMOOTH",
"88 308 OFFCURVE",
"98 243 OFFCURVE",
"110 162 CURVE SMOOTH",
"123 81 OFFCURVE",
"132 13 OFFCURVE",
"138 -42 CURVE",
"208 -42 LINE",
"207 -23 OFFCURVE",
"205 -3 OFFCURVE",
"201 18 CURVE",
"206 18 LINE",
"218 6 OFFCURVE",
"239 0 OFFCURVE",
"263 0 CURVE SMOOTH",
"277 0 LINE",
"277 76 LINE",
"255 76 LINE SMOOTH",
"215 76 OFFCURVE",
"194 88 OFFCURVE",
"191 112 CURVE SMOOTH",
"188 137 OFFCURVE",
"180 194 OFFCURVE",
"165 285 CURVE SMOOTH",
"152 362 LINE",
"141 426 LINE"
);
}
);
width = 277;
}
);
rightKerningGroup = uni0719;
},
{
glyphname = uni071A;
lastChange = "2017-09-07 21:15:43 +0000";
layers = (
{
anchors = (
{
name = mark0;
position = "{481, -98}";
}
);
layerId = UUID0;
paths = (
{
closed = 1;
nodes = (
"49 89 LINE",
"69 38 OFFCURVE",
"140 0 OFFCURVE",
"219 0 CURVE SMOOTH",
"294 0 OFFCURVE",
"339 27 OFFCURVE",
"362 62 CURVE",
"387 26 OFFCURVE",
"438 0 OFFCURVE",
"489 0 CURVE SMOOTH",
"576 0 OFFCURVE",
"633 58 OFFCURVE",
"633 150 CURVE SMOOTH",
"633 184 OFFCURVE",
"629 218 OFFCURVE",
"622 251 CURVE SMOOTH",
"615 284 OFFCURVE",
"609 309 OFFCURVE",
"602 324 CURVE SMOOTH",
"595 340 OFFCURVE",
"585 348 OFFCURVE",
"570 348 CURVE SMOOTH",
"550 348 OFFCURVE",
"531 338 OFFCURVE",
"531 310 CURVE SMOOTH",
"531 290 OFFCURVE",
"535 261 OFFCURVE",
"543 223 CURVE SMOOTH",
"551 186 OFFCURVE",
"560 151 OFFCURVE",
"570 119 CURVE",
"562 90 OFFCURVE",
"535 76 OFFCURVE",
"492 76 CURVE SMOOTH",
"447 76 OFFCURVE",
"409 99 OFFCURVE",
"390 140 CURVE",
"390 165 OFFCURVE",
"387 197 OFFCURVE",
"380 236 CURVE SMOOTH",
"374 275 OFFCURVE",
"368 303 OFFCURVE",
"361 320 CURVE SMOOTH",
"355 337 OFFCURVE",
"345 346 OFFCURVE",
"331 346 CURVE SMOOTH",
"307 346 OFFCURVE",
"289 336 OFFCURVE",
"289 304 CURVE SMOOTH",
"289 280 OFFCURVE",
"292 250 OFFCURVE",
"299 215 CURVE SMOOTH",
"306 180 OFFCURVE",
"314 150 OFFCURVE",
"325 123 CURVE",
"314 92 OFFCURVE",
"275 76 OFFCURVE",
"222 76 CURVE SMOOTH",
"162 76 OFFCURVE",
"119 95 OFFCURVE",
"94 132 CURVE",
"49 89 LINE"
);
}
);
width = 701;
}
);
unicode = 071A;
},
{
glyphname = uni071A.Fina;
lastChange = "2017-09-07 21:15:43 +0000";
layers = (
{
anchors = (
{
name = mark0;
position = "{480, -99}";
}
);
layerId = UUID0;
paths = (
{
closed = 1;
nodes = (
"49 89 LINE",
"69 38 OFFCURVE",
"140 0 OFFCURVE",
"219 0 CURVE SMOOTH",
"292 0 OFFCURVE",
"338 26 OFFCURVE",
"361 62 CURVE",
"386 26 OFFCURVE",
"436 0 OFFCURVE",
"488 0 CURVE SMOOTH",
"539 0 OFFCURVE",
"579 19 OFFCURVE",
"604 55 CURVE",
"631 23 OFFCURVE",
"671 0 OFFCURVE",
"727 0 CURVE",
"727 76 LINE",
"682 76 OFFCURVE",
"643 102 OFFCURVE",
"631 139 CURVE",
"632 141 OFFCURVE",
"632 144 OFFCURVE",
"632 147 CURVE SMOOTH",
"632 219 OFFCURVE",
"614 293 OFFCURVE",
"601 324 CURVE SMOOTH",
"594 340 OFFCURVE",
"584 348 OFFCURVE",
"569 348 CURVE SMOOTH",
"549 348 OFFCURVE",
"530 338 OFFCURVE",
"530 310 CURVE SMOOTH",
"530 286 OFFCURVE",
"534 254 OFFCURVE",
"541 215 CURVE SMOOTH",
"549 176 OFFCURVE",
"558 143 OFFCURVE",
"569 116 CURVE",
"560 85 OFFCURVE",
"528 76 OFFCURVE",
"491 76 CURVE SMOOTH",
"446 76 OFFCURVE",
"408 99 OFFCURVE",
"389 140 CURVE",
"389 165 OFFCURVE",
"386 197 OFFCURVE",
"379 236 CURVE SMOOTH",
"373 275 OFFCURVE",
"367 303 OFFCURVE",
"360 320 CURVE SMOOTH",
"354 337 OFFCURVE",
"344 346 OFFCURVE",
"330 346 CURVE SMOOTH",
"306 346 OFFCURVE",
"288 336 OFFCURVE",
"288 304 CURVE SMOOTH",
"288 281 OFFCURVE",
"291 252 OFFCURVE",
"298 215 CURVE SMOOTH",
"305 179 OFFCURVE",
"314 148 OFFCURVE",
"325 122 CURVE",
"313 93 OFFCURVE",
"273 76 OFFCURVE",
"222 76 CURVE SMOOTH",
"162 76 OFFCURVE",
"119 95 OFFCURVE",
"94 132 CURVE",
"49 89 LINE"
);
}
);
width = 727;
}
);
},
{
glyphname = uni071A.Medi;
lastChange = "2017-09-07 21:15:43 +0000";
layers = (
{
anchors = (
{
name = mark0;
position = "{302, -98}";
}
);
layerId = UUID0;
paths = (
{
closed = 1;
nodes = (
"126 92 OFFCURVE",
"81 76 OFFCURVE",
"25 76 CURVE SMOOTH",
"0 76 LINE SMOOTH",
"-21 76 OFFCURVE",
"-39 61 OFFCURVE",
"-39 38 CURVE SMOOTH",
"-39 14 OFFCURVE",
"-21 0 OFFCURVE",
"0 0 CURVE SMOOTH",
"17 0 LINE SMOOTH",
"92 0 OFFCURVE",
"143 20 OFFCURVE",
"175 61 CURVE",
"200 25 OFFCURVE",
"250 0 OFFCURVE",
"302 0 CURVE SMOOTH",
"351 0 OFFCURVE",
"393 19 OFFCURVE",
"418 55 CURVE",
"443 23 OFFCURVE",
"484 0 OFFCURVE",
"541 0 CURVE",
"541 76 LINE",
"496 76 OFFCURVE",
"457 102 OFFCURVE",
"445 139 CURVE",
"445 147 LINE SMOOTH",
"445 219 OFFCURVE",
"427 293 OFFCURVE",
"414 324 CURVE SMOOTH",
"408 340 OFFCURVE",
"397 348 OFFCURVE",
"382 348 CURVE SMOOTH",
"362 348 OFFCURVE",
"344 338 OFFCURVE",
"344 310 CURVE SMOOTH",
"344 286 OFFCURVE",
"348 254 OFFCURVE",
"355 215 CURVE SMOOTH",
"363 176 OFFCURVE",
"372 143 OFFCURVE",
"382 116 CURVE",
"373 85 OFFCURVE",
"341 76 OFFCURVE",
"304 76 CURVE SMOOTH",
"260 76 OFFCURVE",
"221 99 OFFCURVE",
"202 140 CURVE",
"202 165 OFFCURVE",
"199 197 OFFCURVE",
"192 236 CURVE SMOOTH",
"186 275 OFFCURVE",
"180 303 OFFCURVE",
"174 320 CURVE SMOOTH",
"168 337 OFFCURVE",
"158 346 OFFCURVE",
"143 346 CURVE SMOOTH",
"119 346 OFFCURVE",
"102 336 OFFCURVE",
"102 304 CURVE SMOOTH",
"102 281 OFFCURVE",
"105 252 OFFCURVE",
"112 216 CURVE SMOOTH",
"119 181 OFFCURVE",
"127 150 OFFCURVE",
"138 123 CURVE"
);
}
);
width = 541;
}
);
},
{
glyphname = uni071A.Init;
lastChange = "2017-09-07 21:15:43 +0000";
layers = (
{
anchors = (
{
name = mark0;
position = "{303, -98}";
}
);
layerId = UUID0;
paths = (
{
closed = 1;
nodes = (
"126 92 OFFCURVE",
"81 76 OFFCURVE",
"25 76 CURVE SMOOTH",
"0 76 LINE SMOOTH",
"-21 76 OFFCURVE",
"-39 61 OFFCURVE",
"-39 38 CURVE SMOOTH",
"-39 14 OFFCURVE",
"-21 0 OFFCURVE",
"0 0 CURVE SMOOTH",
"17 0 LINE SMOOTH",
"92 0 OFFCURVE",
"143 20 OFFCURVE",
"175 61 CURVE",
"200 25 OFFCURVE",
"250 0 OFFCURVE",
"302 0 CURVE SMOOTH",
"387 0 OFFCURVE",
"445 58 OFFCURVE",
"445 150 CURVE SMOOTH",
"445 184 OFFCURVE",
"441 218 OFFCURVE",
"434 251 CURVE SMOOTH",
"427 284 OFFCURVE",
"421 309 OFFCURVE",
"414 324 CURVE",
"408 340 OFFCURVE",
"397 348 OFFCURVE",
"382 348 CURVE SMOOTH",
"362 348 OFFCURVE",
"344 338 OFFCURVE",
"344 310 CURVE SMOOTH",
"344 290 OFFCURVE",
"348 261 OFFCURVE",
"355 223 CURVE",
"363 186 OFFCURVE",
"372 151 OFFCURVE",
"383 119 CURVE",
"374 90 OFFCURVE",
"348 76 OFFCURVE",
"304 76 CURVE SMOOTH",
"260 76 OFFCURVE",
"221 99 OFFCURVE",
"202 140 CURVE",
"202 165 OFFCURVE",
"199 197 OFFCURVE",
"192 236 CURVE SMOOTH",
"186 275 OFFCURVE",
"180 303 OFFCURVE",
"174 320 CURVE SMOOTH",
"168 337 OFFCURVE",
"158 346 OFFCURVE",
"143 346 CURVE SMOOTH",
"119 346 OFFCURVE",
"102 336 OFFCURVE",
"102 304 CURVE SMOOTH",
"102 281 OFFCURVE",
"105 252 OFFCURVE",
"112 216 CURVE SMOOTH",
"119 181 OFFCURVE",
"127 150 OFFCURVE",
"138 123 CURVE"
);
}
);
width = 514;
}
);
},
{
glyphname = uni071B;
lastChange = "2017-09-07 21:15:43 +0000";
layers = (
{
anchors = (
{
name = mark0;
position = "{564, -418}";
}
);
layerId = UUID0;
paths = (
{
closed = 1;
nodes = (
"536 0 LINE",
"630 -238 LINE SMOOTH",
"659 -310 OFFCURVE",
"687 -353 OFFCURVE",
"731 -353 CURVE SMOOTH",
"750 -353 OFFCURVE",
"766 -348 OFFCURVE",
"781 -337 CURVE SMOOTH",
"796 -326 OFFCURVE",
"818 -296 OFFCURVE",
"849 -245 CURVE SMOOTH",
"880 -195 OFFCURVE",
"905 -144 OFFCURVE",
"923 -92 CURVE SMOOTH",
"941 -40 OFFCURVE",
"950 1 OFFCURVE",
"950 32 CURVE SMOOTH",
"950 60 OFFCURVE",
"927 76 OFFCURVE",
"894 76 CURVE SMOOTH",
"595 76 LINE",
"344 720 LINE",
"273 693 LINE",
"513 76 LINE",
"268 76 LINE SMOOTH",
"218 76 OFFCURVE",
"182 79 OFFCURVE",
"159 86 CURVE SMOOTH",
"136 93 OFFCURVE",
"117 108 OFFCURVE",
"101 131 CURVE",
"49 85 LINE",
"76 24 OFFCURVE",
"133 0 OFFCURVE",
"230 0 CURVE SMOOTH"
);
},
{
closed = 1;
nodes = (
"739 -279 LINE",
"730 -276 OFFCURVE",
"713 -241 OFFCURVE",
"702 -214 CURVE SMOOTH",
"618 0 LINE",
"876 0 LINE",
"871 -35 OFFCURVE",
"853 -85 OFFCURVE",
"821 -150 CURVE SMOOTH",
"789 -216 OFFCURVE",
"763 -259 OFFCURVE",
"743 -279 CURVE"
);
}
);
width = 999;
}
);
leftKerningGroup = uni071B;
unicode = 071B;
},
{
glyphname = uni071B.Fina;
lastChange = "2017-09-07 21:15:43 +0000";
layers = (
{
anchors = (
{
name = mark0;
position = "{564, -418}";
}
);
layerId = UUID0;
paths = (
{
closed = 1;
nodes = (
"536 0 LINE",
"630 -238 LINE SMOOTH",
"659 -310 OFFCURVE",
"687 -353 OFFCURVE",
"731 -353 CURVE SMOOTH",
"750 -353 OFFCURVE",
"766 -348 OFFCURVE",
"781 -337 CURVE SMOOTH",
"796 -326 OFFCURVE",
"818 -296 OFFCURVE",
"849 -245 CURVE SMOOTH",
"880 -195 OFFCURVE",
"905 -144 OFFCURVE",
"923 -92 CURVE SMOOTH",
"941 -40 OFFCURVE",
"950 1 OFFCURVE",
"950 32 CURVE SMOOTH",
"950 68 OFFCURVE",
"947 76 OFFCURVE",
"922 76 CURVE SMOOTH",
"595 76 LINE",
"344 720 LINE",
"273 693 LINE",
"513 76 LINE",
"268 76 LINE SMOOTH",
"218 76 OFFCURVE",
"182 79 OFFCURVE",
"159 86 CURVE SMOOTH",
"136 93 OFFCURVE",
"117 108 OFFCURVE",
"101 131 CURVE",
"49 85 LINE",
"76 24 OFFCURVE",
"133 0 OFFCURVE",
"230 0 CURVE SMOOTH"
);
},
{
closed = 1;
nodes = (
"739 -279 LINE",
"730 -276 OFFCURVE",
"713 -241 OFFCURVE",
"702 -214 CURVE SMOOTH",
"618 0 LINE",
"876 0 LINE",
"871 -35 OFFCURVE",
"853 -85 OFFCURVE",
"821 -150 CURVE SMOOTH",
"789 -216 OFFCURVE",
"763 -259 OFFCURVE",
"743 -279 CURVE"
);
}
);
width = 922;
}
);
},
{
glyphname = uni071B.Medi;
lastChange = "2017-09-07 21:15:43 +0000";
layers = (
{
anchors = (
{
name = mark0;
position = "{253, -418}";
}
);
layerId = UUID0;
paths = (
{
closed = 1;
nodes = (
"-38 693 LINE",
"202 76 LINE",
"0 76 LINE SMOOTH",
"-21 76 OFFCURVE",
"-39 61 OFFCURVE",
"-39 38 CURVE SMOOTH",
"-39 14 OFFCURVE",
"-21 0 OFFCURVE",
"0 0 CURVE SMOOTH",
"225 0 LINE",
"319 -238 LINE SMOOTH",
"348 -310 OFFCURVE",
"376 -353 OFFCURVE",
"420 -353 CURVE SMOOTH",
"439 -353 OFFCURVE",
"455 -348 OFFCURVE",
"470 -337 CURVE SMOOTH",
"485 -326 OFFCURVE",
"507 -296 OFFCURVE",
"538 -245 CURVE SMOOTH",
"569 -195 OFFCURVE",
"594 -144 OFFCURVE",
"612 -92 CURVE SMOOTH",
"630 -40 OFFCURVE",
"639 1 OFFCURVE",
"639 32 CURVE SMOOTH",
"639 68 OFFCURVE",
"636 76 OFFCURVE",
"611 76 CURVE SMOOTH",
"284 76 LINE",
"33 720 LINE"
);
},
{
closed = 1;
nodes = (
"428 -279 LINE",
"419 -276 OFFCURVE",
"402 -241 OFFCURVE",
"391 -214 CURVE SMOOTH",
"307 0 LINE",
"565 0 LINE",
"560 -35 OFFCURVE",
"542 -85 OFFCURVE",
"510 -150 CURVE SMOOTH",
"478 -216 OFFCURVE",
"452 -259 OFFCURVE",
"432 -279 CURVE"
);
}
);
width = 611;
}
);
},
{
glyphname = uni071B.Init;
lastChange = "2017-09-07 21:15:43 +0000";
layers = (
{
anchors = (
{
name = mark0;
position = "{253, -419}";
}
);
layerId = UUID0;
paths = (
{
closed = 1;
nodes = (
"-38 693 LINE",
"202 76 LINE",
"0 76 LINE SMOOTH",
"-21 76 OFFCURVE",
"-39 61 OFFCURVE",
"-39 38 CURVE SMOOTH",
"-39 14 OFFCURVE",
"-21 0 OFFCURVE",
"0 0 CURVE SMOOTH",
"225 0 LINE",
"319 -238 LINE SMOOTH",
"348 -310 OFFCURVE",
"376 -353 OFFCURVE",
"420 -353 CURVE SMOOTH",
"439 -353 OFFCURVE",
"455 -348 OFFCURVE",
"470 -337 CURVE SMOOTH",
"485 -326 OFFCURVE",
"507 -296 OFFCURVE",
"538 -245 CURVE SMOOTH",
"569 -195 OFFCURVE",
"594 -144 OFFCURVE",
"612 -92 CURVE SMOOTH",
"630 -40 OFFCURVE",
"639 1 OFFCURVE",
"639 32 CURVE SMOOTH",
"639 60 OFFCURVE",
"616 76 OFFCURVE",
"583 76 CURVE SMOOTH",
"284 76 LINE",
"33 720 LINE"
);
},
{
closed = 1;
nodes = (
"428 -279 LINE",
"419 -276 OFFCURVE",
"402 -241 OFFCURVE",
"391 -214 CURVE SMOOTH",
"307 0 LINE",
"565 0 LINE",
"560 -35 OFFCURVE",
"542 -85 OFFCURVE",
"510 -150 CURVE SMOOTH",
"478 -216 OFFCURVE",
"452 -259 OFFCURVE",
"432 -279 CURVE"
);
}
);
width = 687;
}
);
leftKerningGroup = uni071B;
},
{
glyphname = uni071D;
lastChange = "2017-09-07 21:15:43 +0000";
layers = (
{
anchors = (
{
name = mark0;
position = "{120, -226}";
}
);
layerId = UUID0;
paths = (
{
closed = 1;
nodes = (
"62 -124 OFFCURVE",
"80 -140 OFFCURVE",
"100 -140 CURVE SMOOTH",
"119 -140 OFFCURVE",
"140 -121 OFFCURVE",
"161 -84 CURVE SMOOTH",
"183 -47 OFFCURVE",
"194 -8 OFFCURVE",
"194 33 CURVE SMOOTH",
"194 75 OFFCURVE",
"183 116 OFFCURVE",
"162 156 CURVE SMOOTH",
"141 196 OFFCURVE",
"120 216 OFFCURVE",
"99 216 CURVE SMOOTH",
"78 216 OFFCURVE",
"59 199 OFFCURVE",
"59 179 CURVE SMOOTH",
"59 155 OFFCURVE",
"95 117 OFFCURVE",
"115 74 CURVE SMOOTH",
"125 53 OFFCURVE",
"130 38 OFFCURVE",
"130 30 CURVE SMOOTH",
"130 14 OFFCURVE",
"110 -28 OFFCURVE",
"82 -60 CURVE",
"69 -77 OFFCURVE",
"62 -91 OFFCURVE",
"62 -104 CURVE SMOOTH"
);
}
);
width = 243;
}
);
unicode = 071D;
},
{
glyphname = uni071D.Fina;
lastChange = "2017-09-07 21:15:43 +0000";
layers = (
{
anchors = (
{
name = mark0;
position = "{119, -226}";
}
);
layerId = UUID0;
paths = (
{
closed = 1;
nodes = (
"203 0 OFFCURVE",
"215 0 OFFCURVE",
"227 0 CURVE SMOOTH",
"257 0 LINE",
"257 76 LINE",
"240 76 OFFCURVE",
"214 77 OFFCURVE",
"190 78 CURVE",
"183 113 OFFCURVE",
"171 144 OFFCURVE",
"152 173 CURVE SMOOTH",
"134 202 OFFCURVE",
"116 216 OFFCURVE",
"99 216 CURVE SMOOTH",
"78 216 OFFCURVE",
"59 199 OFFCURVE",
"59 179 CURVE SMOOTH",
"59 155 OFFCURVE",
"95 117 OFFCURVE",
"115 74 CURVE SMOOTH",
"125 53 OFFCURVE",
"130 38 OFFCURVE",
"130 30 CURVE SMOOTH",
"130 14 OFFCURVE",
"110 -28 OFFCURVE",
"82 -60 CURVE",
"69 -77 OFFCURVE",
"62 -91 OFFCURVE",
"62 -104 CURVE SMOOTH",
"62 -124 OFFCURVE",
"80 -140 OFFCURVE",
"100 -140 CURVE SMOOTH",
"117 -140 OFFCURVE",
"135 -125 OFFCURVE",
"154 -96 CURVE SMOOTH",
"173 -67 OFFCURVE",
"186 -36 OFFCURVE",
"191 -1 CURVE"
);
}
);
width = 257;
}
);
},
{
glyphname = uni071D.Medi;
lastChange = "2017-09-07 21:15:43 +0000";
layers = (
{
anchors = (
{
name = mark0;
position = "{152, -98}";
}
);
layerId = UUID0;
paths = (
{
closed = 1;
nodes = (
"208 120 LINE SMOOTH",
"208 168 OFFCURVE",
"200 227 OFFCURVE",
"187 254 CURVE SMOOTH",
"181 268 OFFCURVE",
"171 275 OFFCURVE",
"156 275 CURVE SMOOTH",
"133 275 OFFCURVE",
"113 261 OFFCURVE",
"113 238 CURVE SMOOTH",
"113 218 OFFCURVE",
"116 194 OFFCURVE",
"121 166 CURVE SMOOTH",
"126 138 OFFCURVE",
"133 115 OFFCURVE",
"140 98 CURVE",
"127 83 OFFCURVE",
"92 76 OFFCURVE",
"29 76 CURVE SMOOTH",
"0 76 LINE SMOOTH",
"-21 76 OFFCURVE",
"-39 61 OFFCURVE",
"-39 38 CURVE SMOOTH",
"-39 14 OFFCURVE",
"-21 0 OFFCURVE",
"0 0 CURVE SMOOTH",
"29 0 LINE SMOOTH",
"98 0 OFFCURVE",
"146 16 OFFCURVE",
"173 40 CURVE",
"196 15 OFFCURVE",
"237 0 OFFCURVE",
"310 0 CURVE",
"310 76 LINE",
"245 76 OFFCURVE",
"215 84 OFFCURVE",
"208 100 CURVE",
"208 110 LINE"
);
}
);
width = 310;
}
);
},
{
glyphname = uni071D.Init;
lastChange = "2017-09-07 21:15:43 +0000";
layers = (
{
anchors = (
{
name = mark0;
position = "{135, -97}";
}
);
layerId = UUID0;
paths = (
{
closed = 1;
nodes = (
"136 83 OFFCURVE",
"106 76 OFFCURVE",
"29 76 CURVE SMOOTH",
"0 76 LINE SMOOTH",
"-21 76 OFFCURVE",
"-39 61 OFFCURVE",
"-39 38 CURVE SMOOTH",
"-39 14 OFFCURVE",
"-21 0 OFFCURVE",
"0 0 CURVE SMOOTH",
"29 0 LINE SMOOTH",
"158 0 OFFCURVE",
"209 46 OFFCURVE",
"209 138 CURVE",
"205 203 OFFCURVE",
"192 277 OFFCURVE",
"153 275 CURVE",
"129 275 OFFCURVE",
"110 262 OFFCURVE",
"110 234 CURVE SMOOTH",
"110 217 OFFCURVE",
"113 194 OFFCURVE",
"119 166 CURVE",
"126 139 OFFCURVE",
"133 116 OFFCURVE",
"141 99 CURVE"
);
}
);
width = 278;
}
);
},
{
glyphname = uni071F;
lastChange = "2017-09-07 21:15:43 +0000";
layers = (
{
anchors = (
{
name = mark0;
position = "{667, -156}";
}
);
layerId = UUID0;
paths = (
{
closed = 1;
nodes = (
"458 375 OFFCURVE",
"410 315 OFFCURVE",
"398 207 CURVE SMOOTH",
"386 100 OFFCURVE",
"368 55 OFFCURVE",
"296 55 CURVE SMOOTH",
"251 55 OFFCURVE",
"214 76 OFFCURVE",
"185 119 CURVE SMOOTH",
"156 162 OFFCURVE",
"142 216 OFFCURVE",
"142 280 CURVE SMOOTH",
"142 313 OFFCURVE",
"148 349 OFFCURVE",
"156 366 CURVE",
"91 392 LINE",
"76 364 OFFCURVE",
"68 312 OFFCURVE",
"68 277 CURVE SMOOTH",
"68 194 OFFCURVE",
"89 123 OFFCURVE",
"132 65 CURVE SMOOTH",
"175 8 OFFCURVE",
"230 -21 OFFCURVE",
"299 -21 CURVE",
"413 -17 OFFCURVE",
"449 46 OFFCURVE",
"465 179 CURVE SMOOTH",
"476 271 OFFCURVE",
"496 300 OFFCURVE",
"541 300 CURVE SMOOTH",
"556 300 OFFCURVE",
"571 295 OFFCURVE",
"584 284 CURVE SMOOTH",
"598 273 OFFCURVE",
"619 244 OFFCURVE",
"646 195 CURVE SMOOTH",
"673 147 OFFCURVE",
"705 81 OFFCURVE",
"742 -4 CURVE SMOOTH",
"779 -89 OFFCURVE",
"826 -209 OFFCURVE",
"882 -364 CURVE",
"950 -344 LINE",
"899 -197 OFFCURVE",
"854 -80 OFFCURVE",
"817 9 CURVE SMOOTH",
"780 98 OFFCURVE",
"747 167 OFFCURVE",
"720 218 CURVE SMOOTH",
"665 319 OFFCURVE",
"618 375 OFFCURVE",
"543 375 CURVE SMOOTH"
);
}
);
width = 889;
}
);
unicode = 071F;
},
{
glyphname = uni071F.Fina;
lastChange = "2017-09-07 21:15:43 +0000";
layers = (
{
anchors = (
{
name = mark0;
position = "{667, -160}";
}
);
layerId = UUID0;
paths = (
{
closed = 1;
nodes = (
"458 375 OFFCURVE",
"410 315 OFFCURVE",
"398 207 CURVE SMOOTH",
"386 100 OFFCURVE",
"368 55 OFFCURVE",
"296 55 CURVE SMOOTH",
"251 55 OFFCURVE",
"214 76 OFFCURVE",
"185 119 CURVE SMOOTH",
"156 162 OFFCURVE",
"142 216 OFFCURVE",
"142 280 CURVE SMOOTH",
"142 313 OFFCURVE",
"148 349 OFFCURVE",
"156 366 CURVE",
"91 392 LINE",
"76 364 OFFCURVE",
"68 312 OFFCURVE",
"68 277 CURVE SMOOTH",
"68 194 OFFCURVE",
"89 123 OFFCURVE",
"132 65 CURVE SMOOTH",
"175 8 OFFCURVE",
"230 -21 OFFCURVE",
"299 -21 CURVE",
"413 -17 OFFCURVE",
"449 46 OFFCURVE",
"465 179 CURVE SMOOTH",
"476 271 OFFCURVE",
"496 300 OFFCURVE",
"541 300 CURVE SMOOTH",
"556 300 OFFCURVE",
"571 295 OFFCURVE",
"584 284 CURVE SMOOTH",
"598 273 OFFCURVE",
"619 244 OFFCURVE",
"646 195 CURVE SMOOTH",
"673 147 OFFCURVE",
"705 81 OFFCURVE",
"742 -4 CURVE SMOOTH",
"779 -89 OFFCURVE",
"826 -209 OFFCURVE",
"882 -364 CURVE",
"950 -344 LINE",
"901 -204 OFFCURVE",
"859 -92 OFFCURVE",
"820 0 CURVE",
"886 0 LINE",
"886 76 LINE",
"788 76 LINE",
"697 271 OFFCURVE",
"650 372 OFFCURVE",
"543 375 CURVE"
);
}
);
width = 886;
}
);
},
{
glyphname = uni071F.Medi;
lastChange = "2017-09-07 21:15:43 +0000";
layers = (
{
anchors = (
{
name = mark0;
position = "{546, -93}";
}
);
layerId = UUID0;
paths = (
{
closed = 1;
nodes = (
"0 76 LINE",
"-21 76 OFFCURVE",
"-39 61 OFFCURVE",
"-39 38 CURVE SMOOTH",
"-39 14 OFFCURVE",
"-21 0 OFFCURVE",
"0 0 CURVE SMOOTH",
"643 0 LINE",
"643 76 LINE",
"611 76 LINE",
"596 104 OFFCURVE",
"561 156 OFFCURVE",
"528 207 CURVE",
"503 242 LINE SMOOTH",
"453 314 OFFCURVE",
"408 363 OFFCURVE",
"368 389 CURVE SMOOTH",
"329 415 OFFCURVE",
"284 428 OFFCURVE",
"233 428 CURVE SMOOTH",
"177 428 OFFCURVE",
"126 408 OFFCURVE",
"75 352 CURVE",
"120 305 LINE",
"155 338 OFFCURVE",
"194 353 OFFCURVE",
"223 353 CURVE SMOOTH",
"264 353 OFFCURVE",
"302 339 OFFCURVE",
"338 312 CURVE SMOOTH",
"375 285 OFFCURVE",
"417 236 OFFCURVE",
"466 164 CURVE SMOOTH",
"496 120 LINE",
"524 76 LINE",
"0 76 LINE"
);
}
);
width = 643;
}
);
},
{
glyphname = uni071F.Init;
lastChange = "2017-09-07 21:15:43 +0000";
layers = (
{
anchors = (
{
name = mark0;
position = "{546, -92}";
}
);
layerId = UUID0;
paths = (
{
closed = 1;
nodes = (
"120 305 LINE",
"155 338 OFFCURVE",
"194 353 OFFCURVE",
"223 353 CURVE SMOOTH",
"264 353 OFFCURVE",
"302 339 OFFCURVE",
"338 312 CURVE SMOOTH",
"375 285 OFFCURVE",
"417 236 OFFCURVE",
"466 164 CURVE SMOOTH",
"496 120 LINE",
"524 76 LINE",
"0 76 LINE SMOOTH",
"-21 76 OFFCURVE",
"-39 61 OFFCURVE",
"-39 38 CURVE SMOOTH",
"-39 14 OFFCURVE",
"-21 0 OFFCURVE",
"0 0 CURVE SMOOTH",
"569 0 LINE SMOOTH",
"598 0 OFFCURVE",
"614 21 OFFCURVE",
"614 57 CURVE SMOOTH",
"614 66 OFFCURVE",
"612 75 OFFCURVE",
"608 82 CURVE SMOOTH",
"576 133 LINE SMOOTH",
"559 160 OFFCURVE",
"543 185 OFFCURVE",
"526 209 CURVE SMOOTH",
"503 242 LINE SMOOTH",
"453 314 OFFCURVE",
"408 363 OFFCURVE",
"368 389 CURVE SMOOTH",
"329 415 OFFCURVE",
"284 428 OFFCURVE",
"233 428 CURVE SMOOTH",
"177 428 OFFCURVE",
"126 408 OFFCURVE",
"75 352 CURVE"
);
}
);
width = 673;
}
);
},
{
glyphname = uni0720;
lastChange = "2017-09-07 21:15:43 +0000";
layers = (
{
anchors = (
{
name = mark0;
position = "{318, -98}";
}
);
layerId = UUID0;
paths = (
{
closed = 1;
nodes = (
"284 725 LINE",
"293 702 OFFCURVE",
"314 651 OFFCURVE",
"327 616 CURVE SMOOTH",
"360 526 LINE SMOOTH",
"393 438 OFFCURVE",
"426 349 OFFCURVE",
"457 260 CURVE SMOOTH",
"488 171 OFFCURVE",
"509 109 OFFCURVE",
"518 76 CURVE",
"268 76 LINE SMOOTH",
"218 76 OFFCURVE",
"182 79 OFFCURVE",
"159 86 CURVE SMOOTH",
"136 93 OFFCURVE",
"117 108 OFFCURVE",
"101 131 CURVE",
"49 85 LINE",
"76 24 OFFCURVE",
"133 0 OFFCURVE",
"230 0 CURVE SMOOTH",
"543 0 LINE SMOOTH",
"575 0 OFFCURVE",
"592 24 OFFCURVE",
"592 59 CURVE SMOOTH",
"592 73 OFFCURVE",
"590 86 OFFCURVE",
"587 99 CURVE SMOOTH",
"584 112 OFFCURVE",
"573 151 OFFCURVE",
"552 215 CURVE SMOOTH",
"531 280 OFFCURVE",
"497 378 OFFCURVE",
"448 510 CURVE SMOOTH",
"399 643 OFFCURVE",
"368 724 OFFCURVE",
"355 753 CURVE"
);
}
);
width = 656;
}
);
leftKerningGroup = uni0720;
unicode = 0720;
},
{
glyphname = uni0720.Fina;
lastChange = "2017-09-07 21:15:43 +0000";
layers = (
{
anchors = (
{
name = mark0;
position = "{318, -98}";
}
);
layerId = UUID0;
paths = (
{
closed = 1;
nodes = (
"546 229 LINE",
"514 316 LINE",
"479 410 LINE",
"444 503 LINE",
"382 666 LINE",
"373 694 OFFCURVE",
"355 736 OFFCURVE",
"348 753 CURVE",
"276 725 LINE",
"290 690 LINE",
"344 554 LINE",
"378 464 LINE",
"415 370 LINE",
"482 191 LINE",
"508 120 LINE",
"496 91 OFFCURVE",
"454 76 OFFCURVE",
"403 76 CURVE SMOOTH",
"267 76 LINE SMOOTH",
"218 76 OFFCURVE",
"182 79 OFFCURVE",
"159 86 CURVE SMOOTH",
"136 93 OFFCURVE",
"117 108 OFFCURVE",
"101 131 CURVE",
"48 85 LINE",
"76 24 OFFCURVE",
"133 0 OFFCURVE",
"230 0 CURVE SMOOTH",
"392 0 LINE SMOOTH",
"465 0 OFFCURVE",
"516 21 OFFCURVE",
"541 52 CURVE",
"544 52 LINE",
"568 19 OFFCURVE",
"605 0 OFFCURVE",
"652 0 CURVE",
"652 76 LINE",
"620 76 OFFCURVE",
"592 101 OFFCURVE",
"572 156 CURVE SMOOTH"
);
}
);
width = 652;
}
);
},
{
glyphname = uni0720.Medi;
lastChange = "2017-09-07 21:15:43 +0000";
layers = (
{
anchors = (
{
name = mark0;
position = "{193, -98}";
}
);
layerId = UUID0;
paths = (
{
closed = 1;
nodes = (
"232 229 LINE",
"200 316 LINE",
"166 410 LINE",
"130 503 LINE",
"68 666 LINE",
"59 694 OFFCURVE",
"41 736 OFFCURVE",
"34 753 CURVE",
"-38 725 LINE",
"-24 690 LINE",
"30 554 LINE",
"87 405 LINE SMOOTH",
"112 340 OFFCURVE",
"129 297 OFFCURVE",
"136 276 CURVE",
"168 191 LINE",
"194 120 LINE",
"182 91 OFFCURVE",
"140 76 OFFCURVE",
"89 76 CURVE SMOOTH",
"0 76 LINE SMOOTH",
"-21 76 OFFCURVE",
"-39 61 OFFCURVE",
"-39 38 CURVE SMOOTH",
"-39 14 OFFCURVE",
"-21 0 OFFCURVE",
"0 0 CURVE SMOOTH",
"78 0 LINE SMOOTH",
"151 0 OFFCURVE",
"202 21 OFFCURVE",
"227 52 CURVE",
"230 52 LINE",
"254 19 OFFCURVE",
"291 0 OFFCURVE",
"338 0 CURVE",
"338 76 LINE",
"306 76 OFFCURVE",
"278 101 OFFCURVE",
"258 156 CURVE SMOOTH"
);
}
);
width = 338;
}
);
},
{
glyphname = uni0720.Init;
lastChange = "2017-09-07 21:15:43 +0000";
layers = (
{
anchors = (
{
name = mark0;
position = "{169, -98}";
}
);
layerId = UUID0;
paths = (
{
closed = 1;
nodes = (
"229 0 LINE SMOOTH",
"261 0 OFFCURVE",
"277 24 OFFCURVE",
"277 59 CURVE SMOOTH",
"277 73 OFFCURVE",
"276 86 OFFCURVE",
"273 99 CURVE SMOOTH",
"270 112 OFFCURVE",
"258 151 OFFCURVE",
"237 215 CURVE SMOOTH",
"216 280 OFFCURVE",
"182 378 OFFCURVE",
"133 510 CURVE",
"85 643 OFFCURVE",
"54 724 OFFCURVE",
"41 753 CURVE",
"-31 725 LINE",
"-20 702 OFFCURVE",
"-1 651 OFFCURVE",
"12 616 CURVE SMOOTH",
"46 526 LINE SMOOTH",
"79 438 OFFCURVE",
"111 349 OFFCURVE",
"142 260 CURVE SMOOTH",
"173 171 OFFCURVE",
"194 109 OFFCURVE",
"204 76 CURVE",
"0 76 LINE SMOOTH",
"-21 76 OFFCURVE",
"-39 61 OFFCURVE",
"-39 38 CURVE SMOOTH",
"-39 14 OFFCURVE",
"-21 0 OFFCURVE",
"0 0 CURVE SMOOTH"
);
}
);
width = 341;
}
);
leftKerningGroup = uni0720;
},
{
glyphname = uni0721;
lastChange = "2017-09-07 21:15:43 +0000";
layers = (
{
anchors = (
{
name = mark0;
position = "{607, -98}";
}
);
layerId = UUID0;
paths = (
{
closed = 1;
nodes = (
"635 0 LINE",
"759 0 OFFCURVE",
"816 51 OFFCURVE",
"816 182 CURVE SMOOTH",
"816 275 OFFCURVE",
"800 339 OFFCURVE",
"769 374 CURVE SMOOTH",
"738 409 OFFCURVE",
"690 427 OFFCURVE",
"625 427 CURVE SMOOTH",
"616 427 OFFCURVE",
"604 426 OFFCURVE",
"589 425 CURVE SMOOTH",
"538 421 LINE",
"501 417 OFFCURVE",
"460 415 OFFCURVE",
"429 415 CURVE SMOOTH",
"310 415 OFFCURVE",
"186 436 OFFCURVE",
"85 475 CURVE",
"59 411 LINE",
"86 396 OFFCURVE",
"135 381 OFFCURVE",
"206 366 CURVE SMOOTH",
"278 351 OFFCURVE",
"347 344 OFFCURVE",
"414 343 CURVE",
"411 313 LINE SMOOTH",
"408 292 OFFCURVE",
"407 269 OFFCURVE",
"406 248 CURVE",
"403 217 LINE SMOOTH",
"396 150 OFFCURVE",
"379 89 OFFCURVE",
"352 35 CURVE SMOOTH",
"326 -19 OFFCURVE",
"284 -78 OFFCURVE",
"226 -141 CURVE",
"270 -185 LINE",
"359 -100 OFFCURVE",
"423 0 OFFCURVE",
"443 97 CURVE",
"447 97 LINE",
"464 40 OFFCURVE",
"527 0 OFFCURVE",
"604 0 CURVE SMOOTH"
);
},
{
closed = 1;
nodes = (
"543 347 OFFCURVE",
"589 354 OFFCURVE",
"630 354 CURVE SMOOTH",
"673 354 OFFCURVE",
"702 341 OFFCURVE",
"718 316 CURVE SMOOTH",
"735 291 OFFCURVE",
"743 247 OFFCURVE",
"743 182 CURVE SMOOTH",
"743 105 OFFCURVE",
"718 76 OFFCURVE",
"655 76 CURVE SMOOTH",
"611 76 LINE SMOOTH",
"538 76 OFFCURVE",
"503 113 OFFCURVE",
"487 153 CURVE",
"480 174 OFFCURVE",
"476 209 OFFCURVE",
"476 260 CURVE SMOOTH",
"476 279 OFFCURVE",
"479 323 OFFCURVE",
"483 343 CURVE"
);
}
);
width = 885;
}
);
unicode = 0721;
},
{
glyphname = uni0721.Fina;
lastChange = "2017-09-07 21:15:43 +0000";
layers = (
{
anchors = (
{
name = mark0;
position = "{606, -98}";
}
);
layerId = UUID0;
paths = (
{
closed = 1;
nodes = (
"635 0 LINE",
"698 0 OFFCURVE",
"740 13 OFFCURVE",
"767 42 CURVE",
"772 42 LINE",
"800 7 OFFCURVE",
"835 0 OFFCURVE",
"894 0 CURVE",
"894 76 LINE",
"833 76 OFFCURVE",
"812 85 OFFCURVE",
"807 104 CURVE",
"814 125 OFFCURVE",
"816 153 OFFCURVE",
"816 182 CURVE SMOOTH",
"816 275 OFFCURVE",
"800 339 OFFCURVE",
"769 374 CURVE SMOOTH",
"738 409 OFFCURVE",
"690 427 OFFCURVE",
"625 427 CURVE SMOOTH",
"616 427 OFFCURVE",
"604 426 OFFCURVE",
"589 425 CURVE SMOOTH",
"538 421 LINE",
"501 417 OFFCURVE",
"460 415 OFFCURVE",
"429 415 CURVE SMOOTH",
"310 415 OFFCURVE",
"186 436 OFFCURVE",
"85 475 CURVE",
"59 411 LINE",
"86 396 OFFCURVE",
"135 381 OFFCURVE",
"206 366 CURVE SMOOTH",
"278 351 OFFCURVE",
"347 344 OFFCURVE",
"414 343 CURVE",
"411 313 LINE SMOOTH",
"408 292 OFFCURVE",
"407 269 OFFCURVE",
"406 248 CURVE",
"403 217 LINE SMOOTH",
"396 150 OFFCURVE",
"379 89 OFFCURVE",
"352 35 CURVE SMOOTH",
"326 -19 OFFCURVE",
"284 -78 OFFCURVE",
"226 -141 CURVE",
"270 -185 LINE",
"359 -100 OFFCURVE",
"423 0 OFFCURVE",
"443 97 CURVE",
"447 97 LINE",
"464 40 OFFCURVE",
"527 0 OFFCURVE",
"604 0 CURVE SMOOTH"
);
},
{
closed = 1;
nodes = (
"543 347 OFFCURVE",
"589 354 OFFCURVE",
"630 354 CURVE SMOOTH",
"673 354 OFFCURVE",
"702 341 OFFCURVE",
"718 316 CURVE SMOOTH",
"735 291 OFFCURVE",
"743 247 OFFCURVE",
"743 182 CURVE SMOOTH",
"743 105 OFFCURVE",
"718 76 OFFCURVE",
"655 76 CURVE SMOOTH",
"611 76 LINE SMOOTH",
"538 76 OFFCURVE",
"503 113 OFFCURVE",
"487 153 CURVE",
"480 174 OFFCURVE",
"476 209 OFFCURVE",
"476 260 CURVE SMOOTH",
"476 279 OFFCURVE",
"479 323 OFFCURVE",
"483 343 CURVE"
);
}
);
width = 894;
}
);
},
{
glyphname = uni0721.Medi;
lastChange = "2017-09-07 21:15:43 +0000";
layers = (
{
anchors = (
{
name = mark0;
position = "{465, -97}";
}
);
layerId = UUID0;
paths = (
{
closed = 1;
nodes = (
"172 0 LINE SMOOTH",
"305 0 OFFCURVE",
"395 42 OFFCURVE",
"454 135 CURVE SMOOTH",
"484 182 OFFCURVE",
"508 252 OFFCURVE",
"526 346 CURVE",
"554 351 OFFCURVE",
"585 354 OFFCURVE",
"625 354 CURVE SMOOTH",
"660 354 OFFCURVE",
"688 343 OFFCURVE",
"709 320 CURVE SMOOTH",
"730 298 OFFCURVE",
"741 247 OFFCURVE",
"741 167 CURVE SMOOTH",
"741 98 OFFCURVE",
"710 57 OFFCURVE",
"646 57 CURVE SMOOTH",
"607 57 OFFCURVE",
"560 74 OFFCURVE",
"512 102 CURVE",
"479 46 LINE",
"523 13 OFFCURVE",
"589 -14 OFFCURVE",
"644 -14 CURVE SMOOTH",
"703 -14 OFFCURVE",
"744 5 OFFCURVE",
"772 38 CURVE",
"776 38 LINE",
"801 11 OFFCURVE",
"835 0 OFFCURVE",
"896 0 CURVE",
"896 76 LINE",
"832 76 OFFCURVE",
"809 88 OFFCURVE",
"809 112 CURVE",
"812 137 OFFCURVE",
"814 158 OFFCURVE",
"814 178 CURVE SMOOTH",
"814 361 OFFCURVE",
"748 428 OFFCURVE",
"620 428 CURVE SMOOTH",
"605 428 OFFCURVE",
"590 427 OFFCURVE",
"573 425 CURVE SMOOTH",
"520 419 LINE SMOOTH",
"481 415 OFFCURVE",
"438 411 OFFCURVE",
"389 411 CURVE SMOOTH",
"330 411 OFFCURVE",
"278 415 OFFCURVE",
"234 422 CURVE SMOOTH",
"190 429 OFFCURVE",
"143 445 OFFCURVE",
"93 470 CURVE",
"63 406 LINE",
"118 366 OFFCURVE",
"230 337 OFFCURVE",
"370 337 CURVE SMOOTH",
"383 337 OFFCURVE",
"397 337 OFFCURVE",
"412 338 CURVE SMOOTH",
"453 340 LINE",
"436 266 OFFCURVE",
"416 211 OFFCURVE",
"393 176 CURVE SMOOTH",
"370 141 OFFCURVE",
"342 116 OFFCURVE",
"307 100 CURVE SMOOTH",
"273 84 OFFCURVE",
"231 76 OFFCURVE",
"180 76 CURVE SMOOTH",
"0 76 LINE SMOOTH",
"-21 76 OFFCURVE",
"-39 61 OFFCURVE",
"-39 38 CURVE SMOOTH",
"-39 14 OFFCURVE",
"-21 0 OFFCURVE",
"0 0 CURVE SMOOTH"
);
}
);
width = 896;
}
);
},
{
glyphname = uni0721.Init;
lastChange = "2017-09-07 21:15:43 +0000";
layers = (
{
anchors = (
{
name = mark0;
position = "{465, -97}";
}
);
layerId = UUID0;
paths = (
{
closed = 1;
nodes = (
"172 0 LINE SMOOTH",
"304 0 OFFCURVE",
"394 41 OFFCURVE",
"454 134 CURVE SMOOTH",
"484 181 OFFCURVE",
"508 251 OFFCURVE",
"526 345 CURVE",
"555 350 OFFCURVE",
"586 354 OFFCURVE",
"625 354 CURVE SMOOTH",
"660 354 OFFCURVE",
"688 343 OFFCURVE",
"709 320 CURVE SMOOTH",
"730 298 OFFCURVE",
"741 247 OFFCURVE",
"741 167 CURVE SMOOTH",
"741 98 OFFCURVE",
"710 57 OFFCURVE",
"646 57 CURVE SMOOTH",
"607 57 OFFCURVE",
"560 74 OFFCURVE",
"512 102 CURVE",
"479 46 LINE",
"523 13 OFFCURVE",
"589 -14 OFFCURVE",
"644 -14 CURVE SMOOTH",
"752 -14 OFFCURVE",
"814 54 OFFCURVE",
"814 178 CURVE SMOOTH",
"814 361 OFFCURVE",
"748 428 OFFCURVE",
"620 428 CURVE SMOOTH",
"605 428 OFFCURVE",
"590 427 OFFCURVE",
"573 425 CURVE SMOOTH",
"520 419 LINE SMOOTH",
"481 415 OFFCURVE",
"438 411 OFFCURVE",
"389 411 CURVE SMOOTH",
"330 411 OFFCURVE",
"278 415 OFFCURVE",
"234 422 CURVE SMOOTH",
"190 429 OFFCURVE",
"143 445 OFFCURVE",
"93 470 CURVE",
"63 406 LINE",
"118 366 OFFCURVE",
"230 337 OFFCURVE",
"370 337 CURVE SMOOTH",
"383 337 OFFCURVE",
"397 337 OFFCURVE",
"412 338 CURVE SMOOTH",
"453 340 LINE",
"436 266 OFFCURVE",
"416 211 OFFCURVE",
"393 176 CURVE SMOOTH",
"370 141 OFFCURVE",
"342 116 OFFCURVE",
"307 100 CURVE SMOOTH",
"273 84 OFFCURVE",
"231 76 OFFCURVE",
"180 76 CURVE SMOOTH",
"0 76 LINE SMOOTH",
"-21 76 OFFCURVE",
"-39 61 OFFCURVE",
"-39 38 CURVE SMOOTH",
"-39 14 OFFCURVE",
"-21 0 OFFCURVE",
"0 0 CURVE SMOOTH"
);
}
);
width = 880;
}
);
},
{
glyphname = uni0722;
lastChange = "2017-09-07 21:15:43 +0000";
layers = (
{
anchors = (
{
name = mark0;
position = "{192, -150}";
}
);
layerId = UUID0;
paths = (
{
closed = 1;
nodes = (
"78 110 OFFCURVE",
"59 93 OFFCURVE",
"59 65 CURVE SMOOTH",
"59 56 OFFCURVE",
"62 47 OFFCURVE",
"68 37 CURVE SMOOTH",
"75 27 OFFCURVE",
"99 14 OFFCURVE",
"140 -3 CURVE SMOOTH",
"182 -20 OFFCURVE",
"308 -62 OFFCURVE",
"518 -129 CURVE SMOOTH",
"728 -196 OFFCURVE",
"916 -249 OFFCURVE",
"1082 -288 CURVE",
"1102 -223 LINE",
"1000 -197 OFFCURVE",
"912 -174 OFFCURVE",
"839 -153 CURVE SMOOTH",
"766 -132 OFFCURVE",
"675 -104 OFFCURVE",
"566 -67 CURVE SMOOTH",
"437 -23 LINE",
"418 -18 OFFCURVE",
"385 -6 OFFCURVE",
"338 13 CURVE SMOOTH",
"292 32 OFFCURVE",
"258 46 OFFCURVE",
"237 56 CURVE SMOOTH",
"206 71 LINE SMOOTH",
"159 92 OFFCURVE",
"115 110 OFFCURVE",
"99 110 CURVE SMOOTH"
);
}
);
width = 678;
}
);
unicode = 0722;
},
{
glyphname = uni0722.Fina;
lastChange = "2017-09-07 21:15:43 +0000";
layers = (
{
anchors = (
{
name = mark0;
position = "{123, -391}";
}
);
layerId = UUID0;
paths = (
{
closed = 1;
nodes = (
"126 96 LINE",
"120 97 OFFCURVE",
"115 98 OFFCURVE",
"112 98 CURVE SMOOTH",
"81 98 OFFCURVE",
"62 74 OFFCURVE",
"62 35 CURVE SMOOTH",
"62 -7 OFFCURVE",
"87 -70 OFFCURVE",
"137 -153 CURVE SMOOTH",
"188 -237 OFFCURVE",
"249 -324 OFFCURVE",
"322 -415 CURVE",
"380 -373 LINE",
"335 -316 OFFCURVE",
"287 -248 OFFCURVE",
"236 -168 CURVE SMOOTH",
"185 -88 OFFCURVE",
"150 -25 OFFCURVE",
"133 22 CURVE",
"136 25 LINE",
"167 13 OFFCURVE",
"229 0 OFFCURVE",
"278 0 CURVE",
"278 76 LINE",
"237 76 OFFCURVE",
"200 78 OFFCURVE",
"140 93 CURVE SMOOTH",
"126 96 LINE"
);
}
);
width = 278;
}
);
},
{
glyphname = uni0722.Medi;
lastChange = "2017-09-07 21:15:43 +0000";
layers = (
{
anchors = (
{
name = mark0;
position = "{149, -97}";
}
);
layerId = UUID0;
paths = (
{
closed = 1;
nodes = (
"90 415 LINE",
"107 320 OFFCURVE",
"121 253 OFFCURVE",
"137 178 CURVE",
"144 152 LINE",
"152 120 LINE",
"139 91 OFFCURVE",
"97 76 OFFCURVE",
"30 76 CURVE SMOOTH",
"0 76 LINE SMOOTH",
"-21 76 OFFCURVE",
"-39 61 OFFCURVE",
"-39 38 CURVE SMOOTH",
"-39 14 OFFCURVE",
"-21 0 OFFCURVE",
"0 0 CURVE SMOOTH",
"29 0 LINE SMOOTH",
"108 0 OFFCURVE",
"155 21 OFFCURVE",
"184 52 CURVE",
"188 52 LINE",
"209 20 OFFCURVE",
"249 0 OFFCURVE",
"296 0 CURVE",
"296 76 LINE",
"240 74 OFFCURVE",
"210 148 OFFCURVE",
"187 296 CURVE",
"175 356 LINE",
"163 426 LINE"
);
}
);
width = 296;
}
);
},
{
glyphname = uni0722.Init;
lastChange = "2017-09-07 21:15:43 +0000";
layers = (
{
anchors = (
{
name = mark0;
position = "{132, -97}";
}
);
layerId = UUID0;
paths = (
{
closed = 1;
nodes = (
"91 414 LINE",
"106 353 OFFCURVE",
"120 287 OFFCURVE",
"133 218 CURVE SMOOTH",
"146 149 OFFCURVE",
"153 105 OFFCURVE",
"153 85 CURVE",
"144 82 OFFCURVE",
"127 80 OFFCURVE",
"101 78 CURVE SMOOTH",
"76 77 OFFCURVE",
"52 76 OFFCURVE",
"29 76 CURVE SMOOTH",
"0 76 LINE SMOOTH",
"-21 76 OFFCURVE",
"-39 61 OFFCURVE",
"-39 38 CURVE SMOOTH",
"-39 14 OFFCURVE",
"-26 0 OFFCURVE",
"15 0 CURVE SMOOTH",
"112 0 OFFCURVE",
"170 9 OFFCURVE",
"191 26 CURVE SMOOTH",
"212 44 OFFCURVE",
"223 68 OFFCURVE",
"223 98 CURVE SMOOTH",
"223 125 OFFCURVE",
"217 170 OFFCURVE",
"206 231 CURVE SMOOTH",
"195 293 OFFCURVE",
"181 358 OFFCURVE",
"164 426 CURVE"
);
}
);
width = 291;
}
);
leftKerningGroup = uni0722.Init;
},
{
glyphname = uni0723;
lastChange = "2017-09-07 21:15:43 +0000";
layers = (
{
anchors = (
{
name = mark0;
position = "{458, -98}";
}
);
layerId = UUID0;
paths = (
{
closed = 1;
nodes = (
"456 300 LINE",
"424 391 OFFCURVE",
"353 440 OFFCURVE",
"262 440 CURVE SMOOTH",
"207 440 OFFCURVE",
"160 420 OFFCURVE",
"123 379 CURVE SMOOTH",
"86 339 OFFCURVE",
"68 286 OFFCURVE",
"68 221 CURVE SMOOTH",
"68 73 OFFCURVE",
"150 0 OFFCURVE",
"307 0 CURVE SMOOTH",
"535 0 LINE SMOOTH",
"686 0 OFFCURVE",
"754 24 OFFCURVE",
"790 83 CURVE",
"809 112 OFFCURVE",
"818 154 OFFCURVE",
"818 208 CURVE SMOOTH",
"818 273 OFFCURVE",
"801 326 OFFCURVE",
"767 367 CURVE SMOOTH",
"734 408 OFFCURVE",
"692 429 OFFCURVE",
"641 429 CURVE SMOOTH",
"558 429 OFFCURVE",
"492 383 OFFCURVE",
"459 300 CURVE"
);
},
{
closed = 1;
nodes = (
"304 76 LINE",
"201 76 OFFCURVE",
"142 126 OFFCURVE",
"142 222 CURVE SMOOTH",
"142 310 OFFCURVE",
"191 367 OFFCURVE",
"263 367 CURVE SMOOTH",
"352 367 OFFCURVE",
"407 294 OFFCURVE",
"414 169 CURVE",
"418 76 LINE"
);
},
{
closed = 1;
nodes = (
"486 177 LINE",
"486 229 OFFCURVE",
"501 272 OFFCURVE",
"530 305 CURVE SMOOTH",
"559 338 OFFCURVE",
"594 355 OFFCURVE",
"633 355 CURVE SMOOTH",
"702 355 OFFCURVE",
"745 297 OFFCURVE",
"745 206 CURVE SMOOTH",
"745 159 OFFCURVE",
"733 125 OFFCURVE",
"708 105 CURVE SMOOTH",
"684 86 OFFCURVE",
"639 76 OFFCURVE",
"574 76 CURVE SMOOTH",
"489 76 LINE",
"488 102 OFFCURVE",
"487 123 OFFCURVE",
"487 139 CURVE SMOOTH"
);
}
);
width = 886;
}
);
unicode = 0723;
},
{
glyphname = uni0723.Fina;
lastChange = "2017-09-07 21:15:43 +0000";
layers = (
{
anchors = (
{
name = mark0;
position = "{452, -99}";
}
);
layerId = UUID0;
paths = (
{
closed = 1;
nodes = (
"456 300 LINE",
"424 391 OFFCURVE",
"353 440 OFFCURVE",
"262 440 CURVE SMOOTH",
"207 440 OFFCURVE",
"160 420 OFFCURVE",
"123 379 CURVE SMOOTH",
"86 339 OFFCURVE",
"68 286 OFFCURVE",
"68 221 CURVE SMOOTH",
"68 73 OFFCURVE",
"150 0 OFFCURVE",
"307 0 CURVE SMOOTH",
"535 0 LINE SMOOTH",
"626 0 OFFCURVE",
"695 7 OFFCURVE",
"743 38 CURVE",
"749 38 LINE",
"777 11 OFFCURVE",
"818 0 OFFCURVE",
"891 0 CURVE",
"891 76 LINE",
"843 76 OFFCURVE",
"810 81 OFFCURVE",
"795 93 CURVE",
"811 122 OFFCURVE",
"818 159 OFFCURVE",
"818 208 CURVE SMOOTH",
"818 273 OFFCURVE",
"801 326 OFFCURVE",
"767 367 CURVE SMOOTH",
"734 408 OFFCURVE",
"692 429 OFFCURVE",
"641 429 CURVE SMOOTH",
"558 429 OFFCURVE",
"492 383 OFFCURVE",
"459 300 CURVE"
);
},
{
closed = 1;
nodes = (
"304 76 LINE",
"201 76 OFFCURVE",
"142 126 OFFCURVE",
"142 222 CURVE SMOOTH",
"142 310 OFFCURVE",
"191 367 OFFCURVE",
"263 367 CURVE SMOOTH",
"352 367 OFFCURVE",
"407 294 OFFCURVE",
"414 169 CURVE",
"418 76 LINE"
);
},
{
closed = 1;
nodes = (
"486 177 LINE",
"486 229 OFFCURVE",
"501 272 OFFCURVE",
"530 305 CURVE SMOOTH",
"559 338 OFFCURVE",
"594 355 OFFCURVE",
"633 355 CURVE SMOOTH",
"702 355 OFFCURVE",
"745 297 OFFCURVE",
"745 206 CURVE SMOOTH",
"745 159 OFFCURVE",
"733 125 OFFCURVE",
"708 105 CURVE SMOOTH",
"684 86 OFFCURVE",
"639 76 OFFCURVE",
"574 76 CURVE SMOOTH",
"489 76 LINE",
"488 102 OFFCURVE",
"487 123 OFFCURVE",
"487 139 CURVE SMOOTH"
);
}
);
width = 891;
}
);
},
{
glyphname = uni0723.Medi;
lastChange = "2017-09-07 21:15:43 +0000";
layers = (
{
anchors = (
{
name = mark0;
position = "{457, -99}";
}
);
layerId = UUID0;
paths = (
{
closed = 1;
nodes = (
"460 300 LINE",
"429 391 OFFCURVE",
"356 440 OFFCURVE",
"267 440 CURVE SMOOTH",
"212 440 OFFCURVE",
"165 421 OFFCURVE",
"128 384 CURVE SMOOTH",
"91 347 OFFCURVE",
"73 299 OFFCURVE",
"73 241 CURVE SMOOTH",
"73 169 OFFCURVE",
"92 113 OFFCURVE",
"135 78 CURVE",
"135 74 LINE",
"125 75 OFFCURVE",
"115 76 OFFCURVE",
"104 76 CURVE SMOOTH",
"0 76 LINE SMOOTH",
"-21 76 OFFCURVE",
"-39 61 OFFCURVE",
"-39 38 CURVE SMOOTH",
"-39 14 OFFCURVE",
"-21 0 OFFCURVE",
"0 0 CURVE SMOOTH",
"540 0 LINE SMOOTH",
"628 0 OFFCURVE",
"699 7 OFFCURVE",
"748 38 CURVE",
"753 38 LINE",
"781 11 OFFCURVE",
"823 0 OFFCURVE",
"896 0 CURVE",
"896 76 LINE",
"848 76 OFFCURVE",
"815 81 OFFCURVE",
"800 93 CURVE",
"815 122 OFFCURVE",
"822 159 OFFCURVE",
"822 208 CURVE SMOOTH",
"822 273 OFFCURVE",
"805 326 OFFCURVE",
"771 367 CURVE SMOOTH",
"738 408 OFFCURVE",
"696 429 OFFCURVE",
"646 429 CURVE SMOOTH",
"562 429 OFFCURVE",
"496 383 OFFCURVE",
"464 300 CURVE"
);
},
{
closed = 1;
nodes = (
"292 76 LINE",
"204 76 OFFCURVE",
"146 137 OFFCURVE",
"146 241 CURVE SMOOTH",
"146 317 OFFCURVE",
"196 367 OFFCURVE",
"268 367 CURVE SMOOTH",
"356 367 OFFCURVE",
"411 294 OFFCURVE",
"418 169 CURVE SMOOTH",
"423 76 LINE"
);
},
{
closed = 1;
nodes = (
"491 177 LINE",
"491 229 OFFCURVE",
"505 272 OFFCURVE",
"534 305 CURVE SMOOTH",
"563 338 OFFCURVE",
"598 355 OFFCURVE",
"638 355 CURVE SMOOTH",
"706 355 OFFCURVE",
"749 297 OFFCURVE",
"749 206 CURVE SMOOTH",
"749 159 OFFCURVE",
"737 125 OFFCURVE",
"713 105 CURVE SMOOTH",
"689 86 OFFCURVE",
"644 76 OFFCURVE",
"579 76 CURVE SMOOTH",
"493 76 LINE",
"492 102 OFFCURVE",
"491 123 OFFCURVE",
"491 139 CURVE SMOOTH"
);
}
);
width = 896;
}
);
},
{
glyphname = uni0723.Init;
lastChange = "2017-09-07 21:15:43 +0000";
layers = (
{
anchors = (
{
name = mark0;
position = "{458, -98}";
}
);
layerId = UUID0;
paths = (
{
closed = 1;
nodes = (
"460 300 LINE",
"429 391 OFFCURVE",
"356 440 OFFCURVE",
"267 440 CURVE SMOOTH",
"212 440 OFFCURVE",
"165 421 OFFCURVE",
"128 384 CURVE SMOOTH",
"91 347 OFFCURVE",
"73 299 OFFCURVE",
"73 241 CURVE SMOOTH",
"73 169 OFFCURVE",
"92 113 OFFCURVE",
"135 78 CURVE",
"135 74 LINE",
"125 75 OFFCURVE",
"115 76 OFFCURVE",
"104 76 CURVE SMOOTH",
"0 76 LINE SMOOTH",
"-21 76 OFFCURVE",
"-39 61 OFFCURVE",
"-39 38 CURVE SMOOTH",
"-39 14 OFFCURVE",
"-21 0 OFFCURVE",
"0 0 CURVE SMOOTH",
"540 0 LINE SMOOTH",
"624 0 OFFCURVE",
"684 8 OFFCURVE",
"720 23 CURVE SMOOTH",
"757 38 OFFCURVE",
"783 61 OFFCURVE",
"798 90 CURVE SMOOTH",
"814 119 OFFCURVE",
"822 159 OFFCURVE",
"822 208 CURVE SMOOTH",
"822 273 OFFCURVE",
"805 326 OFFCURVE",
"771 367 CURVE SMOOTH",
"738 408 OFFCURVE",
"696 429 OFFCURVE",
"646 429 CURVE SMOOTH",
"562 429 OFFCURVE",
"496 383 OFFCURVE",
"464 300 CURVE"
);
},
{
closed = 1;
nodes = (
"292 76 LINE",
"204 76 OFFCURVE",
"146 137 OFFCURVE",
"146 241 CURVE SMOOTH",
"146 317 OFFCURVE",
"196 367 OFFCURVE",
"268 367 CURVE SMOOTH",
"356 367 OFFCURVE",
"411 294 OFFCURVE",
"418 169 CURVE SMOOTH",
"423 76 LINE"
);
},
{
closed = 1;
nodes = (
"491 177 LINE",
"491 229 OFFCURVE",
"505 272 OFFCURVE",
"534 305 CURVE SMOOTH",
"563 338 OFFCURVE",
"598 355 OFFCURVE",
"638 355 CURVE SMOOTH",
"706 355 OFFCURVE",
"749 297 OFFCURVE",
"749 206 CURVE SMOOTH",
"749 159 OFFCURVE",
"737 125 OFFCURVE",
"713 105 CURVE SMOOTH",
"689 86 OFFCURVE",
"644 76 OFFCURVE",
"579 76 CURVE SMOOTH",
"493 76 LINE",
"492 102 OFFCURVE",
"491 123 OFFCURVE",
"491 139 CURVE SMOOTH"
);
}
);
width = 891;
}
);
},
{
glyphname = uni0725;
lastChange = "2017-09-07 21:15:43 +0000";
layers = (
{
anchors = (
{
name = mark0;
position = "{452, -98}";
}
);
layerId = UUID0;
paths = (
{
closed = 1;
nodes = (
"904 0 LINE",
"904 76 LINE",
"868 76 LINE SMOOTH",
"812 76 OFFCURVE",
"766 82 OFFCURVE",
"730 94 CURVE SMOOTH",
"695 106 OFFCURVE",
"654 130 OFFCURVE",
"609 165 CURVE SMOOTH",
"564 200 OFFCURVE",
"519 244 OFFCURVE",
"474 295 CURVE SMOOTH",
"429 347 OFFCURVE",
"395 391 OFFCURVE",
"371 427 CURVE",
"307 383 LINE",
"390 260 OFFCURVE",
"496 150 OFFCURVE",
"607 78 CURVE",
"607 72 LINE",
"567 74 LINE",
"511 75 LINE",
"472 76 LINE",
"268 76 LINE SMOOTH",
"218 76 OFFCURVE",
"182 79 OFFCURVE",
"159 86 CURVE SMOOTH",
"136 93 OFFCURVE",
"117 108 OFFCURVE",
"101 131 CURVE",
"49 85 LINE",
"76 24 OFFCURVE",
"133 0 OFFCURVE",
"230 0 CURVE SMOOTH"
);
}
);
width = 953;
}
);
leftKerningGroup = uni0725;
unicode = 0725;
},
{
glyphname = uni0725.Fina;
lastChange = "2017-09-07 21:15:43 +0000";
layers = (
{
anchors = (
{
name = mark0;
position = "{452, -98}";
}
);
layerId = UUID0;
paths = (
{
closed = 1;
nodes = (
"743 0 LINE",
"743 76 LINE",
"707 76 OFFCURVE",
"647 118 OFFCURVE",
"563 202 CURVE",
"480 287 OFFCURVE",
"415 362 OFFCURVE",
"369 427 CURVE",
"305 383 LINE",
"332 343 OFFCURVE",
"377 289 OFFCURVE",
"440 220 CURVE SMOOTH",
"503 152 OFFCURVE",
"556 105 OFFCURVE",
"597 78 CURVE",
"597 72 LINE",
"558 74 LINE",
"501 75 LINE",
"462 76 LINE",
"268 76 LINE SMOOTH",
"218 76 OFFCURVE",
"182 79 OFFCURVE",
"159 86 CURVE SMOOTH",
"136 93 OFFCURVE",
"117 108 OFFCURVE",
"101 131 CURVE",
"49 85 LINE",
"76 24 OFFCURVE",
"133 0 OFFCURVE",
"230 0 CURVE SMOOTH"
);
}
);
width = 743;
}
);
},
{
glyphname = uni0725.Medi;
lastChange = "2017-09-07 21:15:43 +0000";
layers = (
{
anchors = (
{
name = mark0;
position = "{272, -98}";
}
);
layerId = UUID0;
paths = (
{
closed = 1;
nodes = (
"500 0 LINE",
"500 76 LINE",
"464 76 OFFCURVE",
"404 118 OFFCURVE",
"320 202 CURVE",
"237 287 OFFCURVE",
"172 362 OFFCURVE",
"125 427 CURVE",
"61 383 LINE",
"88 343 OFFCURVE",
"134 288 OFFCURVE",
"197 219 CURVE SMOOTH",
"261 150 OFFCURVE",
"313 103 OFFCURVE",
"354 78 CURVE",
"354 72 LINE",
"314 74 LINE",
"257 75 LINE",
"219 76 LINE",
"0 76 LINE SMOOTH",
"-21 76 OFFCURVE",
"-39 61 OFFCURVE",
"-39 38 CURVE SMOOTH",
"-39 14 OFFCURVE",
"-21 0 OFFCURVE",
"0 0 CURVE SMOOTH"
);
}
);
width = 500;
}
);
},
{
glyphname = uni0725.Init;
lastChange = "2017-09-07 21:15:43 +0000";
layers = (
{
anchors = (
{
name = mark0;
position = "{272, -98}";
}
);
layerId = UUID0;
paths = (
{
closed = 1;
nodes = (
"0 76 LINE SMOOTH",
"-21 76 OFFCURVE",
"-39 61 OFFCURVE",
"-39 38 CURVE SMOOTH",
"-39 14 OFFCURVE",
"-21 0 OFFCURVE",
"0 0 CURVE SMOOTH",
"660 0 LINE",
"660 76 LINE",
"624 76 LINE SMOOTH",
"568 76 OFFCURVE",
"522 82 OFFCURVE",
"487 94 CURVE SMOOTH",
"452 106 OFFCURVE",
"411 130 OFFCURVE",
"366 165 CURVE SMOOTH",
"321 200 OFFCURVE",
"276 244 OFFCURVE",
"231 295 CURVE SMOOTH",
"186 347 OFFCURVE",
"152 391 OFFCURVE",
"127 427 CURVE",
"63 383 LINE",
"146 260 OFFCURVE",
"252 150 OFFCURVE",
"363 78 CURVE",
"363 72 LINE",
"324 74 LINE",
"267 75 LINE",
"229 76 LINE"
);
}
);
width = 709;
}
);
leftKerningGroup = uni0725;
},
{
glyphname = uni0726;
lastChange = "2017-09-07 21:15:43 +0000";
layers = (
{
anchors = (
{
name = mark0;
position = "{737, -94}";
}
);
layerId = UUID0;
paths = (
{
closed = 1;
nodes = (
"711 0 LINE",
"758 0 OFFCURVE",
"785 29 OFFCURVE",
"785 84 CURVE SMOOTH",
"785 103 OFFCURVE",
"777 138 OFFCURVE",
"761 187 CURVE SMOOTH",
"745 236 OFFCURVE",
"729 280 OFFCURVE",
"714 319 CURVE SMOOTH",
"693 373 LINE SMOOTH",
"667 436 OFFCURVE",
"640 481 OFFCURVE",
"611 509 CURVE",
"583 538 OFFCURVE",
"542 552 OFFCURVE",
"489 552 CURVE SMOOTH",
"442 552 OFFCURVE",
"399 532 OFFCURVE",
"362 493 CURVE SMOOTH",
"325 454 OFFCURVE",
"307 407 OFFCURVE",
"307 353 CURVE SMOOTH",
"307 250 OFFCURVE",
"367 202 OFFCURVE",
"510 202 CURVE SMOOTH",
"561 202 OFFCURVE",
"616 207 OFFCURVE",
"671 226 CURVE",
"694 163 OFFCURVE",
"712 101 OFFCURVE",
"715 76 CURVE",
"268 76 LINE SMOOTH",
"218 76 OFFCURVE",
"182 79 OFFCURVE",
"159 86 CURVE SMOOTH",
"136 93 OFFCURVE",
"117 108 OFFCURVE",
"101 131 CURVE",
"49 85 LINE",
"76 24 OFFCURVE",
"133 0 OFFCURVE",
"230 0 CURVE SMOOTH"
);
},
{
closed = 1;
nodes = (
"647 291 LINE",
"610 280 OFFCURVE",
"565 274 OFFCURVE",
"513 274 CURVE SMOOTH",
"424 274 OFFCURVE",
"380 296 OFFCURVE",
"380 359 CURVE SMOOTH",
"380 389 OFFCURVE",
"391 416 OFFCURVE",
"413 440 CURVE SMOOTH",
"436 465 OFFCURVE",
"461 477 OFFCURVE",
"488 477 CURVE SMOOTH",
"541 477 OFFCURVE",
"562 460 OFFCURVE",
"586 423 CURVE",
"599 405 OFFCURVE",
"614 375 OFFCURVE",
"631 332 CURVE SMOOTH"
);
}
);
width = 843;
}
);
unicode = 0726;
},
{
glyphname = uni0726.Fina;
lastChange = "2017-09-07 21:15:43 +0000";
layers = (
{
anchors = (
{
name = mark0;
position = "{736, -81}";
}
);
layerId = UUID0;
paths = (
{
closed = 1;
nodes = (
"846 76 LINE",
"821 76 OFFCURVE",
"801 93 OFFCURVE",
"786 126 CURVE SMOOTH",
"771 160 OFFCURVE",
"748 222 OFFCURVE",
"716 311 CURVE SMOOTH",
"684 401 OFFCURVE",
"653 464 OFFCURVE",
"622 499 CURVE SMOOTH",
"591 534 OFFCURVE",
"547 552 OFFCURVE",
"488 552 CURVE SMOOTH",
"441 552 OFFCURVE",
"398 532 OFFCURVE",
"361 493 CURVE SMOOTH",
"324 454 OFFCURVE",
"306 407 OFFCURVE",
"306 353 CURVE SMOOTH",
"306 250 OFFCURVE",
"366 202 OFFCURVE",
"509 202 CURVE SMOOTH",
"560 202 OFFCURVE",
"615 207 OFFCURVE",
"671 226 CURVE",
"692 168 LINE SMOOTH",
"699 150 OFFCURVE",
"706 133 OFFCURVE",
"711 118 CURVE",
"698 89 OFFCURVE",
"651 76 OFFCURVE",
"602 76 CURVE SMOOTH",
"268 76 LINE SMOOTH",
"218 76 OFFCURVE",
"182 79 OFFCURVE",
"159 86 CURVE SMOOTH",
"136 93 OFFCURVE",
"117 108 OFFCURVE",
"101 131 CURVE",
"49 85 LINE",
"76 24 OFFCURVE",
"133 0 OFFCURVE",
"230 0 CURVE SMOOTH",
"591 0 LINE SMOOTH",
"667 0 OFFCURVE",
"717 21 OFFCURVE",
"744 50 CURVE",
"748 50 LINE",
"772 14 OFFCURVE",
"805 0 OFFCURVE",
"846 0 CURVE"
);
},
{
closed = 1;
nodes = (
"609 280 OFFCURVE",
"564 274 OFFCURVE",
"512 274 CURVE SMOOTH",
"423 274 OFFCURVE",
"379 296 OFFCURVE",
"379 359 CURVE SMOOTH",
"379 389 OFFCURVE",
"390 416 OFFCURVE",
"412 440 CURVE SMOOTH",
"435 465 OFFCURVE",
"460 477 OFFCURVE",
"487 477 CURVE",
"580 474 OFFCURVE",
"588 428 OFFCURVE",
"646 291 CURVE"
);
}
);
width = 846;
}
);
},
{
glyphname = uni0726.Medi;
lastChange = "2017-09-07 21:15:43 +0000";
layers = (
{
anchors = (
{
name = mark0;
position = "{509, -83}";
}
);
layerId = UUID0;
paths = (
{
closed = 1;
nodes = (
"620 76 LINE",
"595 76 OFFCURVE",
"575 93 OFFCURVE",
"560 126 CURVE SMOOTH",
"545 160 OFFCURVE",
"522 222 OFFCURVE",
"489 311 CURVE",
"457 401 OFFCURVE",
"426 464 OFFCURVE",
"395 499 CURVE SMOOTH",
"365 534 OFFCURVE",
"321 552 OFFCURVE",
"262 552 CURVE SMOOTH",
"215 552 OFFCURVE",
"172 532 OFFCURVE",
"135 493 CURVE SMOOTH",
"98 454 OFFCURVE",
"79 407 OFFCURVE",
"79 353 CURVE SMOOTH",
"79 250 OFFCURVE",
"139 202 OFFCURVE",
"283 202 CURVE SMOOTH",
"332 202 OFFCURVE",
"389 207 OFFCURVE",
"444 226 CURVE",
"466 168 LINE",
"485 118 LINE",
"470 89 OFFCURVE",
"426 76 OFFCURVE",
"375 76 CURVE SMOOTH",
"0 76 LINE SMOOTH",
"-21 76 OFFCURVE",
"-39 61 OFFCURVE",
"-39 38 CURVE SMOOTH",
"-39 14 OFFCURVE",
"-21 0 OFFCURVE",
"0 0 CURVE SMOOTH",
"365 0 LINE SMOOTH",
"440 0 OFFCURVE",
"492 21 OFFCURVE",
"517 50 CURVE",
"521 50 LINE",
"545 14 OFFCURVE",
"579 0 OFFCURVE",
"620 0 CURVE"
);
},
{
closed = 1;
nodes = (
"382 280 OFFCURVE",
"337 274 OFFCURVE",
"285 274 CURVE SMOOTH",
"196 274 OFFCURVE",
"152 296 OFFCURVE",
"152 359 CURVE SMOOTH",
"152 389 OFFCURVE",
"163 416 OFFCURVE",
"185 440 CURVE SMOOTH",
"208 465 OFFCURVE",
"233 477 OFFCURVE",
"260 477 CURVE",
"354 474 OFFCURVE",
"363 428 OFFCURVE",
"420 291 CURVE"
);
}
);
width = 620;
}
);
},
{
glyphname = uni0726.Init;
lastChange = "2017-09-07 21:15:43 +0000";
layers = (
{
anchors = (
{
name = mark0;
position = "{511, -94}";
}
);
layerId = UUID0;
paths = (
{
closed = 1;
nodes = (
"484 0 LINE",
"529 0 OFFCURVE",
"557 29 OFFCURVE",
"557 84 CURVE SMOOTH",
"557 103 OFFCURVE",
"549 138 OFFCURVE",
"533 187 CURVE SMOOTH",
"517 236 OFFCURVE",
"501 280 OFFCURVE",
"486 319 CURVE",
"487 319 LINE",
"465 373 LINE SMOOTH",
"440 436 OFFCURVE",
"413 481 OFFCURVE",
"384 509 CURVE SMOOTH",
"355 538 OFFCURVE",
"315 552 OFFCURVE",
"262 552 CURVE SMOOTH",
"215 552 OFFCURVE",
"172 532 OFFCURVE",
"135 493 CURVE SMOOTH",
"98 454 OFFCURVE",
"79 407 OFFCURVE",
"79 353 CURVE SMOOTH",
"79 250 OFFCURVE",
"139 202 OFFCURVE",
"283 202 CURVE SMOOTH",
"332 202 OFFCURVE",
"389 207 OFFCURVE",
"444 226 CURVE",
"465 163 OFFCURVE",
"485 101 OFFCURVE",
"488 76 CURVE",
"0 76 LINE SMOOTH",
"-21 76 OFFCURVE",
"-39 61 OFFCURVE",
"-39 38 CURVE SMOOTH",
"-39 14 OFFCURVE",
"-21 0 OFFCURVE",
"0 0 CURVE SMOOTH"
);
},
{
closed = 1;
nodes = (
"420 291 LINE",
"382 280 OFFCURVE",
"337 274 OFFCURVE",
"285 274 CURVE SMOOTH",
"196 274 OFFCURVE",
"152 296 OFFCURVE",
"152 359 CURVE SMOOTH",
"152 389 OFFCURVE",
"163 416 OFFCURVE",
"185 440 CURVE SMOOTH",
"208 465 OFFCURVE",
"233 477 OFFCURVE",
"260 477 CURVE SMOOTH",
"313 477 OFFCURVE",
"335 460 OFFCURVE",
"359 423 CURVE SMOOTH",
"371 405 OFFCURVE",
"386 375 OFFCURVE",
"404 332 CURVE SMOOTH"
);
}
);
width = 616;
}
);
},
{
glyphname = uni0727;
lastChange = "2017-09-07 21:15:43 +0000";
layers = (
{
anchors = (
{
name = mark0;
position = "{439, -98}";
}
);
layerId = UUID0;
paths = (
{
closed = 1;
nodes = (
"758 76 LINE",
"689 76 LINE SMOOTH",
"454 76 OFFCURVE",
"338 150 OFFCURVE",
"338 287 CURVE SMOOTH",
"338 327 OFFCURVE",
"352 360 OFFCURVE",
"379 385 CURVE SMOOTH",
"407 410 OFFCURVE",
"441 423 OFFCURVE",
"481 423 CURVE SMOOTH",
"557 423 OFFCURVE",
"610 387 OFFCURVE",
"610 328 CURVE SMOOTH",
"610 284 OFFCURVE",
"586 255 OFFCURVE",
"541 255 CURVE SMOOTH",
"508 255 OFFCURVE",
"480 275 OFFCURVE",
"475 319 CURVE",
"416 312 LINE",
"416 239 OFFCURVE",
"465 189 OFFCURVE",
"544 189 CURVE SMOOTH",
"631 189 OFFCURVE",
"680 240 OFFCURVE",
"680 329 CURVE SMOOTH",
"680 377 OFFCURVE",
"661 417 OFFCURVE",
"622 449 CURVE SMOOTH",
"583 481 OFFCURVE",
"536 497 OFFCURVE",
"479 497 CURVE SMOOTH",
"417 497 OFFCURVE",
"366 477 OFFCURVE",
"325 436 CURVE SMOOTH",
"284 395 OFFCURVE",
"264 344 OFFCURVE",
"264 283 CURVE SMOOTH",
"264 190 OFFCURVE",
"306 111 OFFCURVE",
"375 78 CURVE",
"375 74 LINE",
"364 75 OFFCURVE",
"354 76 OFFCURVE",
"343 76 CURVE SMOOTH",
"272 76 LINE SMOOTH",
"184 76 OFFCURVE",
"139 89 OFFCURVE",
"104 138 CURVE",
"59 78 LINE",
"79 30 OFFCURVE",
"146 0 OFFCURVE",
"250 0 CURVE SMOOTH",
"758 0 LINE"
);
},
{
closed = 1;
nodes = (
"433 643 OFFCURVE",
"414 663 OFFCURVE",
"381 663 CURVE SMOOTH",
"350 663 OFFCURVE",
"332 643 OFFCURVE",
"332 606 CURVE SMOOTH",
"332 566 OFFCURVE",
"353 550 OFFCURVE",
"381 550 CURVE SMOOTH",
"414 550 OFFCURVE",
"433 570 OFFCURVE",
"433 606 CURVE SMOOTH"
);
},
{
closed = 1;
nodes = (
"618 643 OFFCURVE",
"599 663 OFFCURVE",
"566 663 CURVE SMOOTH",
"534 663 OFFCURVE",
"517 643 OFFCURVE",
"517 606 CURVE SMOOTH",
"517 566 OFFCURVE",
"537 550 OFFCURVE",
"566 550 CURVE SMOOTH",
"598 550 OFFCURVE",
"618 570 OFFCURVE",
"618 606 CURVE SMOOTH"
);
}
);
width = 807;
}
);
leftKerningGroup = uni0727;
unicode = 0727;
},
{
glyphname = uni0727.Fina;
lastChange = "2017-09-07 21:15:43 +0000";
layers = (
{
anchors = (
{
name = mark0;
position = "{440, -98}";
}
);
layerId = UUID0;
paths = (
{
closed = 1;
nodes = (
"758 76 LINE",
"689 76 LINE SMOOTH",
"454 76 OFFCURVE",
"338 150 OFFCURVE",
"338 287 CURVE SMOOTH",
"338 327 OFFCURVE",
"352 360 OFFCURVE",
"379 385 CURVE SMOOTH",
"407 410 OFFCURVE",
"441 423 OFFCURVE",
"481 423 CURVE SMOOTH",
"557 423 OFFCURVE",
"610 387 OFFCURVE",
"610 328 CURVE SMOOTH",
"610 284 OFFCURVE",
"586 255 OFFCURVE",
"541 255 CURVE SMOOTH",
"508 255 OFFCURVE",
"480 275 OFFCURVE",
"475 319 CURVE",
"416 312 LINE",
"416 239 OFFCURVE",
"465 189 OFFCURVE",
"544 189 CURVE SMOOTH",
"631 189 OFFCURVE",
"680 240 OFFCURVE",
"680 329 CURVE SMOOTH",
"680 377 OFFCURVE",
"661 417 OFFCURVE",
"622 449 CURVE SMOOTH",
"583 481 OFFCURVE",
"536 497 OFFCURVE",
"479 497 CURVE SMOOTH",
"417 497 OFFCURVE",
"366 477 OFFCURVE",
"325 436 CURVE SMOOTH",
"284 395 OFFCURVE",
"264 344 OFFCURVE",
"264 283 CURVE SMOOTH",
"264 190 OFFCURVE",
"306 111 OFFCURVE",
"375 78 CURVE",
"375 74 LINE",
"364 75 OFFCURVE",
"354 76 OFFCURVE",
"343 76 CURVE SMOOTH",
"272 76 LINE SMOOTH",
"184 76 OFFCURVE",
"139 89 OFFCURVE",
"104 138 CURVE",
"59 78 LINE",
"79 30 OFFCURVE",
"146 0 OFFCURVE",
"250 0 CURVE SMOOTH",
"758 0 LINE"
);
},
{
closed = 1;
nodes = (
"433 643 OFFCURVE",
"414 663 OFFCURVE",
"381 663 CURVE SMOOTH",
"350 663 OFFCURVE",
"332 643 OFFCURVE",
"332 606 CURVE SMOOTH",
"332 566 OFFCURVE",
"353 550 OFFCURVE",
"381 550 CURVE SMOOTH",
"414 550 OFFCURVE",
"433 570 OFFCURVE",
"433 606 CURVE SMOOTH"
);
},
{
closed = 1;
nodes = (
"618 643 OFFCURVE",
"599 663 OFFCURVE",
"566 663 CURVE SMOOTH",
"534 663 OFFCURVE",
"517 643 OFFCURVE",
"517 606 CURVE SMOOTH",
"517 566 OFFCURVE",
"537 550 OFFCURVE",
"566 550 CURVE SMOOTH",
"598 550 OFFCURVE",
"618 570 OFFCURVE",
"618 606 CURVE SMOOTH"
);
}
);
width = 758;
}
);
},
{
glyphname = uni0727.Medi;
lastChange = "2017-09-07 21:15:43 +0000";
layers = (
{
anchors = (
{
name = mark0;
position = "{311, -96}";
}
);
layerId = UUID0;
paths = (
{
closed = 1;
nodes = (
"581 76 LINE",
"512 76 LINE SMOOTH",
"277 76 OFFCURVE",
"161 150 OFFCURVE",
"161 287 CURVE SMOOTH",
"161 327 OFFCURVE",
"175 360 OFFCURVE",
"203 385 CURVE SMOOTH",
"231 410 OFFCURVE",
"265 423 OFFCURVE",
"305 423 CURVE SMOOTH",
"380 423 OFFCURVE",
"433 387 OFFCURVE",
"433 328 CURVE SMOOTH",
"433 284 OFFCURVE",
"409 255 OFFCURVE",
"364 255 CURVE SMOOTH",
"331 255 OFFCURVE",
"303 275 OFFCURVE",
"298 319 CURVE",
"239 312 LINE",
"239 239 OFFCURVE",
"290 189 OFFCURVE",
"367 189 CURVE SMOOTH",
"455 189 OFFCURVE",
"503 240 OFFCURVE",
"503 329 CURVE SMOOTH",
"503 377 OFFCURVE",
"484 417 OFFCURVE",
"445 449 CURVE SMOOTH",
"407 481 OFFCURVE",
"359 497 OFFCURVE",
"302 497 CURVE SMOOTH",
"240 497 OFFCURVE",
"189 477 OFFCURVE",
"148 436 CURVE SMOOTH",
"107 395 OFFCURVE",
"87 344 OFFCURVE",
"87 283 CURVE SMOOTH",
"87 190 OFFCURVE",
"129 111 OFFCURVE",
"198 78 CURVE",
"198 74 LINE",
"187 75 OFFCURVE",
"177 76 OFFCURVE",
"167 76 CURVE SMOOTH",
"0 76 LINE SMOOTH",
"-21 76 OFFCURVE",
"-39 61 OFFCURVE",
"-39 38 CURVE SMOOTH",
"-39 14 OFFCURVE",
"-21 0 OFFCURVE",
"0 0 CURVE SMOOTH",
"581 0 LINE"
);
},
{
closed = 1;
nodes = (
"256 643 OFFCURVE",
"237 663 OFFCURVE",
"205 663 CURVE SMOOTH",
"173 663 OFFCURVE",
"155 643 OFFCURVE",
"155 606 CURVE SMOOTH",
"155 566 OFFCURVE",
"176 550 OFFCURVE",
"205 550 CURVE SMOOTH",
"237 550 OFFCURVE",
"256 570 OFFCURVE",
"256 606 CURVE SMOOTH"
);
},
{
closed = 1;
nodes = (
"441 643 OFFCURVE",
"422 663 OFFCURVE",
"389 663 CURVE SMOOTH",
"358 663 OFFCURVE",
"340 643 OFFCURVE",
"340 606 CURVE SMOOTH",
"340 566 OFFCURVE",
"361 550 OFFCURVE",
"389 550 CURVE SMOOTH",
"422 550 OFFCURVE",
"441 570 OFFCURVE",
"441 606 CURVE SMOOTH"
);
}
);
width = 581;
}
);
},
{
glyphname = uni0727.Init;
lastChange = "2017-09-07 21:15:43 +0000";
layers = (
{
anchors = (
{
name = mark0;
position = "{310, -95}";
}
);
layerId = UUID0;
paths = (
{
closed = 1;
nodes = (
"581 76 LINE",
"512 76 LINE SMOOTH",
"277 76 OFFCURVE",
"161 150 OFFCURVE",
"161 287 CURVE SMOOTH",
"161 327 OFFCURVE",
"175 360 OFFCURVE",
"203 385 CURVE SMOOTH",
"231 410 OFFCURVE",
"265 423 OFFCURVE",
"305 423 CURVE SMOOTH",
"380 423 OFFCURVE",
"433 387 OFFCURVE",
"433 328 CURVE SMOOTH",
"433 284 OFFCURVE",
"409 255 OFFCURVE",
"364 255 CURVE SMOOTH",
"331 255 OFFCURVE",
"303 275 OFFCURVE",
"298 319 CURVE",
"239 312 LINE",
"239 239 OFFCURVE",
"290 189 OFFCURVE",
"367 189 CURVE SMOOTH",
"455 189 OFFCURVE",
"503 240 OFFCURVE",
"503 329 CURVE SMOOTH",
"503 377 OFFCURVE",
"484 417 OFFCURVE",
"445 449 CURVE SMOOTH",
"407 481 OFFCURVE",
"359 497 OFFCURVE",
"302 497 CURVE SMOOTH",
"240 497 OFFCURVE",
"189 477 OFFCURVE",
"148 436 CURVE SMOOTH",
"107 395 OFFCURVE",
"87 344 OFFCURVE",
"87 283 CURVE SMOOTH",
"87 190 OFFCURVE",
"129 111 OFFCURVE",
"198 78 CURVE",
"198 74 LINE",
"187 75 OFFCURVE",
"177 76 OFFCURVE",
"167 76 CURVE SMOOTH",
"0 76 LINE SMOOTH",
"-21 76 OFFCURVE",
"-39 61 OFFCURVE",
"-39 38 CURVE SMOOTH",
"-39 14 OFFCURVE",
"-21 0 OFFCURVE",
"0 0 CURVE SMOOTH",
"581 0 LINE"
);
},
{
closed = 1;
nodes = (
"256 643 OFFCURVE",
"237 663 OFFCURVE",
"205 663 CURVE SMOOTH",
"173 663 OFFCURVE",
"155 643 OFFCURVE",
"155 606 CURVE SMOOTH",
"155 566 OFFCURVE",
"176 550 OFFCURVE",
"205 550 CURVE SMOOTH",
"237 550 OFFCURVE",
"256 570 OFFCURVE",
"256 606 CURVE SMOOTH"
);
},
{
closed = 1;
nodes = (
"441 643 OFFCURVE",
"422 663 OFFCURVE",
"389 663 CURVE SMOOTH",
"358 663 OFFCURVE",
"340 643 OFFCURVE",
"340 606 CURVE SMOOTH",
"340 566 OFFCURVE",
"361 550 OFFCURVE",
"389 550 CURVE SMOOTH",
"422 550 OFFCURVE",
"441 570 OFFCURVE",
"441 606 CURVE SMOOTH"
);
}
);
width = 592;
}
);
leftKerningGroup = uni0727;
},
{
glyphname = uni0728;
lastChange = "2017-09-07 21:15:43 +0000";
layers = (
{
anchors = (
{
name = mark0;
position = "{293, -444}";
}
);
layerId = UUID0;
paths = (
{
closed = 1;
nodes = (
"298 22 LINE",
"325 13 OFFCURVE",
"359 0 OFFCURVE",
"402 0 CURVE SMOOTH",
"481 0 OFFCURVE",
"535 42 OFFCURVE",
"539 114 CURVE",
"470 114 LINE",
"462 89 OFFCURVE",
"440 76 OFFCURVE",
"404 76 CURVE SMOOTH",
"377 76 OFFCURVE",
"348 83 OFFCURVE",
"317 98 CURVE SMOOTH",
"286 113 OFFCURVE",
"257 120 OFFCURVE",
"229 120 CURVE SMOOTH",
"194 120 OFFCURVE",
"164 108 OFFCURVE",
"139 84 CURVE SMOOTH",
"114 61 OFFCURVE",
"101 32 OFFCURVE",
"101 -1 CURVE SMOOTH",
"101 -73 OFFCURVE",
"147 -117 OFFCURVE",
"231 -146 CURVE SMOOTH",
"273 -161 OFFCURVE",
"321 -176 OFFCURVE",
"374 -193 CURVE SMOOTH",
"427 -210 OFFCURVE",
"454 -228 OFFCURVE",
"454 -247 CURVE SMOOTH",
"454 -274 OFFCURVE",
"440 -289 OFFCURVE",
"369 -298 CURVE SMOOTH",
"334 -303 OFFCURVE",
"266 -305 OFFCURVE",
"165 -305 CURVE SMOOTH",
"53 -305 OFFCURVE",
"-54 -302 OFFCURVE",
"-189 -297 CURVE",
"-195 -367 LINE",
"-143 -371 OFFCURVE",
"-93 -374 OFFCURVE",
"-48 -375 CURVE SMOOTH",
"25 -377 LINE",
"66 -380 OFFCURVE",
"109 -380 OFFCURVE",
"145 -380 CURVE SMOOTH",
"183 -381 LINE",
"352 -381 OFFCURVE",
"441 -367 OFFCURVE",
"490 -334 CURVE SMOOTH",
"515 -317 OFFCURVE",
"527 -288 OFFCURVE",
"527 -247 CURVE SMOOTH",
"527 -178 OFFCURVE",
"470 -141 OFFCURVE",
"338 -102 CURVE SMOOTH",
"272 -83 OFFCURVE",
"228 -67 OFFCURVE",
"206 -52 CURVE SMOOTH",
"185 -38 OFFCURVE",
"174 -21 OFFCURVE",
"174 -2 CURVE SMOOTH",
"174 27 OFFCURVE",
"198 45 OFFCURVE",
"227 45 CURVE SMOOTH",
"238 45 OFFCURVE",
"249 43 OFFCURVE",
"260 38 CURVE SMOOTH",
"298 22 LINE"
);
}
);
width = 626;
}
);
rightKerningGroup = uni0728;
unicode = 0728;
},
{
glyphname = uni0728.Fina;
lastChange = "2017-09-07 21:15:43 +0000";
layers = (
{
anchors = (
{
name = mark0;
position = "{294, -443}";
}
);
layerId = UUID0;
paths = (
{
closed = 1;
nodes = (
"162 27 OFFCURVE",
"185 45 OFFCURVE",
"214 45 CURVE SMOOTH",
"229 45 OFFCURVE",
"255 37 OFFCURVE",
"290 22 CURVE SMOOTH",
"326 7 OFFCURVE",
"355 0 OFFCURVE",
"377 0 CURVE SMOOTH",
"417 0 OFFCURVE",
"450 6 OFFCURVE",
"471 33 CURVE",
"475 33 LINE",
"495 6 OFFCURVE",
"525 0 OFFCURVE",
"556 0 CURVE",
"556 76 LINE",
"536 76 OFFCURVE",
"518 91 OFFCURVE",
"515 114 CURVE",
"458 114 LINE",
"447 87 OFFCURVE",
"425 76 OFFCURVE",
"389 76 CURVE SMOOTH",
"368 76 OFFCURVE",
"342 83 OFFCURVE",
"309 98 CURVE SMOOTH",
"277 113 OFFCURVE",
"246 120 OFFCURVE",
"217 120 CURVE SMOOTH",
"182 120 OFFCURVE",
"152 108 OFFCURVE",
"127 84 CURVE SMOOTH",
"102 61 OFFCURVE",
"89 32 OFFCURVE",
"89 -1 CURVE SMOOTH",
"89 -74 OFFCURVE",
"146 -118 OFFCURVE",
"227 -145 CURVE SMOOTH",
"297 -168 LINE",
"354 -186 LINE SMOOTH",
"421 -206 OFFCURVE",
"454 -223 OFFCURVE",
"454 -247 CURVE SMOOTH",
"454 -274 OFFCURVE",
"440 -289 OFFCURVE",
"369 -298 CURVE SMOOTH",
"334 -303 OFFCURVE",
"266 -305 OFFCURVE",
"165 -305 CURVE SMOOTH",
"53 -305 OFFCURVE",
"-54 -302 OFFCURVE",
"-189 -297 CURVE",
"-195 -367 LINE",
"-143 -371 OFFCURVE",
"-93 -374 OFFCURVE",
"-48 -375 CURVE SMOOTH",
"25 -377 LINE",
"66 -380 OFFCURVE",
"109 -380 OFFCURVE",
"145 -380 CURVE SMOOTH",
"183 -381 LINE",
"352 -381 OFFCURVE",
"441 -367 OFFCURVE",
"490 -334 CURVE SMOOTH",
"515 -317 OFFCURVE",
"527 -288 OFFCURVE",
"527 -247 CURVE SMOOTH",
"527 -178 OFFCURVE",
"469 -141 OFFCURVE",
"333 -101 CURVE SMOOTH",
"265 -81 OFFCURVE",
"219 -64 OFFCURVE",
"196 -50 CURVE SMOOTH",
"173 -37 OFFCURVE",
"162 -21 OFFCURVE",
"162 -2 CURVE SMOOTH"
);
}
);
width = 556;
}
);
rightKerningGroup = uni0728;
},
{
glyphname = uni0729;
lastChange = "2017-09-07 21:15:43 +0000";
layers = (
{
anchors = (
{
name = mark0;
position = "{533, -98}";
}
);
layerId = UUID0;
paths = (
{
closed = 1;
nodes = (
"380 426 LINE",
"308 426 OFFCURVE",
"265 376 OFFCURVE",
"265 304 CURVE SMOOTH",
"265 181 OFFCURVE",
"278 124 OFFCURVE",
"309 84 CURVE",
"286 53 OFFCURVE",
"259 32 OFFCURVE",
"208 32 CURVE SMOOTH",
"160 32 OFFCURVE",
"125 49 OFFCURVE",
"94 93 CURVE",
"49 50 LINE",
"69 1 OFFCURVE",
"132 -39 OFFCURVE",
"201 -39 CURVE SMOOTH",
"274 -39 OFFCURVE",
"327 -15 OFFCURVE",
"359 29 CURVE",
"386 10 OFFCURVE",
"421 0 OFFCURVE",
"466 0 CURVE SMOOTH",
"585 0 LINE SMOOTH",
"709 0 OFFCURVE",
"766 53 OFFCURVE",
"766 170 CURVE SMOOTH",
"766 189 OFFCURVE",
"763 221 OFFCURVE",
"758 268 CURVE SMOOTH",
"753 315 OFFCURVE",
"744 348 OFFCURVE",
"731 369 CURVE SMOOTH",
"704 412 OFFCURVE",
"665 426 OFFCURVE",
"584 426 CURVE SMOOTH"
);
},
{
closed = 1;
nodes = (
"587 353 LINE",
"624 353 OFFCURVE",
"649 347 OFFCURVE",
"661 334 CURVE SMOOTH",
"674 321 OFFCURVE",
"682 297 OFFCURVE",
"687 260 CURVE SMOOTH",
"692 224 OFFCURVE",
"694 192 OFFCURVE",
"694 164 CURVE SMOOTH",
"694 107 OFFCURVE",
"669 76 OFFCURVE",
"606 76 CURVE SMOOTH",
"488 76 LINE SMOOTH",
"400 76 OFFCURVE",
"370 103 OFFCURVE",
"351 162 CURVE SMOOTH",
"342 192 OFFCURVE",
"337 231 OFFCURVE",
"337 280 CURVE SMOOTH",
"337 333 OFFCURVE",
"354 353 OFFCURVE",
"401 353 CURVE SMOOTH"
);
}
);
width = 834;
}
);
unicode = 0729;
},
{
glyphname = uni0729.Fina;
lastChange = "2017-09-07 21:15:43 +0000";
layers = (
{
anchors = (
{
name = mark0;
position = "{534, -99}";
}
);
layerId = UUID0;
paths = (
{
closed = 1;
nodes = (
"380 426 LINE",
"308 426 OFFCURVE",
"265 376 OFFCURVE",
"265 304 CURVE SMOOTH",
"265 187 OFFCURVE",
"276 125 OFFCURVE",
"311 81 CURVE",
"290 52 OFFCURVE",
"257 32 OFFCURVE",
"208 32 CURVE SMOOTH",
"160 32 OFFCURVE",
"125 49 OFFCURVE",
"94 93 CURVE",
"49 50 LINE",
"69 1 OFFCURVE",
"132 -39 OFFCURVE",
"201 -39 CURVE SMOOTH",
"270 -39 OFFCURVE",
"323 -18 OFFCURVE",
"358 30 CURVE",
"362 30 LINE",
"383 10 OFFCURVE",
"421 0 OFFCURVE",
"466 0 CURVE SMOOTH",
"585 0 LINE SMOOTH",
"648 0 OFFCURVE",
"684 9 OFFCURVE",
"717 42 CURVE",
"723 42 LINE",
"751 7 OFFCURVE",
"785 0 OFFCURVE",
"845 0 CURVE",
"845 76 LINE",
"785 76 OFFCURVE",
"764 84 OFFCURVE",
"757 103 CURVE",
"763 122 OFFCURVE",
"766 144 OFFCURVE",
"766 170 CURVE SMOOTH",
"766 189 OFFCURVE",
"763 221 OFFCURVE",
"758 268 CURVE SMOOTH",
"753 315 OFFCURVE",
"744 348 OFFCURVE",
"731 369 CURVE SMOOTH",
"704 412 OFFCURVE",
"665 426 OFFCURVE",
"584 426 CURVE SMOOTH"
);
},
{
closed = 1;
nodes = (
"587 353 LINE",
"624 353 OFFCURVE",
"649 347 OFFCURVE",
"661 334 CURVE SMOOTH",
"674 321 OFFCURVE",
"682 297 OFFCURVE",
"687 260 CURVE SMOOTH",
"692 224 OFFCURVE",
"694 192 OFFCURVE",
"694 164 CURVE SMOOTH",
"694 107 OFFCURVE",
"669 76 OFFCURVE",
"606 76 CURVE SMOOTH",
"488 76 LINE SMOOTH",
"400 76 OFFCURVE",
"370 103 OFFCURVE",
"351 162 CURVE SMOOTH",
"342 192 OFFCURVE",
"337 231 OFFCURVE",
"337 280 CURVE SMOOTH",
"337 333 OFFCURVE",
"354 353 OFFCURVE",
"401 353 CURVE SMOOTH"
);
}
);
width = 845;
}
);
},
{
glyphname = uni0729.Medi;
lastChange = "2017-09-07 21:15:43 +0000";
layers = (
{
anchors = (
{
name = mark0;
position = "{364, -98}";
}
);
layerId = UUID0;
paths = (
{
closed = 1;
nodes = (
"211 426 LINE",
"138 426 OFFCURVE",
"95 376 OFFCURVE",
"95 304 CURVE SMOOTH",
"95 211 OFFCURVE",
"102 148 OFFCURVE",
"127 103 CURVE",
"122 84 OFFCURVE",
"98 76 OFFCURVE",
"45 76 CURVE SMOOTH",
"0 76 LINE SMOOTH",
"-21 76 OFFCURVE",
"-39 61 OFFCURVE",
"-39 38 CURVE SMOOTH",
"-39 14 OFFCURVE",
"-21 0 OFFCURVE",
"0 0 CURVE SMOOTH",
"35 0 LINE SMOOTH",
"107 0 OFFCURVE",
"150 15 OFFCURVE",
"167 48 CURVE",
"172 48 LINE",
"200 15 OFFCURVE",
"237 0 OFFCURVE",
"297 0 CURVE SMOOTH",
"416 0 LINE SMOOTH",
"480 0 OFFCURVE",
"516 11 OFFCURVE",
"548 42 CURVE",
"553 42 LINE",
"582 7 OFFCURVE",
"616 0 OFFCURVE",
"675 0 CURVE",
"675 76 LINE",
"616 76 OFFCURVE",
"595 84 OFFCURVE",
"588 103 CURVE",
"594 122 OFFCURVE",
"597 145 OFFCURVE",
"597 170 CURVE SMOOTH",
"597 220 OFFCURVE",
"592 267 OFFCURVE",
"581 311 CURVE",
"571 356 OFFCURVE",
"553 386 OFFCURVE",
"528 402 CURVE SMOOTH",
"503 418 OFFCURVE",
"465 426 OFFCURVE",
"415 426 CURVE SMOOTH"
);
},
{
closed = 1;
nodes = (
"418 353 LINE",
"455 353 OFFCURVE",
"479 347 OFFCURVE",
"492 334 CURVE SMOOTH",
"505 321 OFFCURVE",
"513 297 OFFCURVE",
"518 260 CURVE SMOOTH",
"523 224 OFFCURVE",
"525 192 OFFCURVE",
"525 164 CURVE SMOOTH",
"525 107 OFFCURVE",
"498 76 OFFCURVE",
"437 76 CURVE SMOOTH",
"318 76 LINE SMOOTH",
"230 76 OFFCURVE",
"200 103 OFFCURVE",
"181 162 CURVE SMOOTH",
"172 192 OFFCURVE",
"168 231 OFFCURVE",
"168 280 CURVE SMOOTH",
"168 333 OFFCURVE",
"185 353 OFFCURVE",
"232 353 CURVE SMOOTH"
);
}
);
width = 675;
}
);
},
{
glyphname = uni0729.Init;
lastChange = "2017-09-07 21:15:43 +0000";
layers = (
{
anchors = (
{
name = mark0;
position = "{364, -98}";
}
);
layerId = UUID0;
paths = (
{
closed = 1;
nodes = (
"211 426 LINE",
"138 426 OFFCURVE",
"95 376 OFFCURVE",
"95 304 CURVE SMOOTH",
"95 211 OFFCURVE",
"102 148 OFFCURVE",
"127 103 CURVE",
"122 84 OFFCURVE",
"98 76 OFFCURVE",
"45 76 CURVE SMOOTH",
"0 76 LINE SMOOTH",
"-21 76 OFFCURVE",
"-39 61 OFFCURVE",
"-39 38 CURVE SMOOTH",
"-39 14 OFFCURVE",
"-21 0 OFFCURVE",
"0 0 CURVE SMOOTH",
"35 0 LINE SMOOTH",
"107 0 OFFCURVE",
"150 15 OFFCURVE",
"167 48 CURVE",
"172 48 LINE",
"200 15 OFFCURVE",
"237 0 OFFCURVE",
"297 0 CURVE SMOOTH",
"416 0 LINE SMOOTH",
"540 0 OFFCURVE",
"597 53 OFFCURVE",
"597 170 CURVE SMOOTH",
"597 220 OFFCURVE",
"592 267 OFFCURVE",
"581 311 CURVE",
"571 356 OFFCURVE",
"553 386 OFFCURVE",
"528 402 CURVE SMOOTH",
"503 418 OFFCURVE",
"465 426 OFFCURVE",
"415 426 CURVE SMOOTH"
);
},
{
closed = 1;
nodes = (
"418 353 LINE",
"455 353 OFFCURVE",
"479 347 OFFCURVE",
"492 334 CURVE SMOOTH",
"505 321 OFFCURVE",
"513 297 OFFCURVE",
"518 260 CURVE SMOOTH",
"523 224 OFFCURVE",
"525 192 OFFCURVE",
"525 164 CURVE SMOOTH",
"525 107 OFFCURVE",
"498 76 OFFCURVE",
"437 76 CURVE SMOOTH",
"318 76 LINE SMOOTH",
"230 76 OFFCURVE",
"200 103 OFFCURVE",
"181 162 CURVE SMOOTH",
"172 192 OFFCURVE",
"168 231 OFFCURVE",
"168 280 CURVE SMOOTH",
"168 333 OFFCURVE",
"185 353 OFFCURVE",
"232 353 CURVE SMOOTH"
);
}
);
width = 665;
}
);
},
{
glyphname = uni072B;
lastChange = "2017-09-07 21:15:43 +0000";
layers = (
{
anchors = (
{
name = mark0;
position = "{474, -98}";
}
);
layerId = UUID0;
paths = (
{
closed = 1;
nodes = (
"486 86 LINE",
"519 27 OFFCURVE",
"582 0 OFFCURVE",
"662 0 CURVE SMOOTH",
"705 0 LINE SMOOTH",
"809 0 OFFCURVE",
"871 28 OFFCURVE",
"896 85 CURVE",
"846 129 LINE",
"830 108 OFFCURVE",
"810 93 OFFCURVE",
"787 86 CURVE SMOOTH",
"764 79 OFFCURVE",
"726 76 OFFCURVE",
"671 76 CURVE SMOOTH",
"563 76 OFFCURVE",
"513 130 OFFCURVE",
"513 231 CURVE SMOOTH",
"513 294 OFFCURVE",
"542 333 OFFCURVE",
"590 344 CURVE SMOOTH",
"614 350 OFFCURVE",
"637 354 OFFCURVE",
"660 355 CURVE SMOOTH",
"683 357 OFFCURVE",
"694 369 OFFCURVE",
"694 391 CURVE SMOOTH",
"694 415 OFFCURVE",
"679 428 OFFCURVE",
"656 428 CURVE SMOOTH",
"649 428 OFFCURVE",
"640 427 OFFCURVE",
"629 425 CURVE SMOOTH",
"587 417 LINE",
"558 410 OFFCURVE",
"518 401 OFFCURVE",
"479 401 CURVE SMOOTH",
"442 401 OFFCURVE",
"403 406 OFFCURVE",
"372 413 CURVE SMOOTH",
"331 421 LINE SMOOTH",
"320 423 OFFCURVE",
"310 424 OFFCURVE",
"303 424 CURVE SMOOTH",
"280 424 OFFCURVE",
"264 412 OFFCURVE",
"264 388 CURVE SMOOTH",
"264 367 OFFCURVE",
"274 355 OFFCURVE",
"295 352 CURVE SMOOTH",
"316 350 OFFCURVE",
"336 347 OFFCURVE",
"357 343 CURVE SMOOTH",
"378 340 OFFCURVE",
"396 331 OFFCURVE",
"411 318 CURVE SMOOTH",
"440 291 OFFCURVE",
"446 246 OFFCURVE",
"446 205 CURVE SMOOTH",
"446 124 OFFCURVE",
"403 76 OFFCURVE",
"328 76 CURVE SMOOTH",
"268 76 LINE SMOOTH",
"218 76 OFFCURVE",
"182 79 OFFCURVE",
"159 86 CURVE SMOOTH",
"136 93 OFFCURVE",
"117 108 OFFCURVE",
"101 131 CURVE",
"49 85 LINE",
"76 24 OFFCURVE",
"133 0 OFFCURVE",
"230 0 CURVE SMOOTH",
"312 0 LINE SMOOTH",
"395 0 OFFCURVE",
"455 31 OFFCURVE",
"482 86 CURVE"
);
}
);
width = 945;
}
);
leftKerningGroup = uni072B;
unicode = 072B;
},
{
glyphname = uni072B.Fina;
lastChange = "2017-09-07 21:15:43 +0000";
layers = (
{
anchors = (
{
name = mark0;
position = "{473, -98}";
}
);
layerId = UUID0;
paths = (
{
closed = 1;
nodes = (
"312 0 LINE SMOOTH",
"395 0 OFFCURVE",
"455 31 OFFCURVE",
"482 86 CURVE",
"486 86 LINE",
"519 27 OFFCURVE",
"582 0 OFFCURVE",
"662 0 CURVE SMOOTH",
"751 0 LINE",
"751 76 LINE",
"665 76 LINE SMOOTH",
"565 76 OFFCURVE",
"513 130 OFFCURVE",
"513 231 CURVE SMOOTH",
"513 294 OFFCURVE",
"542 333 OFFCURVE",
"590 344 CURVE SMOOTH",
"614 350 OFFCURVE",
"637 354 OFFCURVE",
"660 355 CURVE SMOOTH",
"683 357 OFFCURVE",
"694 369 OFFCURVE",
"694 391 CURVE SMOOTH",
"694 415 OFFCURVE",
"679 428 OFFCURVE",
"656 428 CURVE SMOOTH",
"649 428 OFFCURVE",
"640 427 OFFCURVE",
"629 425 CURVE SMOOTH",
"587 417 LINE",
"558 410 OFFCURVE",
"518 401 OFFCURVE",
"479 401 CURVE SMOOTH",
"442 401 OFFCURVE",
"403 406 OFFCURVE",
"372 413 CURVE SMOOTH",
"331 421 LINE SMOOTH",
"320 423 OFFCURVE",
"310 424 OFFCURVE",
"303 424 CURVE SMOOTH",
"280 424 OFFCURVE",
"264 412 OFFCURVE",
"264 388 CURVE SMOOTH",
"264 367 OFFCURVE",
"274 355 OFFCURVE",
"295 352 CURVE SMOOTH",
"316 350 OFFCURVE",
"336 347 OFFCURVE",
"357 343 CURVE SMOOTH",
"378 340 OFFCURVE",
"396 331 OFFCURVE",
"411 318 CURVE SMOOTH",
"440 291 OFFCURVE",
"446 246 OFFCURVE",
"446 205 CURVE SMOOTH",
"446 124 OFFCURVE",
"403 76 OFFCURVE",
"328 76 CURVE SMOOTH",
"268 76 LINE SMOOTH",
"218 76 OFFCURVE",
"182 79 OFFCURVE",
"159 86 CURVE SMOOTH",
"136 93 OFFCURVE",
"117 108 OFFCURVE",
"101 131 CURVE",
"49 85 LINE",
"76 24 OFFCURVE",
"133 0 OFFCURVE",
"230 0 CURVE SMOOTH"
);
}
);
width = 751;
}
);
},
{
glyphname = uni072B.Medi;
lastChange = "2017-09-07 21:15:43 +0000";
layers = (
{
anchors = (
{
name = mark0;
position = "{268, -98}";
}
);
layerId = UUID0;
paths = (
{
closed = 1;
nodes = (
"105 0 LINE SMOOTH",
"188 0 OFFCURVE",
"250 31 OFFCURVE",
"275 86 CURVE",
"279 86 LINE",
"314 27 OFFCURVE",
"376 0 OFFCURVE",
"455 0 CURVE SMOOTH",
"544 0 LINE",
"544 76 LINE",
"458 76 LINE SMOOTH",
"358 76 OFFCURVE",
"306 130 OFFCURVE",
"306 231 CURVE SMOOTH",
"306 294 OFFCURVE",
"335 333 OFFCURVE",
"383 344 CURVE SMOOTH",
"407 350 OFFCURVE",
"430 354 OFFCURVE",
"453 355 CURVE SMOOTH",
"476 357 OFFCURVE",
"487 369 OFFCURVE",
"487 391 CURVE SMOOTH",
"487 415 OFFCURVE",
"473 428 OFFCURVE",
"449 428 CURVE SMOOTH",
"442 428 OFFCURVE",
"433 427 OFFCURVE",
"422 425 CURVE SMOOTH",
"381 417 LINE SMOOTH",
"350 410 OFFCURVE",
"310 401 OFFCURVE",
"273 401 CURVE SMOOTH",
"236 401 OFFCURVE",
"196 406 OFFCURVE",
"165 413 CURVE SMOOTH",
"124 421 LINE SMOOTH",
"113 423 OFFCURVE",
"104 424 OFFCURVE",
"97 424 CURVE SMOOTH",
"73 424 OFFCURVE",
"57 412 OFFCURVE",
"57 388 CURVE SMOOTH",
"57 367 OFFCURVE",
"67 355 OFFCURVE",
"88 352 CURVE SMOOTH",
"109 350 OFFCURVE",
"129 347 OFFCURVE",
"150 343 CURVE SMOOTH",
"171 340 OFFCURVE",
"189 331 OFFCURVE",
"204 318 CURVE SMOOTH",
"233 291 OFFCURVE",
"240 246 OFFCURVE",
"240 205 CURVE SMOOTH",
"240 124 OFFCURVE",
"197 76 OFFCURVE",
"121 76 CURVE SMOOTH",
"0 76 LINE SMOOTH",
"-21 76 OFFCURVE",
"-39 61 OFFCURVE",
"-39 38 CURVE SMOOTH",
"-39 14 OFFCURVE",
"-21 0 OFFCURVE",
"0 0 CURVE SMOOTH"
);
}
);
width = 544;
}
);
},
{
glyphname = uni072B.Init;
lastChange = "2017-09-07 21:15:43 +0000";
layers = (
{
anchors = (
{
name = mark0;
position = "{268, -98}";
}
);
layerId = UUID0;
paths = (
{
closed = 1;
nodes = (
"499 0 LINE SMOOTH",
"602 0 OFFCURVE",
"665 28 OFFCURVE",
"690 85 CURVE",
"639 129 LINE",
"623 108 OFFCURVE",
"603 93 OFFCURVE",
"580 86 CURVE SMOOTH",
"557 79 OFFCURVE",
"519 76 OFFCURVE",
"464 76 CURVE SMOOTH",
"356 76 OFFCURVE",
"306 130 OFFCURVE",
"306 231 CURVE SMOOTH",
"306 294 OFFCURVE",
"335 333 OFFCURVE",
"383 344 CURVE SMOOTH",
"407 350 OFFCURVE",
"430 354 OFFCURVE",
"453 355 CURVE SMOOTH",
"476 357 OFFCURVE",
"487 369 OFFCURVE",
"487 391 CURVE SMOOTH",
"487 415 OFFCURVE",
"473 428 OFFCURVE",
"449 428 CURVE SMOOTH",
"442 428 OFFCURVE",
"433 427 OFFCURVE",
"422 425 CURVE SMOOTH",
"381 417 LINE SMOOTH",
"350 410 OFFCURVE",
"310 401 OFFCURVE",
"273 401 CURVE SMOOTH",
"236 401 OFFCURVE",
"196 406 OFFCURVE",
"165 413 CURVE SMOOTH",
"124 421 LINE SMOOTH",
"113 423 OFFCURVE",
"104 424 OFFCURVE",
"97 424 CURVE SMOOTH",
"73 424 OFFCURVE",
"57 412 OFFCURVE",
"57 388 CURVE SMOOTH",
"57 367 OFFCURVE",
"67 355 OFFCURVE",
"88 352 CURVE SMOOTH",
"109 350 OFFCURVE",
"129 347 OFFCURVE",
"150 343 CURVE SMOOTH",
"171 340 OFFCURVE",
"189 331 OFFCURVE",
"204 318 CURVE SMOOTH",
"233 291 OFFCURVE",
"240 246 OFFCURVE",
"240 205 CURVE SMOOTH",
"240 124 OFFCURVE",
"197 76 OFFCURVE",
"121 76 CURVE SMOOTH",
"0 76 LINE SMOOTH",
"-21 76 OFFCURVE",
"-39 61 OFFCURVE",
"-39 38 CURVE SMOOTH",
"-39 14 OFFCURVE",
"-21 0 OFFCURVE",
"0 0 CURVE SMOOTH",
"105 0 LINE SMOOTH",
"188 0 OFFCURVE",
"250 31 OFFCURVE",
"275 86 CURVE",
"279 86 LINE",
"314 27 OFFCURVE",
"376 0 OFFCURVE",
"455 0 CURVE SMOOTH"
);
}
);
width = 739;
}
);
leftKerningGroup = uni072B;
},
{
glyphname = uni072C;
lastChange = "2017-09-07 21:15:43 +0000";
layers = (
{
anchors = (
{
name = mark0;
position = "{648, -106}";
}
);
layerId = UUID0;
paths = (
{
closed = 1;
nodes = (
"515 325 OFFCURVE",
"530 286 OFFCURVE",
"553 214 CURVE SMOOTH",
"576 142 OFFCURVE",
"597 69 OFFCURVE",
"615 -5 CURVE",
"688 -5 LINE",
"668 80 OFFCURVE",
"648 156 OFFCURVE",
"627 223 CURVE",
"607 291 OFFCURVE",
"590 337 OFFCURVE",
"575 361 CURVE SMOOTH",
"560 385 OFFCURVE",
"535 397 OFFCURVE",
"500 397 CURVE SMOOTH",
"475 397 OFFCURVE",
"425 384 OFFCURVE",
"350 349 CURVE",
"213 713 LINE",
"143 686 LINE",
"282 317 LINE",
"217 283 OFFCURVE",
"172 256 OFFCURVE",
"145 237 CURVE SMOOTH",
"119 218 OFFCURVE",
"99 198 OFFCURVE",
"85 177 CURVE SMOOTH",
"72 156 OFFCURVE",
"65 133 OFFCURVE",
"65 108 CURVE SMOOTH",
"65 58 OFFCURVE",
"89 23 OFFCURVE",
"136 2 CURVE SMOOTH",
"183 -19 OFFCURVE",
"233 -29 OFFCURVE",
"285 -29 CURVE SMOOTH",
"382 -29 OFFCURVE",
"433 14 OFFCURVE",
"433 94 CURVE SMOOTH",
"433 110 OFFCURVE",
"428 138 OFFCURVE",
"420 159 CURVE SMOOTH",
"414 178 LINE",
"374 284 LINE",
"437 311 OFFCURVE",
"492 330 OFFCURVE",
"507 330 CURVE"
);
},
{
closed = 1;
nodes = (
"340 166 LINE",
"352 135 OFFCURVE",
"358 107 OFFCURVE",
"358 90 CURVE SMOOTH",
"358 58 OFFCURVE",
"345 42 OFFCURVE",
"290 42 CURVE SMOOTH",
"198 42 OFFCURVE",
"138 68 OFFCURVE",
"138 115 CURVE SMOOTH",
"138 154 OFFCURVE",
"194 197 OFFCURVE",
"307 253 CURVE"
);
}
);
width = 743;
}
);
rightKerningGroup = uni072C;
unicode = 072C;
},
{
glyphname = uni072C.Fina;
lastChange = "2017-09-07 21:15:43 +0000";
layers = (
{
anchors = (
{
name = mark0;
position = "{648, -106}";
}
);
layerId = UUID0;
paths = (
{
closed = 1;
nodes = (
"515 325 OFFCURVE",
"530 286 OFFCURVE",
"553 214 CURVE SMOOTH",
"576 142 OFFCURVE",
"597 69 OFFCURVE",
"615 -5 CURVE",
"684 -5 LINE",
"679 18 LINE",
"683 18 LINE",
"694 7 OFFCURVE",
"711 0 OFFCURVE",
"730 0 CURVE",
"730 76 LINE",
"689 76 OFFCURVE",
"666 88 OFFCURVE",
"659 111 CURVE SMOOTH",
"626 224 LINE SMOOTH",
"611 277 OFFCURVE",
"596 319 OFFCURVE",
"581 350 CURVE SMOOTH",
"567 381 OFFCURVE",
"540 397 OFFCURVE",
"500 397 CURVE SMOOTH",
"475 397 OFFCURVE",
"425 384 OFFCURVE",
"350 349 CURVE",
"213 713 LINE",
"143 686 LINE",
"282 317 LINE",
"217 283 OFFCURVE",
"172 256 OFFCURVE",
"145 237 CURVE SMOOTH",
"119 218 OFFCURVE",
"99 198 OFFCURVE",
"85 177 CURVE SMOOTH",
"72 156 OFFCURVE",
"65 133 OFFCURVE",
"65 108 CURVE SMOOTH",
"65 58 OFFCURVE",
"89 23 OFFCURVE",
"136 2 CURVE SMOOTH",
"183 -19 OFFCURVE",
"233 -29 OFFCURVE",
"285 -29 CURVE SMOOTH",
"382 -29 OFFCURVE",
"433 14 OFFCURVE",
"433 94 CURVE SMOOTH",
"433 110 OFFCURVE",
"428 138 OFFCURVE",
"420 159 CURVE SMOOTH",
"414 178 LINE",
"374 284 LINE",
"437 311 OFFCURVE",
"492 330 OFFCURVE",
"507 330 CURVE"
);
},
{
closed = 1;
nodes = (
"340 166 LINE",
"352 135 OFFCURVE",
"358 107 OFFCURVE",
"358 90 CURVE SMOOTH",
"358 58 OFFCURVE",
"345 42 OFFCURVE",
"290 42 CURVE SMOOTH",
"198 42 OFFCURVE",
"138 68 OFFCURVE",
"138 115 CURVE SMOOTH",
"138 154 OFFCURVE",
"194 197 OFFCURVE",
"307 253 CURVE"
);
}
);
width = 730;
}
);
rightKerningGroup = uni072C;
},
{
glyphname = uni072D;
lastChange = "2017-09-07 21:15:43 +0000";
layers = (
{
anchors = (
{
name = mark0;
position = "{475, -98}";
}
);
layerId = UUID0;
paths = (
{
closed = 1;
nodes = (
"417 426 LINE",
"432 439 LINE",
"472 479 LINE",
"493 500 LINE",
"512 519 LINE SMOOTH",
"518 524 OFFCURVE",
"523 529 OFFCURVE",
"526 534 CURVE",
"576 587 LINE",
"523 632 LINE",
"320 405 LINE",
"344 355 LINE",
"351 354 OFFCURVE",
"369 352 OFFCURVE",
"398 350 CURVE",
"428 349 OFFCURVE",
"455 348 OFFCURVE",
"479 348 CURVE SMOOTH",
"548 348 OFFCURVE",
"621 353 OFFCURVE",
"690 353 CURVE SMOOTH",
"759 353 OFFCURVE",
"789 334 OFFCURVE",
"805 270 CURVE SMOOTH",
"813 239 OFFCURVE",
"817 207 OFFCURVE",
"817 175 CURVE SMOOTH",
"817 100 OFFCURVE",
"793 76 OFFCURVE",
"729 76 CURVE SMOOTH",
"262 76 LINE SMOOTH",
"174 76 OFFCURVE",
"129 89 OFFCURVE",
"94 138 CURVE",
"49 78 LINE",
"69 30 OFFCURVE",
"136 0 OFFCURVE",
"240 0 CURVE SMOOTH",
"708 0 LINE SMOOTH",
"837 0 OFFCURVE",
"889 50 OFFCURVE",
"889 175 CURVE SMOOTH",
"889 195 OFFCURVE",
"886 225 OFFCURVE",
"883 253 CURVE",
"879 275 LINE SMOOTH",
"862 376 OFFCURVE",
"809 426 OFFCURVE",
"705 426 CURVE SMOOTH",
"628 426 OFFCURVE",
"551 421 OFFCURVE",
"474 421 CURVE SMOOTH",
"454 421 OFFCURVE",
"436 422 OFFCURVE",
"417 422 CURVE"
);
}
);
width = 958;
}
);
unicode = 072D;
},
{
glyphname = uni072D.Fina;
lastChange = "2017-09-07 21:15:43 +0000";
layers = (
{
anchors = (
{
name = mark0;
position = "{475, -98}";
}
);
layerId = UUID0;
paths = (
{
closed = 1;
nodes = (
"879 275 LINE",
"862 376 OFFCURVE",
"809 426 OFFCURVE",
"705 426 CURVE SMOOTH",
"628 426 OFFCURVE",
"551 421 OFFCURVE",
"474 421 CURVE SMOOTH",
"454 421 OFFCURVE",
"436 422 OFFCURVE",
"417 422 CURVE",
"417 426 LINE",
"432 439 LINE",
"472 479 LINE",
"493 500 LINE",
"512 519 LINE SMOOTH",
"518 524 OFFCURVE",
"523 529 OFFCURVE",
"526 534 CURVE",
"576 587 LINE",
"523 632 LINE",
"320 405 LINE",
"344 355 LINE",
"351 354 OFFCURVE",
"369 352 OFFCURVE",
"398 350 CURVE",
"428 349 OFFCURVE",
"455 348 OFFCURVE",
"479 348 CURVE SMOOTH",
"548 348 OFFCURVE",
"621 353 OFFCURVE",
"690 353 CURVE SMOOTH",
"759 353 OFFCURVE",
"789 334 OFFCURVE",
"805 270 CURVE SMOOTH",
"813 239 OFFCURVE",
"817 207 OFFCURVE",
"817 175 CURVE SMOOTH",
"817 100 OFFCURVE",
"793 76 OFFCURVE",
"729 76 CURVE SMOOTH",
"262 76 LINE SMOOTH",
"174 76 OFFCURVE",
"129 89 OFFCURVE",
"94 138 CURVE",
"49 78 LINE",
"69 30 OFFCURVE",
"136 0 OFFCURVE",
"240 0 CURVE SMOOTH",
"708 0 LINE SMOOTH",
"773 0 OFFCURVE",
"814 14 OFFCURVE",
"841 42 CURVE",
"846 42 LINE",
"874 7 OFFCURVE",
"908 0 OFFCURVE",
"968 0 CURVE",
"968 76 LINE",
"907 76 OFFCURVE",
"887 85 OFFCURVE",
"880 104 CURVE",
"887 124 OFFCURVE",
"889 148 OFFCURVE",
"889 175 CURVE SMOOTH",
"889 195 OFFCURVE",
"886 225 OFFCURVE",
"883 253 CURVE",
"879 275 LINE"
);
}
);
width = 968;
}
);
},
{
glyphname = uni072D.Medi;
lastChange = "2017-09-07 21:15:43 +0000";
layers = (
{
anchors = (
{
name = mark0;
position = "{319, -98}";
}
);
layerId = UUID0;
paths = (
{
closed = 1;
nodes = (
"651 275 LINE",
"634 376 OFFCURVE",
"581 426 OFFCURVE",
"477 426 CURVE SMOOTH",
"400 426 OFFCURVE",
"323 421 OFFCURVE",
"246 421 CURVE SMOOTH",
"226 421 OFFCURVE",
"208 422 OFFCURVE",
"189 422 CURVE",
"189 426 LINE",
"204 439 LINE",
"244 479 LINE",
"265 500 LINE",
"284 519 LINE",
"298 534 LINE",
"348 587 LINE",
"295 632 LINE",
"92 405 LINE",
"116 355 LINE",
"123 354 OFFCURVE",
"141 352 OFFCURVE",
"170 350 CURVE",
"200 349 OFFCURVE",
"227 348 OFFCURVE",
"251 348 CURVE SMOOTH",
"320 348 OFFCURVE",
"393 353 OFFCURVE",
"462 353 CURVE SMOOTH",
"531 353 OFFCURVE",
"561 334 OFFCURVE",
"577 270 CURVE SMOOTH",
"585 239 OFFCURVE",
"589 207 OFFCURVE",
"589 175 CURVE SMOOTH",
"589 100 OFFCURVE",
"565 76 OFFCURVE",
"501 76 CURVE SMOOTH",
"0 76 LINE SMOOTH",
"-21 76 OFFCURVE",
"-39 61 OFFCURVE",
"-39 38 CURVE SMOOTH",
"-39 14 OFFCURVE",
"-21 0 OFFCURVE",
"0 0 CURVE SMOOTH",
"480 0 LINE SMOOTH",
"545 0 OFFCURVE",
"586 14 OFFCURVE",
"613 42 CURVE",
"618 42 LINE",
"646 7 OFFCURVE",
"680 0 OFFCURVE",
"740 0 CURVE",
"740 76 LINE",
"679 76 OFFCURVE",
"659 85 OFFCURVE",
"652 104 CURVE",
"659 124 OFFCURVE",
"661 148 OFFCURVE",
"661 175 CURVE SMOOTH",
"661 195 OFFCURVE",
"658 225 OFFCURVE",
"655 253 CURVE",
"651 275 LINE"
);
}
);
width = 740;
}
);
},
{
glyphname = uni072D.Init;
lastChange = "2017-09-07 21:15:43 +0000";
layers = (
{
anchors = (
{
name = mark0;
position = "{321, -98}";
}
);
layerId = UUID0;
paths = (
{
closed = 1;
nodes = (
"651 275 LINE",
"634 376 OFFCURVE",
"581 426 OFFCURVE",
"477 426 CURVE SMOOTH",
"400 426 OFFCURVE",
"323 421 OFFCURVE",
"246 421 CURVE SMOOTH",
"226 421 OFFCURVE",
"208 422 OFFCURVE",
"189 422 CURVE",
"189 426 LINE",
"204 439 LINE",
"244 479 LINE",
"265 500 LINE",
"284 519 LINE",
"298 534 LINE",
"348 587 LINE",
"295 632 LINE",
"92 405 LINE",
"116 355 LINE",
"123 354 OFFCURVE",
"141 352 OFFCURVE",
"170 350 CURVE",
"200 349 OFFCURVE",
"227 348 OFFCURVE",
"251 348 CURVE SMOOTH",
"320 348 OFFCURVE",
"393 353 OFFCURVE",
"462 353 CURVE SMOOTH",
"531 353 OFFCURVE",
"561 334 OFFCURVE",
"577 270 CURVE SMOOTH",
"585 239 OFFCURVE",
"589 207 OFFCURVE",
"589 175 CURVE SMOOTH",
"589 100 OFFCURVE",
"565 76 OFFCURVE",
"501 76 CURVE SMOOTH",
"0 76 LINE SMOOTH",
"-21 76 OFFCURVE",
"-39 61 OFFCURVE",
"-39 38 CURVE SMOOTH",
"-39 14 OFFCURVE",
"-21 0 OFFCURVE",
"0 0 CURVE SMOOTH",
"480 0 LINE SMOOTH",
"609 0 OFFCURVE",
"661 50 OFFCURVE",
"661 175 CURVE SMOOTH",
"661 195 OFFCURVE",
"658 225 OFFCURVE",
"655 253 CURVE",
"651 275 LINE"
);
}
);
width = 730;
}
);
},
{
glyphname = uni072E;
lastChange = "2017-09-07 21:15:43 +0000";
layers = (
{
anchors = (
{
name = mark0;
position = "{604, -146}";
}
);
layerId = UUID0;
paths = (
{
closed = 1;
nodes = (
"955 -100 LINE",
"877 -52 OFFCURVE",
"804 -17 OFFCURVE",
"737 5 CURVE SMOOTH",
"670 28 OFFCURVE",
"600 45 OFFCURVE",
"529 57 CURVE SMOOTH",
"458 70 OFFCURVE",
"375 76 OFFCURVE",
"278 76 CURVE SMOOTH",
"246 76 OFFCURVE",
"207 74 OFFCURVE",
"160 71 CURVE SMOOTH",
"114 68 OFFCURVE",
"77 63 OFFCURVE",
"49 58 CURVE",
"63 -12 LINE",
"87 -9 OFFCURVE",
"120 -7 OFFCURVE",
"163 -4 CURVE SMOOTH",
"206 -1 OFFCURVE",
"250 0 OFFCURVE",
"293 0 CURVE SMOOTH",
"440 0 OFFCURVE",
"587 -24 OFFCURVE",
"743 -77 CURVE SMOOTH",
"822 -104 OFFCURVE",
"895 -136 OFFCURVE",
"962 -171 CURVE SMOOTH",
"1029 -206 OFFCURVE",
"1116 -261 OFFCURVE",
"1222 -335 CURVE SMOOTH",
"1278 -375 LINE",
"1324 -316 LINE",
"1228 -253 OFFCURVE",
"1117 -162 OFFCURVE",
"991 -42 CURVE SMOOTH",
"866 78 OFFCURVE",
"736 224 OFFCURVE",
"602 396 CURVE",
"603 400 LINE",
"612 396 OFFCURVE",
"626 394 OFFCURVE",
"639 394 CURVE SMOOTH",
"700 394 OFFCURVE",
"746 439 OFFCURVE",
"746 506 CURVE SMOOTH",
"746 519 OFFCURVE",
"743 534 OFFCURVE",
"737 549 CURVE SMOOTH",
"731 565 OFFCURVE",
"714 593 OFFCURVE",
"687 634 CURVE SMOOTH",
"657 680 LINE",
"592 643 LINE",
"628 590 LINE",
"655 553 OFFCURVE",
"671 529 OFFCURVE",
"671 506 CURVE SMOOTH",
"671 473 OFFCURVE",
"647 452 OFFCURVE",
"610 452 CURVE SMOOTH",
"578 452 OFFCURVE",
"548 465 OFFCURVE",
"531 490 CURVE",
"497 536 LINE",
"427 496 LINE",
"518 368 OFFCURVE",
"612 250 OFFCURVE",
"708 141 CURVE SMOOTH",
"805 32 OFFCURVE",
"888 -47 OFFCURVE",
"958 -97 CURVE"
);
}
);
width = 1091;
}
);
leftKerningGroup = uni0713;
unicode = 072E;
},
{
glyphname = uni072E.Fina;
lastChange = "2017-09-07 21:15:43 +0000";
layers = (
{
anchors = (
{
name = mark0;
position = "{603, -146}";
}
);
layerId = UUID0;
paths = (
{
closed = 1;
nodes = (
"955 -100 LINE",
"877 -52 OFFCURVE",
"804 -17 OFFCURVE",
"737 5 CURVE SMOOTH",
"670 28 OFFCURVE",
"600 45 OFFCURVE",
"529 57 CURVE SMOOTH",
"458 70 OFFCURVE",
"375 76 OFFCURVE",
"278 76 CURVE SMOOTH",
"246 76 OFFCURVE",
"207 74 OFFCURVE",
"160 71 CURVE SMOOTH",
"114 68 OFFCURVE",
"77 63 OFFCURVE",
"49 58 CURVE",
"63 -12 LINE",
"87 -9 OFFCURVE",
"120 -7 OFFCURVE",
"163 -4 CURVE SMOOTH",
"206 -1 OFFCURVE",
"250 0 OFFCURVE",
"293 0 CURVE SMOOTH",
"440 0 OFFCURVE",
"587 -24 OFFCURVE",
"743 -77 CURVE SMOOTH",
"822 -104 OFFCURVE",
"895 -136 OFFCURVE",
"962 -171 CURVE SMOOTH",
"1029 -206 OFFCURVE",
"1116 -261 OFFCURVE",
"1222 -335 CURVE SMOOTH",
"1278 -375 LINE",
"1324 -316 LINE",
"1263 -277 OFFCURVE",
"1198 -226 OFFCURVE",
"1127 -165 CURVE SMOOTH",
"1057 -104 OFFCURVE",
"996 -48 OFFCURVE",
"945 3 CURVE",
"945 76 LINE",
"875 76 LINE",
"774 183 OFFCURVE",
"682 293 OFFCURVE",
"602 396 CURVE",
"603 400 LINE",
"612 396 OFFCURVE",
"626 394 OFFCURVE",
"639 394 CURVE SMOOTH",
"700 394 OFFCURVE",
"746 439 OFFCURVE",
"746 506 CURVE SMOOTH",
"746 519 OFFCURVE",
"743 534 OFFCURVE",
"737 549 CURVE SMOOTH",
"731 565 OFFCURVE",
"714 593 OFFCURVE",
"687 634 CURVE SMOOTH",
"657 680 LINE",
"592 643 LINE",
"628 590 LINE",
"655 553 OFFCURVE",
"671 529 OFFCURVE",
"671 506 CURVE SMOOTH",
"671 473 OFFCURVE",
"647 452 OFFCURVE",
"610 452 CURVE SMOOTH",
"578 452 OFFCURVE",
"548 465 OFFCURVE",
"531 490 CURVE",
"497 536 LINE",
"427 496 LINE",
"518 368 OFFCURVE",
"612 250 OFFCURVE",
"708 141 CURVE SMOOTH",
"805 32 OFFCURVE",
"888 -47 OFFCURVE",
"958 -97 CURVE"
);
}
);
width = 945;
}
);
},
{
glyphname = uni072E.Medi;
lastChange = "2017-09-07 21:15:43 +0000";
layers = (
{
anchors = (
{
name = mark0;
position = "{248, -157}";
}
);
layerId = UUID0;
paths = (
{
closed = 1;
nodes = (
"535 -61 LINE",
"438 -8 OFFCURVE",
"349 28 OFFCURVE",
"270 47 CURVE SMOOTH",
"191 66 OFFCURVE",
"101 76 OFFCURVE",
"0 76 CURVE SMOOTH",
"-21 76 OFFCURVE",
"-39 61 OFFCURVE",
"-39 38 CURVE SMOOTH",
"-39 14 OFFCURVE",
"-21 0 OFFCURVE",
"0 0 CURVE SMOOTH",
"151 0 OFFCURVE",
"282 -25 OFFCURVE",
"399 -69 CURVE SMOOTH",
"518 -114 OFFCURVE",
"619 -174 OFFCURVE",
"750 -266 CURVE SMOOTH",
"870 -351 LINE",
"905 -375 LINE",
"951 -316 LINE",
"839 -243 OFFCURVE",
"704 -126 OFFCURVE",
"571 3 CURVE",
"571 76 LINE",
"501 76 LINE",
"401 183 OFFCURVE",
"309 293 OFFCURVE",
"229 396 CURVE",
"229 400 LINE",
"238 396 OFFCURVE",
"252 394 OFFCURVE",
"265 394 CURVE SMOOTH",
"328 394 OFFCURVE",
"372 439 OFFCURVE",
"372 506 CURVE SMOOTH",
"372 519 OFFCURVE",
"369 534 OFFCURVE",
"363 549 CURVE SMOOTH",
"357 565 OFFCURVE",
"341 593 OFFCURVE",
"314 634 CURVE SMOOTH",
"283 680 LINE",
"219 643 LINE",
"255 590 LINE",
"282 553 OFFCURVE",
"297 529 OFFCURVE",
"297 506 CURVE SMOOTH",
"297 473 OFFCURVE",
"273 452 OFFCURVE",
"236 452 CURVE SMOOTH",
"205 452 OFFCURVE",
"177 463 OFFCURVE",
"157 490 CURVE SMOOTH",
"124 536 LINE",
"54 496 LINE",
"221 261 OFFCURVE",
"385 73 OFFCURVE",
"538 -58 CURVE"
);
}
);
width = 571;
}
);
},
{
glyphname = uni072E.Init;
lastChange = "2017-09-07 21:15:43 +0000";
layers = (
{
anchors = (
{
name = mark0;
position = "{248, -159}";
}
);
layerId = UUID0;
paths = (
{
closed = 1;
nodes = (
"535 -61 LINE",
"438 -8 OFFCURVE",
"349 28 OFFCURVE",
"270 47 CURVE SMOOTH",
"191 66 OFFCURVE",
"101 76 OFFCURVE",
"0 76 CURVE SMOOTH",
"-21 76 OFFCURVE",
"-39 61 OFFCURVE",
"-39 38 CURVE SMOOTH",
"-39 14 OFFCURVE",
"-21 0 OFFCURVE",
"0 0 CURVE SMOOTH",
"151 0 OFFCURVE",
"282 -25 OFFCURVE",
"399 -69 CURVE SMOOTH",
"518 -114 OFFCURVE",
"619 -174 OFFCURVE",
"750 -266 CURVE SMOOTH",
"870 -351 LINE",
"905 -375 LINE",
"951 -316 LINE",
"856 -254 OFFCURVE",
"745 -163 OFFCURVE",
"618 -42 CURVE SMOOTH",
"492 79 OFFCURVE",
"362 225 OFFCURVE",
"229 396 CURVE",
"229 400 LINE",
"238 396 OFFCURVE",
"252 394 OFFCURVE",
"265 394 CURVE SMOOTH",
"328 394 OFFCURVE",
"372 439 OFFCURVE",
"372 506 CURVE SMOOTH",
"372 519 OFFCURVE",
"369 534 OFFCURVE",
"363 549 CURVE SMOOTH",
"357 565 OFFCURVE",
"341 593 OFFCURVE",
"314 634 CURVE SMOOTH",
"283 680 LINE",
"219 643 LINE",
"255 590 LINE",
"282 553 OFFCURVE",
"297 529 OFFCURVE",
"297 506 CURVE SMOOTH",
"297 473 OFFCURVE",
"273 452 OFFCURVE",
"236 452 CURVE SMOOTH",
"205 452 OFFCURVE",
"177 463 OFFCURVE",
"157 490 CURVE SMOOTH",
"124 536 LINE",
"54 496 LINE",
"221 261 OFFCURVE",
"385 73 OFFCURVE",
"538 -58 CURVE"
);
}
);
width = 718;
}
);
leftKerningGroup = uni0713;
},
{
glyphname = uni074D;
lastChange = "2017-09-07 21:15:43 +0000";
layers = (
{
anchors = (
{
name = mark0;
position = "{272, -444}";
}
);
layerId = UUID0;
paths = (
{
closed = 1;
nodes = (
"303 -361 LINE",
"347 -300 OFFCURVE",
"391 -212 OFFCURVE",
"435 -97 CURVE SMOOTH",
"479 18 OFFCURVE",
"506 133 OFFCURVE",
"515 246 CURVE",
"446 246 LINE",
"439 170 OFFCURVE",
"422 86 OFFCURVE",
"395 -5 CURVE SMOOTH",
"368 -96 OFFCURVE",
"332 -185 OFFCURVE",
"285 -270 CURVE",
"222 -110 OFFCURVE",
"176 58 OFFCURVE",
"140 246 CURVE",
"68 246 LINE",
"80 159 OFFCURVE",
"104 54 OFFCURVE",
"140 -69 CURVE SMOOTH",
"177 -192 OFFCURVE",
"211 -290 OFFCURVE",
"244 -361 CURVE"
);
}
);
width = 583;
}
);
rightKerningGroup = uni074D;
unicode = 074D;
},
{
glyphname = uni074D.Fina;
lastChange = "2017-09-07 21:15:43 +0000";
layers = (
{
anchors = (
{
name = mark0;
position = "{272, -444}";
}
);
layerId = UUID0;
paths = (
{
closed = 1;
nodes = (
"303 -361 LINE",
"334 -318 OFFCURVE",
"367 -258 OFFCURVE",
"400 -183 CURVE SMOOTH",
"433 -108 OFFCURVE",
"459 -37 OFFCURVE",
"477 32 CURVE",
"480 32 LINE",
"499 12 OFFCURVE",
"528 0 OFFCURVE",
"583 0 CURVE",
"583 76 LINE",
"561 76 LINE SMOOTH",
"533 76 OFFCURVE",
"504 82 OFFCURVE",
"493 94 CURVE",
"502 141 OFFCURVE",
"511 189 OFFCURVE",
"515 246 CURVE",
"446 246 LINE",
"439 170 OFFCURVE",
"422 86 OFFCURVE",
"395 -5 CURVE SMOOTH",
"368 -96 OFFCURVE",
"332 -185 OFFCURVE",
"285 -270 CURVE",
"222 -110 OFFCURVE",
"176 58 OFFCURVE",
"140 246 CURVE",
"68 246 LINE",
"80 159 OFFCURVE",
"104 54 OFFCURVE",
"140 -69 CURVE SMOOTH",
"177 -192 OFFCURVE",
"211 -290 OFFCURVE",
"244 -361 CURVE"
);
}
);
width = 583;
}
);
rightKerningGroup = uni074D;
},
{
glyphname = uni074E;
lastChange = "2017-09-07 21:15:43 +0000";
layers = (
{
anchors = (
{
name = mark0;
position = "{412, -96}";
}
);
layerId = UUID0;
paths = (
{
closed = 1;
nodes = (
"548 540 LINE SMOOTH",
"528 547 OFFCURVE",
"514 552 OFFCURVE",
"487 556 CURVE",
"470 489 LINE",
"499 482 OFFCURVE",
"519 476 OFFCURVE",
"530 469 CURVE SMOOTH",
"542 462 OFFCURVE",
"554 452 OFFCURVE",
"566 438 CURVE SMOOTH",
"578 424 OFFCURVE",
"591 402 OFFCURVE",
"605 371 CURVE SMOOTH",
"629 315 LINE SMOOTH",
"650 265 OFFCURVE",
"669 217 OFFCURVE",
"686 172 CURVE SMOOTH",
"703 127 OFFCURVE",
"712 95 OFFCURVE",
"715 76 CURVE",
"268 76 LINE SMOOTH",
"218 76 OFFCURVE",
"182 79 OFFCURVE",
"159 86 CURVE SMOOTH",
"136 93 OFFCURVE",
"117 108 OFFCURVE",
"101 131 CURVE",
"49 85 LINE",
"76 24 OFFCURVE",
"133 0 OFFCURVE",
"230 0 CURVE SMOOTH",
"711 0 LINE SMOOTH",
"758 0 OFFCURVE",
"785 29 OFFCURVE",
"785 84 CURVE SMOOTH",
"785 102 OFFCURVE",
"776 135 OFFCURVE",
"759 182 CURVE SMOOTH",
"742 230 OFFCURVE",
"724 277 OFFCURVE",
"705 323 CURVE SMOOTH",
"683 373 LINE SMOOTH",
"668 405 OFFCURVE",
"654 435 OFFCURVE",
"635 456 CURVE",
"636 460 LINE",
"643 457 OFFCURVE",
"651 458 OFFCURVE",
"656 458 CURVE SMOOTH",
"720 458 OFFCURVE",
"759 502 OFFCURVE",
"759 566 CURVE SMOOTH",
"759 581 OFFCURVE",
"756 597 OFFCURVE",
"749 614 CURVE SMOOTH",
"742 631 OFFCURVE",
"727 658 OFFCURVE",
"703 694 CURVE SMOOTH",
"672 740 LINE",
"608 703 LINE",
"644 650 LINE",
"671 613 OFFCURVE",
"687 589 OFFCURVE",
"687 566 CURVE SMOOTH",
"687 533 OFFCURVE",
"665 516 OFFCURVE",
"628 516 CURVE SMOOTH",
"619 516 OFFCURVE",
"596 522 OFFCURVE",
"577 529 CURVE SMOOTH"
);
}
);
width = 843;
}
);
unicode = 074E;
},
{
glyphname = uni074E.Fina;
lastChange = "2017-09-07 21:15:43 +0000";
layers = (
{
anchors = (
{
name = mark0;
position = "{411, -98}";
}
);
layerId = UUID0;
paths = (
{
closed = 1;
nodes = (
"591 0 LINE SMOOTH",
"667 0 OFFCURVE",
"717 21 OFFCURVE",
"744 50 CURVE",
"748 50 LINE",
"772 14 OFFCURVE",
"805 0 OFFCURVE",
"846 0 CURVE",
"846 76 LINE",
"815 76 OFFCURVE",
"796 96 OFFCURVE",
"776 151 CURVE SMOOTH",
"757 204 LINE",
"741 245 OFFCURVE",
"722 292 OFFCURVE",
"699 346 CURVE SMOOTH",
"677 400 OFFCURVE",
"657 437 OFFCURVE",
"640 456 CURVE",
"641 460 LINE",
"648 457 OFFCURVE",
"656 458 OFFCURVE",
"661 458 CURVE SMOOTH",
"724 458 OFFCURVE",
"764 502 OFFCURVE",
"764 566 CURVE SMOOTH",
"764 581 OFFCURVE",
"761 597 OFFCURVE",
"754 614 CURVE SMOOTH",
"747 631 OFFCURVE",
"732 658 OFFCURVE",
"708 694 CURVE SMOOTH",
"677 740 LINE",
"613 703 LINE",
"649 650 LINE",
"676 613 OFFCURVE",
"691 589 OFFCURVE",
"691 566 CURVE SMOOTH",
"691 533 OFFCURVE",
"670 516 OFFCURVE",
"633 516 CURVE SMOOTH",
"624 516 OFFCURVE",
"601 522 OFFCURVE",
"582 529 CURVE SMOOTH",
"553 540 LINE SMOOTH",
"533 547 OFFCURVE",
"519 552 OFFCURVE",
"492 556 CURVE",
"475 489 LINE",
"504 482 OFFCURVE",
"524 475 OFFCURVE",
"536 468 CURVE SMOOTH",
"549 461 OFFCURVE",
"564 446 OFFCURVE",
"583 421 CURVE SMOOTH",
"602 396 OFFCURVE",
"644 295 OFFCURVE",
"711 118 CURVE",
"698 89 OFFCURVE",
"651 76 OFFCURVE",
"602 76 CURVE SMOOTH",
"268 76 LINE SMOOTH",
"218 76 OFFCURVE",
"182 79 OFFCURVE",
"159 86 CURVE SMOOTH",
"136 93 OFFCURVE",
"117 108 OFFCURVE",
"101 131 CURVE",
"49 85 LINE",
"76 24 OFFCURVE",
"133 0 OFFCURVE",
"230 0 CURVE SMOOTH"
);
}
);
width = 846;
}
);
},
{
glyphname = uni074E.Medi;
lastChange = "2017-09-07 21:15:43 +0000";
layers = (
{
anchors = (
{
name = mark0;
position = "{301, -98}";
}
);
layerId = UUID0;
paths = (
{
closed = 1;
nodes = (
"447 89 OFFCURVE",
"400 76 OFFCURVE",
"351 76 CURVE SMOOTH",
"0 76 LINE SMOOTH",
"-21 76 OFFCURVE",
"-39 61 OFFCURVE",
"-39 38 CURVE SMOOTH",
"-39 14 OFFCURVE",
"-21 0 OFFCURVE",
"0 0 CURVE SMOOTH",
"340 0 LINE SMOOTH",
"416 0 OFFCURVE",
"466 21 OFFCURVE",
"493 50 CURVE",
"497 50 LINE",
"521 14 OFFCURVE",
"554 0 OFFCURVE",
"595 0 CURVE",
"595 76 LINE",
"564 76 OFFCURVE",
"545 96 OFFCURVE",
"525 151 CURVE SMOOTH",
"506 204 LINE",
"490 245 OFFCURVE",
"471 292 OFFCURVE",
"448 346 CURVE SMOOTH",
"426 400 OFFCURVE",
"406 437 OFFCURVE",
"389 456 CURVE",
"390 460 LINE",
"397 457 OFFCURVE",
"405 458 OFFCURVE",
"410 458 CURVE SMOOTH",
"474 458 OFFCURVE",
"513 502 OFFCURVE",
"513 566 CURVE SMOOTH",
"513 581 OFFCURVE",
"510 597 OFFCURVE",
"503 614 CURVE SMOOTH",
"496 631 OFFCURVE",
"481 658 OFFCURVE",
"457 694 CURVE SMOOTH",
"426 740 LINE",
"362 703 LINE",
"398 650 LINE",
"425 613 OFFCURVE",
"440 589 OFFCURVE",
"440 566 CURVE SMOOTH",
"440 533 OFFCURVE",
"419 516 OFFCURVE",
"382 516 CURVE SMOOTH",
"373 516 OFFCURVE",
"350 522 OFFCURVE",
"331 529 CURVE SMOOTH",
"302 540 LINE SMOOTH",
"282 547 OFFCURVE",
"268 552 OFFCURVE",
"241 556 CURVE",
"224 489 LINE",
"253 482 OFFCURVE",
"273 475 OFFCURVE",
"285 468 CURVE SMOOTH",
"298 461 OFFCURVE",
"313 446 OFFCURVE",
"332 421 CURVE SMOOTH",
"351 396 OFFCURVE",
"393 295 OFFCURVE",
"460 118 CURVE"
);
}
);
width = 595;
}
);
},
{
glyphname = uni074E.Init;
lastChange = "2017-09-07 21:15:43 +0000";
layers = (
{
anchors = (
{
name = mark0;
position = "{303, -98}";
}
);
layerId = UUID0;
paths = (
{
closed = 1;
nodes = (
"459 0 LINE",
"506 0 OFFCURVE",
"533 29 OFFCURVE",
"533 84 CURVE SMOOTH",
"533 102 OFFCURVE",
"524 135 OFFCURVE",
"507 182 CURVE SMOOTH",
"490 230 OFFCURVE",
"472 277 OFFCURVE",
"453 323 CURVE SMOOTH",
"431 373 LINE SMOOTH",
"416 405 OFFCURVE",
"402 435 OFFCURVE",
"383 456 CURVE",
"384 460 LINE",
"391 457 OFFCURVE",
"399 458 OFFCURVE",
"404 458 CURVE SMOOTH",
"468 458 OFFCURVE",
"507 502 OFFCURVE",
"507 566 CURVE SMOOTH",
"507 581 OFFCURVE",
"504 597 OFFCURVE",
"497 614 CURVE SMOOTH",
"490 631 OFFCURVE",
"475 658 OFFCURVE",
"451 694 CURVE SMOOTH",
"420 740 LINE",
"356 703 LINE",
"392 650 LINE",
"419 613 OFFCURVE",
"435 589 OFFCURVE",
"435 566 CURVE SMOOTH",
"435 533 OFFCURVE",
"413 516 OFFCURVE",
"376 516 CURVE SMOOTH",
"367 516 OFFCURVE",
"344 522 OFFCURVE",
"325 529 CURVE SMOOTH",
"296 540 LINE SMOOTH",
"276 547 OFFCURVE",
"262 552 OFFCURVE",
"235 556 CURVE",
"218 489 LINE",
"247 482 OFFCURVE",
"267 476 OFFCURVE",
"278 469 CURVE SMOOTH",
"290 462 OFFCURVE",
"302 452 OFFCURVE",
"314 438 CURVE SMOOTH",
"326 424 OFFCURVE",
"339 402 OFFCURVE",
"353 371 CURVE SMOOTH",
"377 315 LINE SMOOTH",
"398 265 OFFCURVE",
"417 217 OFFCURVE",
"434 172 CURVE SMOOTH",
"451 127 OFFCURVE",
"460 95 OFFCURVE",
"463 76 CURVE",
"0 76 LINE SMOOTH",
"-21 76 OFFCURVE",
"-39 61 OFFCURVE",
"-39 38 CURVE SMOOTH",
"-39 14 OFFCURVE",
"-21 0 OFFCURVE",
"0 0 CURVE SMOOTH",
"459 0 LINE"
);
}
);
width = 591;
}
);
},
{
glyphname = uni074F;
lastChange = "2017-09-07 21:15:43 +0000";
layers = (
{
anchors = (
{
name = mark0;
position = "{324, -97}";
}
);
layerId = UUID0;
paths = (
{
closed = 1;
nodes = (
"543 0 LINE",
"574 0 OFFCURVE",
"591 24 OFFCURVE",
"591 61 CURVE SMOOTH",
"591 81 OFFCURVE",
"587 104 OFFCURVE",
"580 129 CURVE SMOOTH",
"573 154 OFFCURVE",
"559 199 OFFCURVE",
"537 264 CURVE",
"540 265 LINE",
"546 263 OFFCURVE",
"552 262 OFFCURVE",
"558 262 CURVE SMOOTH",
"609 262 OFFCURVE",
"646 301 OFFCURVE",
"646 357 CURVE SMOOTH",
"646 414 OFFCURVE",
"609 452 OFFCURVE",
"552 452 CURVE SMOOTH",
"525 452 OFFCURVE",
"500 442 OFFCURVE",
"484 421 CURVE",
"480 421 LINE",
"469 453 OFFCURVE",
"456 487 OFFCURVE",
"444 518 CURVE SMOOTH",
"418 586 LINE",
"346 558 LINE",
"349 551 OFFCURVE",
"354 540 OFFCURVE",
"360 524 CURVE SMOOTH",
"382 469 LINE",
"409 399 LINE SMOOTH",
"434 334 OFFCURVE",
"457 268 OFFCURVE",
"480 201 CURVE SMOOTH",
"503 134 OFFCURVE",
"516 93 OFFCURVE",
"518 76 CURVE",
"268 76 LINE SMOOTH",
"218 76 OFFCURVE",
"182 79 OFFCURVE",
"159 86 CURVE SMOOTH",
"136 93 OFFCURVE",
"117 108 OFFCURVE",
"101 131 CURVE",
"49 85 LINE",
"76 24 OFFCURVE",
"133 0 OFFCURVE",
"230 0 CURVE SMOOTH"
);
},
{
closed = 1;
nodes = (
"501 388 OFFCURVE",
"521 407 OFFCURVE",
"550 407 CURVE SMOOTH",
"578 407 OFFCURVE",
"599 388 OFFCURVE",
"599 356 CURVE SMOOTH",
"599 324 OFFCURVE",
"578 305 OFFCURVE",
"550 305 CURVE SMOOTH",
"522 305 OFFCURVE",
"501 324 OFFCURVE",
"501 356 CURVE SMOOTH"
);
}
);
width = 656;
}
);
leftKerningGroup = uni074F;
unicode = 074F;
},
{
glyphname = uni074F.Fina;
lastChange = "2017-09-07 21:15:43 +0000";
layers = (
{
anchors = (
{
name = mark0;
position = "{324, -97}";
}
);
layerId = UUID0;
paths = (
{
closed = 1;
nodes = (
"536 264 LINE",
"540 265 LINE",
"546 263 OFFCURVE",
"552 262 OFFCURVE",
"558 262 CURVE SMOOTH",
"609 262 OFFCURVE",
"646 301 OFFCURVE",
"646 357 CURVE SMOOTH",
"646 414 OFFCURVE",
"610 452 OFFCURVE",
"551 452 CURVE SMOOTH",
"524 452 OFFCURVE",
"500 442 OFFCURVE",
"484 421 CURVE",
"480 421 LINE",
"473 440 OFFCURVE",
"467 458 OFFCURVE",
"460 475 CURVE SMOOTH",
"417 586 LINE",
"346 558 LINE",
"359 527 OFFCURVE",
"385 459 OFFCURVE",
"424 356 CURVE SMOOTH",
"463 253 OFFCURVE",
"491 174 OFFCURVE",
"508 119 CURVE",
"496 91 OFFCURVE",
"452 76 OFFCURVE",
"403 76 CURVE SMOOTH",
"267 76 LINE SMOOTH",
"218 76 OFFCURVE",
"182 79 OFFCURVE",
"159 86 CURVE SMOOTH",
"136 93 OFFCURVE",
"117 108 OFFCURVE",
"101 131 CURVE",
"48 85 LINE",
"76 24 OFFCURVE",
"133 0 OFFCURVE",
"230 0 CURVE SMOOTH",
"392 0 LINE SMOOTH",
"465 0 OFFCURVE",
"516 21 OFFCURVE",
"541 50 CURVE",
"544 50 LINE",
"568 19 OFFCURVE",
"599 0 OFFCURVE",
"652 0 CURVE SMOOTH",
"667 0 LINE",
"667 76 LINE",
"654 76 LINE SMOOTH",
"619 76 OFFCURVE",
"594 100 OFFCURVE",
"575 156 CURVE"
);
},
{
closed = 1;
nodes = (
"501 388 OFFCURVE",
"520 407 OFFCURVE",
"549 407 CURVE SMOOTH",
"577 407 OFFCURVE",
"598 388 OFFCURVE",
"598 356 CURVE SMOOTH",
"598 324 OFFCURVE",
"578 305 OFFCURVE",
"549 305 CURVE SMOOTH",
"522 305 OFFCURVE",
"501 324 OFFCURVE",
"501 356 CURVE SMOOTH"
);
}
);
width = 667;
}
);
},
{
glyphname = uni074F.Medi;
lastChange = "2017-09-07 21:15:43 +0000";
layers = (
{
anchors = (
{
name = mark0;
position = "{191, -98}";
}
);
layerId = UUID0;
paths = (
{
closed = 1;
nodes = (
"220 264 LINE",
"223 265 LINE",
"229 263 OFFCURVE",
"235 262 OFFCURVE",
"241 262 CURVE SMOOTH",
"292 262 OFFCURVE",
"330 301 OFFCURVE",
"330 357 CURVE SMOOTH",
"330 414 OFFCURVE",
"292 452 OFFCURVE",
"235 452 CURVE SMOOTH",
"208 452 OFFCURVE",
"183 442 OFFCURVE",
"167 421 CURVE",
"164 421 LINE",
"144 475 LINE",
"101 586 LINE",
"29 558 LINE",
"43 527 OFFCURVE",
"69 459 OFFCURVE",
"108 356 CURVE SMOOTH",
"147 253 OFFCURVE",
"174 174 OFFCURVE",
"191 119 CURVE",
"179 91 OFFCURVE",
"137 76 OFFCURVE",
"86 76 CURVE SMOOTH",
"0 76 LINE SMOOTH",
"-21 76 OFFCURVE",
"-39 61 OFFCURVE",
"-39 38 CURVE SMOOTH",
"-39 14 OFFCURVE",
"-21 0 OFFCURVE",
"0 0 CURVE SMOOTH",
"76 0 LINE SMOOTH",
"148 0 OFFCURVE",
"200 21 OFFCURVE",
"224 50 CURVE",
"228 50 LINE",
"251 19 OFFCURVE",
"283 0 OFFCURVE",
"335 0 CURVE SMOOTH",
"350 0 LINE",
"350 76 LINE",
"337 76 LINE SMOOTH",
"304 76 OFFCURVE",
"278 100 OFFCURVE",
"258 156 CURVE SMOOTH"
);
},
{
closed = 1;
nodes = (
"185 388 OFFCURVE",
"204 407 OFFCURVE",
"233 407 CURVE SMOOTH",
"261 407 OFFCURVE",
"282 388 OFFCURVE",
"282 356 CURVE SMOOTH",
"282 324 OFFCURVE",
"261 305 OFFCURVE",
"233 305 CURVE SMOOTH",
"205 305 OFFCURVE",
"185 324 OFFCURVE",
"185 356 CURVE SMOOTH"
);
}
);
width = 350;
}
);
},
{
glyphname = uni074F.Init;
lastChange = "2017-09-07 21:15:43 +0000";
layers = (
{
anchors = (
{
name = mark0;
position = "{147, -98}";
}
);
layerId = UUID0;
paths = (
{
closed = 1;
nodes = (
"29 558 LINE",
"32 551 OFFCURVE",
"37 540 OFFCURVE",
"43 524 CURVE SMOOTH",
"65 469 LINE",
"92 399 LINE SMOOTH",
"117 334 OFFCURVE",
"140 268 OFFCURVE",
"163 201 CURVE SMOOTH",
"186 134 OFFCURVE",
"199 93 OFFCURVE",
"201 76 CURVE",
"0 76 LINE SMOOTH",
"-21 76 OFFCURVE",
"-39 61 OFFCURVE",
"-39 38 CURVE SMOOTH",
"-39 14 OFFCURVE",
"-21 0 OFFCURVE",
"0 0 CURVE SMOOTH",
"227 0 LINE SMOOTH",
"258 0 OFFCURVE",
"274 24 OFFCURVE",
"274 61 CURVE SMOOTH",
"274 81 OFFCURVE",
"270 104 OFFCURVE",
"263 129 CURVE SMOOTH",
"256 154 OFFCURVE",
"242 199 OFFCURVE",
"220 264 CURVE",
"223 265 LINE",
"229 263 OFFCURVE",
"235 262 OFFCURVE",
"241 262 CURVE SMOOTH",
"292 262 OFFCURVE",
"330 301 OFFCURVE",
"330 357 CURVE SMOOTH",
"330 414 OFFCURVE",
"292 452 OFFCURVE",
"235 452 CURVE SMOOTH",
"208 452 OFFCURVE",
"183 442 OFFCURVE",
"167 421 CURVE",
"163 421 LINE",
"152 453 OFFCURVE",
"139 487 OFFCURVE",
"127 518 CURVE SMOOTH",
"101 586 LINE"
);
},
{
closed = 1;
nodes = (
"185 388 OFFCURVE",
"204 407 OFFCURVE",
"233 407 CURVE SMOOTH",
"261 407 OFFCURVE",
"282 388 OFFCURVE",
"282 356 CURVE SMOOTH",
"282 324 OFFCURVE",
"261 305 OFFCURVE",
"233 305 CURVE SMOOTH",
"205 305 OFFCURVE",
"185 324 OFFCURVE",
"185 356 CURVE SMOOTH"
);
}
);
width = 339;
}
);
leftKerningGroup = uni074F;
},
{
glyphname = uni0621;
lastChange = "2017-09-07 21:15:43 +0000";
layers = (
{
anchors = (
{
name = mark0;
position = "{229, -98}";
}
);
layerId = UUID0;
paths = (
{
closed = 1;
nodes = (
"290 76 LINE SMOOTH",
"225 76 OFFCURVE",
"193 94 OFFCURVE",
"168 131 CURVE SMOOTH",
"156 150 OFFCURVE",
"150 170 OFFCURVE",
"150 193 CURVE SMOOTH",
"150 258 OFFCURVE",
"197 300 OFFCURVE",
"269 300 CURVE SMOOTH",
"292 300 OFFCURVE",
"318 296 OFFCURVE",
"345 289 CURVE",
"368 348 LINE",
"332 364 OFFCURVE",
"292 367 OFFCURVE",
"261 367 CURVE SMOOTH",
"210 367 OFFCURVE",
"167 351 OFFCURVE",
"131 318 CURVE SMOOTH",
"96 285 OFFCURVE",
"78 243 OFFCURVE",
"78 191 CURVE SMOOTH",
"78 143 OFFCURVE",
"98 101 OFFCURVE",
"139 73 CURVE",
"139 70 LINE",
"44 70 LINE",
"44 7 LINE",
"392 7 LINE",
"392 76 LINE"
);
}
);
width = 462;
}
);
unicode = 0621;
},
{
glyphname = uni0640;
lastChange = "2017-09-07 21:15:43 +0000";
layers = (
{
anchors = (
{
name = mark0;
position = "{186, -98}";
}
);
layerId = UUID0;
paths = (
{
closed = 1;
nodes = (
"379 76 LINE",
"0 76 LINE SMOOTH",
"-21 76 OFFCURVE",
"-39 61 OFFCURVE",
"-39 38 CURVE SMOOTH",
"-39 14 OFFCURVE",
"-21 0 OFFCURVE",
"0 0 CURVE SMOOTH",
"379 0 LINE"
);
}
);
width = 379;
}
);
unicode = 0640;
},
{
glyphname = uni070A;
lastChange = "2017-09-07 21:15:43 +0000";
layers = (
{
layerId = UUID0;
paths = (
{
closed = 1;
nodes = (
"120 486 LINE",
"120 425 LINE",
"459 425 LINE",
"459 486 LINE",
"429 486 LINE SMOOTH",
"400 486 OFFCURVE",
"386 498 OFFCURVE",
"386 525 CURVE SMOOTH",
"386 573 LINE",
"342 573 LINE",
"342 525 LINE SMOOTH",
"342 498 OFFCURVE",
"327 486 OFFCURVE",
"296 486 CURVE SMOOTH",
"283 486 LINE SMOOTH",
"252 486 OFFCURVE",
"237 498 OFFCURVE",
"237 525 CURVE SMOOTH",
"237 573 LINE",
"193 573 LINE",
"193 525 LINE SMOOTH",
"193 498 OFFCURVE",
"179 486 OFFCURVE",
"150 486 CURVE SMOOTH"
);
},
{
closed = 1;
nodes = (
"342 308 OFFCURVE",
"321 329 OFFCURVE",
"290 329 CURVE SMOOTH",
"261 329 OFFCURVE",
"238 312 OFFCURVE",
"238 272 CURVE SMOOTH",
"238 233 OFFCURVE",
"261 215 OFFCURVE",
"290 215 CURVE SMOOTH",
"318 215 OFFCURVE",
"342 233 OFFCURVE",
"342 272 CURVE SMOOTH"
);
},
{
closed = 1;
nodes = (
"342 82 OFFCURVE",
"321 103 OFFCURVE",
"290 103 CURVE SMOOTH",
"261 103 OFFCURVE",
"238 86 OFFCURVE",
"238 46 CURVE SMOOTH",
"238 7 OFFCURVE",
"261 -11 OFFCURVE",
"290 -11 CURVE SMOOTH",
"318 -11 OFFCURVE",
"342 7 OFFCURVE",
"342 46 CURVE SMOOTH"
);
}
);
width = 579;
}
);
unicode = 070A;
},
{
glyphname = uni070B;
lastChange = "2017-09-07 21:15:43 +0000";
layers = (
{
layerId = UUID0;
paths = (
{
closed = 1;
nodes = (
"119 586 LINE",
"804 586 LINE",
"804 647 LINE",
"119 647 LINE"
);
},
{
closed = 1;
nodes = (
"514 485 OFFCURVE",
"493 506 OFFCURVE",
"462 506 CURVE SMOOTH",
"431 506 OFFCURVE",
"410 489 OFFCURVE",
"410 449 CURVE SMOOTH",
"410 410 OFFCURVE",
"431 392 OFFCURVE",
"462 392 CURVE SMOOTH",
"489 392 OFFCURVE",
"514 410 OFFCURVE",
"514 449 CURVE SMOOTH"
);
}
);
width = 923;
}
);
unicode = 070B;
},
{
glyphname = uni070C;
lastChange = "2017-09-07 21:15:43 +0000";
layers = (
{
layerId = UUID0;
paths = (
{
closed = 1;
nodes = (
"423 319 LINE",
"472 314 OFFCURVE",
"518 312 OFFCURVE",
"567 312 CURVE",
"567 363 OFFCURVE",
"565 408 OFFCURVE",
"561 459 CURVE",
"556 459 LINE",
"522 395 LINE",
"163 753 LINE",
"127 719 LINE",
"486 358 LINE",
"423 324 LINE"
);
}
);
width = 694;
}
);
unicode = 070C;
},
{
glyphname = uni070D;
lastChange = "2017-09-07 21:15:43 +0000";
layers = (
{
layerId = UUID0;
paths = (
{
closed = 1;
nodes = (
"354 69 LINE",
"405 69 LINE",
"405 323 LINE",
"648 323 LINE",
"648 374 LINE",
"405 374 LINE",
"405 627 LINE",
"354 627 LINE",
"354 374 LINE",
"110 374 LINE",
"110 323 LINE",
"354 323 LINE"
);
},
{
closed = 1;
nodes = (
"298 506 OFFCURVE",
"279 519 OFFCURVE",
"256 519 CURVE SMOOTH",
"232 519 OFFCURVE",
"214 506 OFFCURVE",
"214 474 CURVE SMOOTH",
"214 442 OFFCURVE",
"232 428 OFFCURVE",
"256 428 CURVE SMOOTH",
"279 428 OFFCURVE",
"298 442 OFFCURVE",
"298 474 CURVE SMOOTH"
);
},
{
closed = 1;
nodes = (
"544 506 OFFCURVE",
"525 519 OFFCURVE",
"502 519 CURVE SMOOTH",
"478 519 OFFCURVE",
"460 506 OFFCURVE",
"460 474 CURVE SMOOTH",
"460 442 OFFCURVE",
"478 428 OFFCURVE",
"502 428 CURVE SMOOTH",
"525 428 OFFCURVE",
"544 442 OFFCURVE",
"544 474 CURVE SMOOTH"
);
},
{
closed = 1;
nodes = (
"544 256 OFFCURVE",
"525 269 OFFCURVE",
"502 269 CURVE SMOOTH",
"478 269 OFFCURVE",
"460 256 OFFCURVE",
"460 224 CURVE SMOOTH",
"460 192 OFFCURVE",
"478 178 OFFCURVE",
"502 178 CURVE SMOOTH",
"525 178 OFFCURVE",
"544 192 OFFCURVE",
"544 224 CURVE SMOOTH"
);
},
{
closed = 1;
nodes = (
"298 256 OFFCURVE",
"279 269 OFFCURVE",
"256 269 CURVE SMOOTH",
"232 269 OFFCURVE",
"214 256 OFFCURVE",
"214 224 CURVE SMOOTH",
"214 192 OFFCURVE",
"232 178 OFFCURVE",
"256 178 CURVE SMOOTH",
"279 178 OFFCURVE",
"298 192 OFFCURVE",
"298 224 CURVE SMOOTH"
);
}
);
width = 758;
}
);
unicode = 070D;
},
{
glyphname = uni070F;
lastChange = "2017-09-07 21:15:43 +0000";
layers = (
{
layerId = UUID0;
paths = (
{
closed = 1;
nodes = (
"24 -90 LINE",
"24 779 LINE",
"97 779 LINE",
"97 813 LINE",
"-86 813 LINE",
"-86 779 LINE",
"-13 779 LINE",
"-13 -90 LINE"
);
}
);
width = 0;
}
);
unicode = 070F;
},
{
glyphname = uni0730;
lastChange = "2017-09-07 21:15:43 +0000";
layers = (
{
anchors = (
{
name = _mark0;
position = "{0, 542}";
}
);
layerId = UUID0;
paths = (
{
closed = 1;
nodes = (
"61 724 LINE",
"-87 736 LINE",
"-89 585 LINE",
"-119 559 LINE",
"-95 533 LINE",
"112 723 LINE",
"88 749 LINE"
);
},
{
closed = 1;
nodes = (
"26 692 LINE",
"-56 617 LINE",
"-53 697 LINE"
);
}
);
width = 0;
}
);
unicode = 0730;
},
{
glyphname = uni0731;
lastChange = "2017-09-07 21:15:43 +0000";
layers = (
{
anchors = (
{
name = _mark0;
position = "{0, 0}";
}
);
layerId = UUID0;
paths = (
{
closed = 1;
nodes = (
"-61 -183 LINE",
"87 -194 LINE",
"89 -43 LINE",
"119 -17 LINE",
"94 9 LINE",
"-112 -182 LINE",
"-88 -208 LINE"
);
},
{
closed = 1;
nodes = (
"-26 -150 LINE",
"56 -75 LINE",
"53 -155 LINE"
);
}
);
width = 0;
}
);
unicode = 0731;
},
{
glyphname = uni0733;
lastChange = "2017-09-07 21:15:43 +0000";
layers = (
{
anchors = (
{
name = _mark0;
position = "{0, 542}";
}
);
layerId = UUID0;
paths = (
{
closed = 1;
nodes = (
"78 726 OFFCURVE",
"55 753 OFFCURVE",
"15 753 CURVE SMOOTH",
"-33 753 OFFCURVE",
"-60 714 OFFCURVE",
"-60 665 CURVE SMOOTH",
"-60 638 OFFCURVE",
"-54 616 OFFCURVE",
"-42 591 CURVE",
"-54 582 OFFCURVE",
"-70 572 OFFCURVE",
"-87 559 CURVE",
"-66 531 LINE",
"-6 572 OFFCURVE",
"33 604 OFFCURVE",
"51 625 CURVE SMOOTH",
"69 647 OFFCURVE",
"78 669 OFFCURVE",
"78 691 CURVE SMOOTH"
);
},
{
closed = 1;
nodes = (
"29 717 OFFCURVE",
"41 706 OFFCURVE",
"41 687 CURVE SMOOTH",
"41 663 OFFCURVE",
"20 639 OFFCURVE",
"-11 615 CURVE",
"-19 628 OFFCURVE",
"-24 645 OFFCURVE",
"-24 665 CURVE SMOOTH",
"-24 694 OFFCURVE",
"-11 717 OFFCURVE",
"13 717 CURVE SMOOTH"
);
}
);
width = 0;
}
);
unicode = 0733;
},
{
glyphname = uni0734;
lastChange = "2017-09-07 21:15:43 +0000";
layers = (
{
anchors = (
{
name = _mark0;
position = "{0, 0}";
}
);
layerId = UUID0;
paths = (
{
closed = 1;
nodes = (
"-78 -187 OFFCURVE",
"-54 -214 OFFCURVE",
"-14 -214 CURVE SMOOTH",
"33 -214 OFFCURVE",
"61 -177 OFFCURVE",
"61 -125 CURVE SMOOTH",
"61 -100 OFFCURVE",
"55 -77 OFFCURVE",
"43 -52 CURVE",
"88 -20 LINE",
"67 9 LINE",
"9 -31 OFFCURVE",
"-30 -62 OFFCURVE",
"-49 -84 CURVE SMOOTH",
"-68 -106 OFFCURVE",
"-78 -129 OFFCURVE",
"-78 -152 CURVE SMOOTH"
);
},
{
closed = 1;
nodes = (
"-3 -88 LINE",
"12 -75 LINE",
"20 -88 OFFCURVE",
"25 -106 OFFCURVE",
"25 -125 CURVE SMOOTH",
"25 -154 OFFCURVE",
"12 -177 OFFCURVE",
"-12 -177 CURVE SMOOTH",
"-29 -177 OFFCURVE",
"-40 -167 OFFCURVE",
"-40 -148 CURVE SMOOTH",
"-40 -135 OFFCURVE",
"-34 -119 OFFCURVE",
"-17 -102 CURVE SMOOTH"
);
}
);
width = 0;
}
);
unicode = 0734;
},
{
glyphname = uni0735;
lastChange = "2017-09-07 21:15:43 +0000";
layers = (
{
anchors = (
{
name = _mark0;
position = "{0, 542}";
}
);
layerId = UUID0;
paths = (
{
closed = 1;
nodes = (
"61 639 OFFCURVE",
"53 650 OFFCURVE",
"38 650 CURVE SMOOTH",
"25 650 OFFCURVE",
"11 639 OFFCURVE",
"-5 618 CURVE SMOOTH",
"-21 597 OFFCURVE",
"-29 581 OFFCURVE",
"-29 568 CURVE SMOOTH",
"-29 556 OFFCURVE",
"-22 545 OFFCURVE",
"-6 545 CURVE SMOOTH",
"7 545 OFFCURVE",
"21 555 OFFCURVE",
"37 576 CURVE SMOOTH",
"53 597 OFFCURVE",
"61 614 OFFCURVE",
"61 627 CURVE SMOOTH"
);
},
{
closed = 1;
nodes = (
"32 759 OFFCURVE",
"24 770 OFFCURVE",
"9 770 CURVE SMOOTH",
"-4 770 OFFCURVE",
"-19 759 OFFCURVE",
"-35 738 CURVE SMOOTH",
"-51 717 OFFCURVE",
"-59 701 OFFCURVE",
"-59 688 CURVE SMOOTH",
"-59 676 OFFCURVE",
"-51 666 OFFCURVE",
"-36 666 CURVE SMOOTH",
"-23 666 OFFCURVE",
"-9 676 OFFCURVE",
"7 697 CURVE SMOOTH",
"24 718 OFFCURVE",
"32 735 OFFCURVE",
"32 747 CURVE SMOOTH"
);
}
);
width = 0;
}
);
unicode = 0735;
},
{
glyphname = uni0736;
lastChange = "2017-09-07 21:15:43 +0000";
layers = (
{
anchors = (
{
name = _mark0;
position = "{0, 542}";
}
);
layerId = UUID0;
paths = (
{
closed = 1;
nodes = (
"-86 595 LINE",
"-61 651 OFFCURVE",
"-35 673 OFFCURVE",
"1 673 CURVE SMOOTH",
"9 673 LINE",
"-29 574 LINE",
"6 562 LINE",
"43 662 LINE",
"64 650 OFFCURVE",
"74 628 OFFCURVE",
"74 585 CURVE SMOOTH",
"74 577 OFFCURVE",
"72 559 OFFCURVE",
"69 548 CURVE",
"105 540 LINE",
"108 553 OFFCURVE",
"111 572 OFFCURVE",
"111 589 CURVE SMOOTH",
"111 674 OFFCURVE",
"66 707 OFFCURVE",
"3 707 CURVE SMOOTH",
"-50 707 OFFCURVE",
"-89 679 OFFCURVE",
"-121 607 CURVE"
);
}
);
width = 0;
}
);
unicode = 0736;
},
{
glyphname = uni0737;
lastChange = "2017-09-07 21:15:43 +0000";
layers = (
{
anchors = (
{
name = _mark0;
position = "{0, 0}";
}
);
layerId = UUID0;
paths = (
{
closed = 1;
nodes = (
"86 -53 LINE",
"62 -105 OFFCURVE",
"39 -132 OFFCURVE",
"-1 -132 CURVE",
"-9 -131 LINE",
"29 -32 LINE",
"-6 -21 LINE",
"-43 -121 LINE",
"-64 -109 OFFCURVE",
"-74 -87 OFFCURVE",
"-74 -44 CURVE SMOOTH",
"-74 -35 OFFCURVE",
"-72 -18 OFFCURVE",
"-69 -7 CURVE",
"-105 1 LINE",
"-108 -12 OFFCURVE",
"-111 -31 OFFCURVE",
"-111 -47 CURVE SMOOTH",
"-111 -132 OFFCURVE",
"-66 -166 OFFCURVE",
"-3 -166 CURVE SMOOTH",
"50 -166 OFFCURVE",
"89 -138 OFFCURVE",
"121 -66 CURVE"
);
}
);
width = 0;
}
);
unicode = 0737;
},
{
glyphname = uni073A;
lastChange = "2017-09-07 21:15:43 +0000";
layers = (
{
anchors = (
{
name = _mark0;
position = "{0, 542}";
}
);
layerId = UUID0;
paths = (
{
closed = 1;
nodes = (
"26 635 LINE",
"-5 670 LINE",
"57 724 LINE",
"33 749 LINE",
"-117 619 LINE",
"-93 594 LINE",
"-32 647 LINE",
"0 612 LINE",
"-63 558 LINE",
"-40 533 LINE",
"110 663 LINE",
"87 687 LINE"
);
}
);
width = 0;
}
);
unicode = 073A;
},
{
glyphname = uni073B;
lastChange = "2017-09-07 21:15:43 +0000";
layers = (
{
anchors = (
{
name = _mark0;
position = "{0, 0}";
}
);
layerId = UUID0;
paths = (
{
closed = 1;
nodes = (
"-26 -93 LINE",
"5 -129 LINE",
"-57 -183 LINE",
"-33 -208 LINE",
"117 -78 LINE",
"93 -52 LINE",
"32 -105 LINE",
"0 -70 LINE",
"62 -17 LINE",
"40 9 LINE",
"-110 -122 LINE",
"-87 -146 LINE"
);
}
);
width = 0;
}
);
unicode = 073B;
},
{
glyphname = uni073D;
lastChange = "2017-09-07 21:15:43 +0000";
layers = (
{
anchors = (
{
name = _mark0;
position = "{0, 542}";
}
);
layerId = UUID0;
paths = (
{
closed = 1;
nodes = (
"22 687 LINE",
"70 741 LINE",
"42 762 LINE",
"-104 598 LINE",
"-77 576 LINE",
"-2 660 LINE",
"77 573 LINE",
"104 599 LINE"
);
},
{
closed = 1;
nodes = (
"29 599 OFFCURVE",
"15 608 OFFCURVE",
"-1 608 CURVE SMOOTH",
"-18 608 OFFCURVE",
"-31 599 OFFCURVE",
"-31 576 CURVE SMOOTH",
"-31 552 OFFCURVE",
"-18 542 OFFCURVE",
"-1 542 CURVE SMOOTH",
"15 542 OFFCURVE",
"29 552 OFFCURVE",
"29 576 CURVE SMOOTH"
);
}
);
width = 0;
}
);
unicode = 073D;
},
{
glyphname = uni073E;
lastChange = "2017-09-07 21:15:43 +0000";
layers = (
{
anchors = (
{
name = _mark0;
position = "{0, 0}";
}
);
layerId = UUID0;
paths = (
{
closed = 1;
nodes = (
"-23 -146 LINE",
"-70 -199 LINE",
"-42 -221 LINE",
"104 -57 LINE",
"78 -35 LINE",
"2 -118 LINE",
"-77 -32 LINE",
"-104 -57 LINE"
);
},
{
closed = 1;
nodes = (
"-29 -57 OFFCURVE",
"-15 -67 OFFCURVE",
"1 -67 CURVE SMOOTH",
"18 -67 OFFCURVE",
"31 -57 OFFCURVE",
"31 -34 CURVE SMOOTH",
"31 -11 OFFCURVE",
"18 0 OFFCURVE",
"1 0 CURVE SMOOTH",
"-15 0 OFFCURVE",
"-29 -11 OFFCURVE",
"-29 -34 CURVE SMOOTH"
);
}
);
width = 0;
}
);
unicode = 073E;
},
{
glyphname = uni0747;
lastChange = "2017-09-07 21:15:43 +0000";
layers = (
{
anchors = (
{
name = _mark0;
position = "{0, 542}";
}
);
layerId = UUID0;
paths = (
{
closed = 1;
nodes = (
"-113 554 LINE",
"-84 524 LINE",
"102 679 LINE",
"74 709 LINE"
);
}
);
width = 0;
}
);
unicode = 0747;
},
{
glyphname = uni0748;
lastChange = "2017-09-07 21:15:43 +0000";
layers = (
{
anchors = (
{
name = _mark0;
position = "{0, 0}";
}
);
layerId = UUID0;
paths = (
{
closed = 1;
nodes = (
"73 -168 LINE",
"102 -138 LINE",
"-84 18 LINE",
"-113 -13 LINE"
);
}
);
width = 0;
}
);
unicode = 0748;
},
{
glyphname = uni0749;
lastChange = "2017-09-07 21:15:43 +0000";
layers = (
{
anchors = (
{
name = _mark0;
position = "{0, 542}";
}
);
layerId = UUID0;
paths = (
{
closed = 1;
nodes = (
"-92 729 LINE",
"-159 769 LINE",
"-172 747 LINE",
"-104 708 LINE",
"-135 656 LINE",
"-115 644 LINE",
"-84 696 LINE",
"-61 682 LINE",
"-91 630 LINE",
"-71 619 LINE",
"-41 670 LINE",
"-17 657 LINE",
"-46 604 LINE",
"-26 593 LINE",
"4 645 LINE",
"27 631 LINE",
"-2 580 LINE",
"18 568 LINE",
"48 620 LINE",
"71 606 LINE",
"42 554 LINE",
"62 542 LINE",
"92 594 LINE",
"163 553 LINE",
"176 574 LINE",
"104 616 LINE",
"133 666 LINE",
"113 677 LINE",
"84 628 LINE",
"61 642 LINE",
"89 690 LINE",
"69 703 LINE",
"41 653 LINE",
"17 667 LINE",
"45 716 LINE",
"25 728 LINE",
"-3 679 LINE",
"-27 692 LINE",
"1 741 LINE",
"-20 753 LINE",
"-48 704 LINE",
"-71 718 LINE",
"-43 767 LINE",
"-64 778 LINE"
);
}
);
width = 0;
}
);
unicode = 0749;
},
{
glyphname = uni074A;
lastChange = "2017-09-07 21:15:43 +0000";
layers = (
{
anchors = (
{
name = _mark0;
position = "{0, 542}";
}
);
layerId = UUID0;
paths = (
{
closed = 1;
nodes = (
"-12 542 LINE",
"12 542 LINE",
"12 655 LINE",
"121 655 LINE",
"121 679 LINE",
"12 679 LINE",
"12 792 LINE",
"-12 792 LINE",
"-12 679 LINE",
"-122 679 LINE",
"-122 655 LINE",
"-12 655 LINE"
);
},
{
closed = 1;
nodes = (
"-37 738 OFFCURVE",
"-45 744 OFFCURVE",
"-56 744 CURVE SMOOTH",
"-67 744 OFFCURVE",
"-74 738 OFFCURVE",
"-74 723 CURVE SMOOTH",
"-74 710 OFFCURVE",
"-67 703 OFFCURVE",
"-56 703 CURVE SMOOTH",
"-45 703 OFFCURVE",
"-37 710 OFFCURVE",
"-37 723 CURVE SMOOTH"
);
},
{
closed = 1;
nodes = (
"74 738 OFFCURVE",
"64 744 OFFCURVE",
"56 744 CURVE SMOOTH",
"44 744 OFFCURVE",
"36 738 OFFCURVE",
"36 723 CURVE SMOOTH",
"36 710 OFFCURVE",
"44 703 OFFCURVE",
"56 703 CURVE SMOOTH",
"64 703 OFFCURVE",
"74 710 OFFCURVE",
"74 723 CURVE SMOOTH"
);
},
{
closed = 1;
nodes = (
"74 626 OFFCURVE",
"64 631 OFFCURVE",
"56 631 CURVE SMOOTH",
"44 631 OFFCURVE",
"36 626 OFFCURVE",
"36 611 CURVE SMOOTH",
"36 598 OFFCURVE",
"44 590 OFFCURVE",
"56 590 CURVE SMOOTH",
"64 590 OFFCURVE",
"74 598 OFFCURVE",
"74 611 CURVE SMOOTH"
);
},
{
closed = 1;
nodes = (
"-37 626 OFFCURVE",
"-45 631 OFFCURVE",
"-56 631 CURVE SMOOTH",
"-67 631 OFFCURVE",
"-74 626 OFFCURVE",
"-74 611 CURVE SMOOTH",
"-74 598 OFFCURVE",
"-67 590 OFFCURVE",
"-56 590 CURVE SMOOTH",
"-45 590 OFFCURVE",
"-37 598 OFFCURVE",
"-37 611 CURVE SMOOTH"
);
}
);
width = 0;
}
);
unicode = 074A;
},
{
glyphname = uni0303;
lastChange = "2017-09-07 21:15:43 +0000";
layers = (
{
anchors = (
{
name = _mark0;
position = "{0, 542}";
}
);
layerId = UUID0;
paths = (
{
closed = 1;
nodes = (
"94 629 LINE",
"89 600 OFFCURVE",
"80 588 OFFCURVE",
"57 588 CURVE SMOOTH",
"46 588 OFFCURVE",
"30 595 OFFCURVE",
"7 609 CURVE SMOOTH",
"-16 623 OFFCURVE",
"-36 630 OFFCURVE",
"-53 630 CURVE SMOOTH",
"-97 630 OFFCURVE",
"-125 598 OFFCURVE",
"-130 542 CURVE",
"-93 542 LINE",
"-89 570 OFFCURVE",
"-79 583 OFFCURVE",
"-56 583 CURVE SMOOTH",
"-44 583 OFFCURVE",
"-27 576 OFFCURVE",
"-4 562 CURVE SMOOTH",
"19 548 OFFCURVE",
"38 541 OFFCURVE",
"54 541 CURVE SMOOTH",
"98 541 OFFCURVE",
"126 572 OFFCURVE",
"131 629 CURVE",
"94 629 LINE"
);
}
);
width = 0;
}
);
unicode = 0303;
},
{
glyphname = uni0304;
lastChange = "2017-09-07 21:15:43 +0000";
layers = (
{
anchors = (
{
name = _mark0;
position = "{0, 542}";
}
);
layerId = UUID0;
paths = (
{
closed = 1;
nodes = (
"-127 550 LINE",
"127 550 LINE",
"127 596 LINE",
"-127 596 LINE"
);
}
);
width = 0;
}
);
unicode = 0304;
},
{
glyphname = uni030A;
lastChange = "2017-09-07 21:15:43 +0000";
layers = (
{
anchors = (
{
name = _mark0;
position = "{0, 542}";
}
);
layerId = UUID0;
paths = (
{
closed = 1;
nodes = (
"-64 571 OFFCURVE",
"-37 547 OFFCURVE",
"0 547 CURVE SMOOTH",
"36 547 OFFCURVE",
"64 573 OFFCURVE",
"64 613 CURVE SMOOTH",
"64 653 OFFCURVE",
"37 675 OFFCURVE",
"0 675 CURVE SMOOTH",
"-37 675 OFFCURVE",
"-64 649 OFFCURVE",
"-64 610 CURVE SMOOTH"
);
},
{
closed = 1;
nodes = (
"32 590 OFFCURVE",
"19 577 OFFCURVE",
"0 577 CURVE SMOOTH",
"-19 577 OFFCURVE",
"-33 590 OFFCURVE",
"-33 611 CURVE SMOOTH",
"-33 632 OFFCURVE",
"-19 646 OFFCURVE",
"0 646 CURVE SMOOTH",
"19 646 OFFCURVE",
"32 632 OFFCURVE",
"32 611 CURVE SMOOTH"
);
}
);
width = 0;
}
);
unicode = 030A;
},
{
glyphname = uni0325;
lastChange = "2017-09-07 21:15:43 +0000";
layers = (
{
anchors = (
{
name = _mark0;
position = "{0, 0}";
}
);
layerId = UUID0;
paths = (
{
closed = 1;
nodes = (
"64 -30 OFFCURVE",
"37 -6 OFFCURVE",
"0 -6 CURVE SMOOTH",
"-36 -6 OFFCURVE",
"-64 -32 OFFCURVE",
"-64 -71 CURVE SMOOTH",
"-64 -112 OFFCURVE",
"-37 -134 OFFCURVE",
"0 -134 CURVE SMOOTH",
"37 -134 OFFCURVE",
"64 -106 OFFCURVE",
"64 -69 CURVE SMOOTH"
);
},
{
closed = 1;
nodes = (
"-32 -49 OFFCURVE",
"-19 -36 OFFCURVE",
"0 -36 CURVE SMOOTH",
"19 -36 OFFCURVE",
"33 -49 OFFCURVE",
"33 -70 CURVE SMOOTH",
"33 -91 OFFCURVE",
"19 -104 OFFCURVE",
"0 -104 CURVE SMOOTH",
"-19 -104 OFFCURVE",
"-32 -91 OFFCURVE",
"-32 -70 CURVE SMOOTH"
);
}
);
width = 0;
}
);
unicode = 0325;
},
{
glyphname = uni032D;
lastChange = "2017-09-07 21:15:43 +0000";
layers = (
{
anchors = (
{
name = _mark0;
position = "{0, 0}";
}
);
layerId = UUID0;
paths = (
{
closed = 1;
nodes = (
"-120 -100 LINE",
"-75 -100 LINE",
"-39 -71 LINE",
"-1 -41 LINE",
"36 -72 LINE SMOOTH",
"48 -83 OFFCURVE",
"59 -92 OFFCURVE",
"69 -100 CURVE",
"120 -100 LINE",
"120 -96 LINE",
"95 -73 LINE",
"70 -48 OFFCURVE",
"42 -21 OFFCURVE",
"22 0 CURVE",
"-21 0 LINE",
"-43 -22 LINE",
"-69 -48 LINE",
"-95 -73 LINE",
"-120 -96 LINE"
);
}
);
width = 0;
}
);
unicode = 032D;
},
{
glyphname = uni032E;
lastChange = "2017-09-07 21:15:43 +0000";
layers = (
{
anchors = (
{
name = _mark0;
position = "{0, 0}";
}
);
layerId = UUID0;
paths = (
{
closed = 1;
nodes = (
"89 49 LINE",
"82 12 OFFCURVE",
"51 -14 OFFCURVE",
"0 -14 CURVE SMOOTH",
"-49 -14 OFFCURVE",
"-79 8 OFFCURVE",
"-88 49 CURVE",
"-126 49 LINE",
"-123 -20 OFFCURVE",
"-75 -61 OFFCURVE",
"-2 -61 CURVE SMOOTH",
"70 -61 OFFCURVE",
"123 -16 OFFCURVE",
"128 49 CURVE",
"89 49 LINE"
);
}
);
width = 0;
}
);
unicode = 032E;
},
{
glyphname = uni0330;
lastChange = "2017-09-07 21:15:43 +0000";
layers = (
{
anchors = (
{
name = _mark0;
position = "{0, 0}";
}
);
layerId = UUID0;
paths = (
{
closed = 1;
nodes = (
"-95 -88 LINE",
"-90 -59 OFFCURVE",
"-80 -47 OFFCURVE",
"-57 -47 CURVE SMOOTH",
"-46 -47 OFFCURVE",
"-29 -54 OFFCURVE",
"-6 -68 CURVE SMOOTH",
"16 -82 OFFCURVE",
"36 -89 OFFCURVE",
"53 -89 CURVE SMOOTH",
"97 -89 OFFCURVE",
"125 -57 OFFCURVE",
"130 0 CURVE",
"93 0 LINE",
"89 -29 OFFCURVE",
"79 -41 OFFCURVE",
"56 -41 CURVE SMOOTH",
"44 -41 OFFCURVE",
"27 -34 OFFCURVE",
"4 -20 CURVE SMOOTH",
"-19 -6 OFFCURVE",
"-38 1 OFFCURVE",
"-54 1 CURVE SMOOTH",
"-98 1 OFFCURVE",
"-126 -31 OFFCURVE",
"-131 -88 CURVE",
"-95 -88 LINE"
);
}
);
width = 0;
}
);
unicode = 0330;
},
{
glyphname = uni0331;
lastChange = "2017-09-07 21:15:43 +0000";
layers = (
{
anchors = (
{
name = _mark0;
position = "{0, 0}";
}
);
layerId = UUID0;
paths = (
{
closed = 1;
nodes = (
"127 -9 LINE",
"-127 -9 LINE",
"-127 -52 LINE",
"127 -52 LINE"
);
}
);
width = 0;
}
);
unicode = 0331;
},
{
glyphname = uni064B;
lastChange = "2017-09-07 21:15:43 +0000";
layers = (
{
anchors = (
{
name = _mark0;
position = "{0, 542}";
}
);
layerId = UUID0;
paths = (
{
closed = 1;
nodes = (
"-92 572 LINE",
"-91 538 LINE",
"93 607 LINE",
"92 642 LINE"
);
},
{
closed = 1;
nodes = (
"-98 648 LINE",
"-96 613 LINE",
"88 683 LINE",
"86 718 LINE"
);
}
);
width = 0;
}
);
unicode = 064B;
},
{
glyphname = uni064C;
lastChange = "2017-09-07 21:15:43 +0000";
layers = (
{
anchors = (
{
name = _mark0;
position = "{0, 542}";
}
);
layerId = UUID0;
paths = (
{
closed = 1;
nodes = (
"-64 582 LINE",
"-60 590 OFFCURVE",
"-59 600 OFFCURVE",
"-59 607 CURVE SMOOTH",
"-59 640 OFFCURVE",
"-83 659 OFFCURVE",
"-116 659 CURVE",
"-115 625 LINE",
"-98 625 OFFCURVE",
"-89 611 OFFCURVE",
"-89 598 CURVE SMOOTH",
"-89 587 OFFCURVE",
"-91 579 OFFCURVE",
"-98 570 CURVE",
"-95 537 LINE",
"-40 558 LINE SMOOTH",
"11 577 OFFCURVE",
"46 593 OFFCURVE",
"64 606 CURVE SMOOTH",
"83 620 OFFCURVE",
"92 639 OFFCURVE",
"92 662 CURVE SMOOTH",
"92 694 OFFCURVE",
"67 717 OFFCURVE",
"36 717 CURVE SMOOTH",
"1 717 OFFCURVE",
"-27 690 OFFCURVE",
"-27 655 CURVE SMOOTH",
"-27 635 OFFCURVE",
"-18 618 OFFCURVE",
"-5 607 CURVE",
"-33 595 LINE"
);
},
{
closed = 1;
nodes = (
"26 621 LINE",
"14 628 OFFCURVE",
"5 640 OFFCURVE",
"5 655 CURVE SMOOTH",
"5 671 OFFCURVE",
"18 682 OFFCURVE",
"33 682 CURVE SMOOTH",
"48 682 OFFCURVE",
"59 672 OFFCURVE",
"59 657 CURVE SMOOTH",
"59 641 OFFCURVE",
"46 628 OFFCURVE",
"30 623 CURVE SMOOTH"
);
}
);
width = 0;
}
);
unicode = 064C;
},
{
glyphname = uni064D;
lastChange = "2017-09-07 21:15:43 +0000";
layers = (
{
anchors = (
{
name = _mark0;
position = "{0, 0}";
}
);
layerId = UUID0;
paths = (
{
closed = 1;
nodes = (
"-92 -140 LINE",
"-91 -175 LINE",
"93 -105 LINE",
"92 -71 LINE"
);
},
{
closed = 1;
nodes = (
"-98 -64 LINE",
"-96 -99 LINE",
"88 -30 LINE",
"86 5 LINE"
);
}
);
width = 0;
}
);
unicode = 064D;
},
{
glyphname = uni064E;
lastChange = "2017-09-07 21:15:43 +0000";
layers = (
{
anchors = (
{
name = _mark0;
position = "{0, 542}";
}
);
layerId = UUID0;
paths = (
{
closed = 1;
nodes = (
"-92 572 LINE",
"-91 538 LINE",
"93 607 LINE",
"92 642 LINE"
);
}
);
width = 0;
}
);
unicode = 064E;
},
{
glyphname = uni064F;
lastChange = "2017-09-07 21:15:43 +0000";
layers = (
{
anchors = (
{
name = _mark0;
position = "{0, 542}";
}
);
layerId = UUID0;
paths = (
{
closed = 1;
nodes = (
"-94 538 LINE",
"-17 565 OFFCURVE",
"33 585 OFFCURVE",
"56 600 CURVE SMOOTH",
"79 615 OFFCURVE",
"90 635 OFFCURVE",
"90 660 CURVE SMOOTH",
"90 692 OFFCURVE",
"63 715 OFFCURVE",
"31 715 CURVE SMOOTH",
"-4 715 OFFCURVE",
"-34 687 OFFCURVE",
"-34 652 CURVE SMOOTH",
"-34 629 OFFCURVE",
"-23 616 OFFCURVE",
"-10 605 CURVE",
"-32 597 LINE",
"-77 580 LINE",
"-95 573 LINE"
);
},
{
closed = 1;
nodes = (
"22 619 LINE",
"9 626 OFFCURVE",
"0 637 OFFCURVE",
"0 652 CURVE SMOOTH",
"0 669 OFFCURVE",
"13 679 OFFCURVE",
"29 679 CURVE SMOOTH",
"48 679 OFFCURVE",
"57 668 OFFCURVE",
"57 655 CURVE SMOOTH",
"57 640 OFFCURVE",
"46 629 OFFCURVE",
"25 620 CURVE SMOOTH"
);
}
);
width = 0;
}
);
unicode = 064F;
},
{
glyphname = uni0650;
lastChange = "2017-09-07 21:15:43 +0000";
layers = (
{
anchors = (
{
name = _mark0;
position = "{0, 0}";
}
);
layerId = UUID0;
paths = (
{
closed = 1;
nodes = (
"-98 -64 LINE",
"-96 -99 LINE",
"88 -30 LINE",
"86 5 LINE"
);
}
);
width = 0;
}
);
unicode = 0650;
},
{
glyphname = uni0651;
lastChange = "2017-09-07 21:15:43 +0000";
layers = (
{
anchors = (
{
name = _mark0;
position = "{0, 542}";
}
);
layerId = UUID0;
paths = (
{
closed = 1;
nodes = (
"1 582 OFFCURVE",
"16 576 OFFCURVE",
"32 576 CURVE SMOOTH",
"63 576 OFFCURVE",
"85 598 OFFCURVE",
"85 637 CURVE SMOOTH",
"85 657 OFFCURVE",
"77 676 OFFCURVE",
"64 688 CURVE",
"35 677 LINE",
"43 668 OFFCURVE",
"54 654 OFFCURVE",
"54 637 CURVE SMOOTH",
"54 622 OFFCURVE",
"47 610 OFFCURVE",
"30 610 CURVE SMOOTH",
"15 610 OFFCURVE",
"4 620 OFFCURVE",
"-7 657 CURVE",
"-38 645 LINE",
"-34 636 OFFCURVE",
"-32 624 OFFCURVE",
"-32 612 CURVE SMOOTH",
"-32 595 OFFCURVE",
"-38 578 OFFCURVE",
"-59 578 CURVE SMOOTH",
"-79 578 OFFCURVE",
"-89 598 OFFCURVE",
"-89 629 CURVE",
"-118 620 LINE",
"-118 616 LINE SMOOTH",
"-118 573 OFFCURVE",
"-96 543 OFFCURVE",
"-61 543 CURVE SMOOTH",
"-29 543 OFFCURVE",
"-11 564 OFFCURVE",
"-7 597 CURVE"
);
}
);
width = 0;
}
);
unicode = 0651;
},
{
glyphname = uni0652;
lastChange = "2017-09-07 21:15:43 +0000";
layers = (
{
anchors = (
{
name = _mark0;
position = "{0, 542}";
}
);
layerId = UUID0;
paths = (
{
closed = 1;
nodes = (
"-71 569 OFFCURVE",
"-44 542 OFFCURVE",
"-4 542 CURVE SMOOTH",
"33 542 OFFCURVE",
"62 571 OFFCURVE",
"62 604 CURVE SMOOTH",
"62 645 OFFCURVE",
"33 674 OFFCURVE",
"-6 674 CURVE SMOOTH",
"-39 674 OFFCURVE",
"-71 643 OFFCURVE",
"-71 606 CURVE SMOOTH"
);
},
{
closed = 1;
nodes = (
"-26 573 OFFCURVE",
"-40 588 OFFCURVE",
"-40 607 CURVE SMOOTH",
"-40 627 OFFCURVE",
"-25 642 OFFCURVE",
"-4 642 CURVE SMOOTH",
"16 642 OFFCURVE",
"31 629 OFFCURVE",
"31 608 CURVE SMOOTH",
"31 589 OFFCURVE",
"19 573 OFFCURVE",
"-5 573 CURVE SMOOTH"
);
}
);
width = 0;
}
);
unicode = 0652;
},
{
glyphname = uni0653;
lastChange = "2017-09-07 21:15:43 +0000";
layers = (
{
anchors = (
{
name = _mark0;
position = "{0, 542}";
}
);
layerId = UUID0;
paths = (
{
closed = 1;
nodes = (
"-100 533 LINE",
"-83 553 LINE SMOOTH",
"-78 560 OFFCURVE",
"-74 564 OFFCURVE",
"-71 567 CURVE",
"-47 556 OFFCURVE",
"-22 549 OFFCURVE",
"15 549 CURVE SMOOTH",
"50 549 OFFCURVE",
"93 563 OFFCURVE",
"116 580 CURVE",
"95 609 LINE",
"75 597 OFFCURVE",
"48 589 OFFCURVE",
"20 589 CURVE SMOOTH",
"-8 589 OFFCURVE",
"-34 592 OFFCURVE",
"-78 608 CURVE",
"-81 605 OFFCURVE",
"-85 602 OFFCURVE",
"-88 598 CURVE SMOOTH",
"-102 583 LINE",
"-110 571 OFFCURVE",
"-120 561 OFFCURVE",
"-127 550 CURVE"
);
}
);
width = 0;
}
);
unicode = 0653;
},
{
glyphname = uni0654;
lastChange = "2017-09-07 21:15:43 +0000";
layers = (
{
anchors = (
{
name = _mark0;
position = "{0, 542}";
}
);
layerId = UUID0;
paths = (
{
closed = 1;
nodes = (
"22 591 LINE",
"21 590 OFFCURVE",
"19 590 OFFCURVE",
"17 590 CURVE SMOOTH",
"9 590 LINE SMOOTH",
"-14 590 OFFCURVE",
"-27 608 OFFCURVE",
"-27 625 CURVE SMOOTH",
"-27 649 OFFCURVE",
"-11 662 OFFCURVE",
"14 662 CURVE SMOOTH",
"23 662 OFFCURVE",
"35 661 OFFCURVE",
"47 656 CURVE",
"59 688 LINE",
"43 696 OFFCURVE",
"23 699 OFFCURVE",
"10 699 CURVE SMOOTH",
"-31 699 OFFCURVE",
"-66 669 OFFCURVE",
"-66 625 CURVE SMOOTH",
"-66 612 OFFCURVE",
"-62 594 OFFCURVE",
"-47 582 CURVE",
"-78 578 LINE",
"-78 542 LINE",
"67 559 LINE",
"67 596 LINE"
);
}
);
width = 0;
}
);
unicode = 0654;
},
{
glyphname = uni0655;
lastChange = "2017-09-07 21:15:43 +0000";
layers = (
{
anchors = (
{
name = _mark0;
position = "{0, 0}";
}
);
layerId = UUID0;
paths = (
{
closed = 1;
nodes = (
"14 -109 LINE",
"9 -109 LINE SMOOTH",
"-11 -109 OFFCURVE",
"-27 -94 OFFCURVE",
"-27 -74 CURVE SMOOTH",
"-27 -51 OFFCURVE",
"-11 -37 OFFCURVE",
"14 -37 CURVE SMOOTH",
"25 -37 OFFCURVE",
"36 -39 OFFCURVE",
"47 -43 CURVE",
"59 -10 LINE",
"43 -2 OFFCURVE",
"23 0 OFFCURVE",
"10 0 CURVE SMOOTH",
"-31 0 OFFCURVE",
"-66 -30 OFFCURVE",
"-66 -74 CURVE SMOOTH",
"-66 -86 OFFCURVE",
"-62 -105 OFFCURVE",
"-47 -118 CURVE",
"-78 -121 LINE",
"-78 -157 LINE",
"67 -141 LINE",
"67 -104 LINE"
);
}
);
width = 0;
}
);
unicode = 0655;
},
{
glyphname = uni0670;
lastChange = "2017-09-07 21:15:43 +0000";
layers = (
{
anchors = (
{
name = _mark0;
position = "{0, 542}";
}
);
layerId = UUID0;
paths = (
{
closed = 1;
nodes = (
"-23 722 LINE",
"-23 542 LINE",
"23 542 LINE",
"23 722 LINE"
);
}
);
width = 0;
}
);
unicode = 0670;
},
{
glyphname = Wasla;
lastChange = "2017-09-07 21:15:43 +0000";
layers = (
{
anchors = (
{
name = _mka;
position = "{0, 543}";
},
{
name = _top;
position = "{0, 542}";
}
);
background = {
paths = (
{
closed = 1;
nodes = (
"-90 598 OFFCURVE",
"-113 569 OFFCURVE",
"-127 550 CURVE",
"-100 533 LINE",
"-88 546 OFFCURVE",
"-76 562 OFFCURVE",
"-71 567 CURVE",
"-47 556 OFFCURVE",
"-17 549 OFFCURVE",
"15 549 CURVE SMOOTH",
"96 549 OFFCURVE",
"118 588 OFFCURVE",
"118 621 CURVE SMOOTH",
"118 658 OFFCURVE",
"87 679 OFFCURVE",
"60 679 CURVE SMOOTH",
"31 679 OFFCURVE",
"2 667 OFFCURVE",
"-39 595 CURVE",
"-53 599 OFFCURVE",
"-65 603 OFFCURVE",
"-78 608 CURVE"
);
},
{
closed = 1;
nodes = (
"72 643 OFFCURVE",
"83 632 OFFCURVE",
"83 617 CURVE SMOOTH",
"83 606 OFFCURVE",
"73 587 OFFCURVE",
"25 587 CURVE SMOOTH",
"15 587 OFFCURVE",
"5 587 OFFCURVE",
"-3 588 CURVE",
"16 622 OFFCURVE",
"34 643 OFFCURVE",
"56 643 CURVE SMOOTH"
);
}
);
};
layerId = UUID0;
paths = (
{
closed = 1;
nodes = (
"-90 598 OFFCURVE",
"-113 569 OFFCURVE",
"-127 550 CURVE",
"-100 533 LINE",
"-88 546 OFFCURVE",
"-76 562 OFFCURVE",
"-71 567 CURVE",
"-47 556 OFFCURVE",
"-17 549 OFFCURVE",
"15 549 CURVE SMOOTH",
"96 549 OFFCURVE",
"118 588 OFFCURVE",
"118 621 CURVE SMOOTH",
"118 658 OFFCURVE",
"87 679 OFFCURVE",
"60 679 CURVE SMOOTH",
"31 679 OFFCURVE",
"2 667 OFFCURVE",
"-39 595 CURVE",
"-53 599 OFFCURVE",
"-65 603 OFFCURVE",
"-78 608 CURVE"
);
},
{
closed = 1;
nodes = (
"72 643 OFFCURVE",
"83 632 OFFCURVE",
"83 617 CURVE SMOOTH",
"83 606 OFFCURVE",
"73 587 OFFCURVE",
"25 587 CURVE SMOOTH",
"15 587 OFFCURVE",
"5 587 OFFCURVE",
"-3 588 CURVE",
"16 622 OFFCURVE",
"34 643 OFFCURVE",
"56 643 CURVE SMOOTH"
);
}
);
width = 0;
}
);
},
{
glyphname = FC63;
lastChange = "2017-09-07 21:15:43 +0000";
layers = (
{
anchors = (
{
name = _mark0;
position = "{0, 542}";
}
);
layerId = UUID0;
paths = (
{
closed = 1;
nodes = (
"1 582 OFFCURVE",
"16 576 OFFCURVE",
"32 576 CURVE SMOOTH",
"63 576 OFFCURVE",
"85 598 OFFCURVE",
"85 637 CURVE SMOOTH",
"85 657 OFFCURVE",
"77 676 OFFCURVE",
"64 688 CURVE",
"35 677 LINE",
"43 668 OFFCURVE",
"54 654 OFFCURVE",
"54 637 CURVE SMOOTH",
"54 622 OFFCURVE",
"47 610 OFFCURVE",
"30 610 CURVE SMOOTH",
"15 610 OFFCURVE",
"4 620 OFFCURVE",
"-7 657 CURVE",
"-38 645 LINE",
"-34 636 OFFCURVE",
"-32 624 OFFCURVE",
"-32 612 CURVE SMOOTH",
"-32 595 OFFCURVE",
"-38 578 OFFCURVE",
"-59 578 CURVE SMOOTH",
"-79 578 OFFCURVE",
"-89 598 OFFCURVE",
"-89 629 CURVE",
"-118 620 LINE",
"-118 616 LINE SMOOTH",
"-118 573 OFFCURVE",
"-96 543 OFFCURVE",
"-61 543 CURVE SMOOTH",
"-29 543 OFFCURVE",
"-11 564 OFFCURVE",
"-7 597 CURVE"
);
},
{
closed = 1;
nodes = (
"-44 857 LINE",
"-44 705 LINE",
"-3 705 LINE",
"-3 857 LINE"
);
}
);
width = 0;
}
);
},
{
glyphname = uni0660;
lastChange = "2017-09-07 21:15:43 +0000";
layers = (
{
layerId = UUID0;
paths = (
{
closed = 1;
nodes = (
"29 202 OFFCURVE",
"61 175 OFFCURVE",
"97 175 CURVE SMOOTH",
"130 175 OFFCURVE",
"161 202 OFFCURVE",
"161 241 CURVE SMOOTH",
"161 276 OFFCURVE",
"127 304 OFFCURVE",
"94 304 CURVE SMOOTH",
"63 304 OFFCURVE",
"29 276 OFFCURVE",
"29 241 CURVE SMOOTH"
);
}
);
width = 190;
}
);
unicode = 0660;
},
{
glyphname = uni0661;
lastChange = "2017-09-07 21:15:43 +0000";
layers = (
{
layerId = UUID0;
paths = (
{
closed = 1;
nodes = (
"93 586 LINE",
"118 0 LINE",
"187 0 LINE",
"163 586 LINE"
);
}
);
width = 280;
}
);
unicode = 0661;
},
{
glyphname = uni0662;
lastChange = "2017-09-07 21:15:43 +0000";
layers = (
{
layerId = UUID0;
paths = (
{
closed = 1;
nodes = (
"119 458 LINE",
"144 442 OFFCURVE",
"176 437 OFFCURVE",
"204 437 CURVE SMOOTH",
"305 437 OFFCURVE",
"371 490 OFFCURVE",
"392 586 CURVE",
"325 586 LINE",
"305 531 OFFCURVE",
"270 507 OFFCURVE",
"195 507 CURVE SMOOTH",
"158 507 OFFCURVE",
"123 520 OFFCURVE",
"104 541 CURVE",
"97 586 LINE",
"24 586 LINE",
"37 514 OFFCURVE",
"55 408 OFFCURVE",
"70 313 CURVE SMOOTH",
"119 0 LINE",
"190 0 LINE"
);
}
);
width = 407;
}
);
unicode = 0662;
},
{
glyphname = uni0663;
lastChange = "2017-09-07 21:15:43 +0000";
layers = (
{
layerId = UUID0;
paths = (
{
closed = 1;
nodes = (
"219 586 LINE",
"216 522 OFFCURVE",
"200 491 OFFCURVE",
"161 491 CURVE SMOOTH",
"141 491 OFFCURVE",
"119 501 OFFCURVE",
"108 518 CURVE",
"97 586 LINE",
"24 586 LINE",
"37 514 OFFCURVE",
"55 408 OFFCURVE",
"70 313 CURVE SMOOTH",
"119 0 LINE",
"190 0 LINE",
"122 438 LINE",
"123 438 LINE",
"136 429 OFFCURVE",
"154 426 OFFCURVE",
"169 426 CURVE SMOOTH",
"196 426 OFFCURVE",
"223 432 OFFCURVE",
"243 455 CURVE",
"262 438 OFFCURVE",
"286 426 OFFCURVE",
"325 426 CURVE SMOOTH",
"398 426 OFFCURVE",
"449 486 OFFCURVE",
"449 586 CURVE",
"384 586 LINE",
"383 525 OFFCURVE",
"364 492 OFFCURVE",
"320 492 CURVE SMOOTH",
"301 492 OFFCURVE",
"284 498 OFFCURVE",
"273 511 CURVE",
"278 527 OFFCURVE",
"284 554 OFFCURVE",
"284 586 CURVE",
"219 586 LINE"
);
}
);
width = 463;
}
);
unicode = 0663;
},
{
glyphname = uni0664;
lastChange = "2017-09-07 21:15:43 +0000";
layers = (
{
layerId = UUID0;
paths = (
{
closed = 1;
nodes = (
"280 600 LINE",
"112 564 OFFCURVE",
"29 503 OFFCURVE",
"29 422 CURVE SMOOTH",
"29 373 OFFCURVE",
"62 338 OFFCURVE",
"138 318 CURVE SMOOTH",
"205 300 LINE",
"180 281 LINE SMOOTH",
"129 242 OFFCURVE",
"94 208 OFFCURVE",
"75 181 CURVE SMOOTH",
"56 154 OFFCURVE",
"47 127 OFFCURVE",
"47 98 CURVE SMOOTH",
"47 33 OFFCURVE",
"102 -2 OFFCURVE",
"234 -2 CURVE SMOOTH",
"287 -2 OFFCURVE",
"327 5 OFFCURVE",
"370 17 CURVE",
"370 86 LINE",
"326 75 OFFCURVE",
"280 69 OFFCURVE",
"239 69 CURVE SMOOTH",
"160 69 OFFCURVE",
"115 82 OFFCURVE",
"115 109 CURVE SMOOTH",
"115 132 OFFCURVE",
"133 154 OFFCURVE",
"177 193 CURVE SMOOTH",
"247 254 LINE",
"283 287 OFFCURVE",
"285 301 OFFCURVE",
"285 313 CURVE SMOOTH",
"285 340 OFFCURVE",
"274 354 OFFCURVE",
"226 366 CURVE SMOOTH",
"199 373 LINE SMOOTH",
"132 389 OFFCURVE",
"97 405 OFFCURVE",
"97 429 CURVE SMOOTH",
"97 468 OFFCURVE",
"160 501 OFFCURVE",
"280 534 CURVE"
);
}
);
width = 390;
}
);
unicode = 0664;
},
{
glyphname = uni0665;
lastChange = "2017-09-07 21:15:43 +0000";
layers = (
{
layerId = UUID0;
paths = (
{
closed = 1;
nodes = (
"174 529 OFFCURVE",
"126 503 OFFCURVE",
"89 451 CURVE SMOOTH",
"52 400 OFFCURVE",
"34 336 OFFCURVE",
"34 261 CURVE SMOOTH",
"34 118 OFFCURVE",
"108 39 OFFCURVE",
"225 39 CURVE SMOOTH",
"348 39 OFFCURVE",
"420 121 OFFCURVE",
"420 272 CURVE SMOOTH",
"420 347 OFFCURVE",
"403 409 OFFCURVE",
"370 457 CURVE SMOOTH",
"337 505 OFFCURVE",
"290 529 OFFCURVE",
"231 529 CURVE SMOOTH"
);
},
{
closed = 1;
nodes = (
"302 455 OFFCURVE",
"347 381 OFFCURVE",
"347 270 CURVE SMOOTH",
"347 163 OFFCURVE",
"308 112 OFFCURVE",
"225 112 CURVE SMOOTH",
"149 112 OFFCURVE",
"107 166 OFFCURVE",
"107 261 CURVE SMOOTH",
"107 381 OFFCURVE",
"156 455 OFFCURVE",
"231 455 CURVE SMOOTH"
);
}
);
width = 454;
}
);
unicode = 0665;
},
{
glyphname = uni0666;
lastChange = "2017-09-07 21:15:43 +0000";
layers = (
{
layerId = UUID0;
paths = (
{
closed = 1;
nodes = (
"258 516 LINE",
"259 453 OFFCURVE",
"262 370 OFFCURVE",
"268 267 CURVE SMOOTH",
"275 164 OFFCURVE",
"281 75 OFFCURVE",
"288 0 CURVE",
"360 0 LINE",
"354 79 LINE",
"351 108 OFFCURVE",
"349 139 OFFCURVE",
"346 172 CURVE SMOOTH",
"339 272 LINE",
"330 416 LINE",
"328 469 OFFCURVE",
"327 510 OFFCURVE",
"327 539 CURVE SMOOTH",
"327 586 LINE",
"194 586 LINE",
"159 586 LINE SMOOTH",
"114 586 OFFCURVE",
"53 589 OFFCURVE",
"18 592 CURVE",
"10 525 LINE",
"70 518 OFFCURVE",
"134 516 OFFCURVE",
"194 516 CURVE SMOOTH"
);
}
);
width = 409;
}
);
unicode = 0666;
},
{
glyphname = uni0667;
lastChange = "2017-09-07 21:15:43 +0000";
layers = (
{
layerId = UUID0;
paths = (
{
closed = 1;
nodes = (
"389 586 LINE",
"362 515 OFFCURVE",
"337 443 OFFCURVE",
"308 359 CURVE SMOOTH",
"269 244 LINE SMOOTH",
"256 205 OFFCURVE",
"242 166 OFFCURVE",
"227 125 CURVE",
"225 125 LINE",
"204 195 LINE",
"155 356 LINE",
"104 517 LINE",
"97 542 OFFCURVE",
"90 565 OFFCURVE",
"83 586 CURVE",
"0 586 LINE",
"39 474 OFFCURVE",
"68 382 OFFCURVE",
"103 277 CURVE",
"136 173 LINE",
"190 0 LINE",
"250 0 LINE",
"279 83 LINE",
"316 183 LINE",
"357 292 LINE",
"370 329 OFFCURVE",
"384 366 OFFCURVE",
"397 401 CURVE SMOOTH",
"467 586 LINE"
);
}
);
width = 467;
}
);
unicode = 0667;
},
{
glyphname = uni0668;
lastChange = "2017-09-07 21:15:43 +0000";
layers = (
{
layerId = UUID0;
paths = (
{
closed = 1;
nodes = (
"83 0 LINE",
"108 71 OFFCURVE",
"132 143 OFFCURVE",
"160 227 CURVE SMOOTH",
"197 342 LINE",
"237 460 LINE",
"239 460 LINE",
"261 391 LINE",
"286 313 LINE",
"313 230 LINE",
"389 0 LINE",
"472 0 LINE",
"461 30 OFFCURVE",
"449 62 OFFCURVE",
"437 97 CURVE SMOOTH",
"400 202 LINE SMOOTH",
"376 270 OFFCURVE",
"352 344 OFFCURVE",
"329 413 CURVE SMOOTH",
"297 507 LINE",
"288 536 OFFCURVE",
"279 563 OFFCURVE",
"271 586 CURVE",
"212 586 LINE",
"184 504 LINE",
"148 403 LINE",
"110 294 LINE",
"35 84 LINE",
"5 0 LINE"
);
}
);
width = 472;
}
);
unicode = 0668;
},
{
glyphname = uni0669;
lastChange = "2017-09-07 21:15:43 +0000";
layers = (
{
layerId = UUID0;
paths = (
{
closed = 1;
nodes = (
"377 0 LINE",
"342 401 LINE SMOOTH",
"330 537 OFFCURVE",
"275 599 OFFCURVE",
"179 599 CURVE SMOOTH",
"135 599 OFFCURVE",
"97 579 OFFCURVE",
"64 539 CURVE SMOOTH",
"31 500 OFFCURVE",
"15 456 OFFCURVE",
"15 408 CURVE SMOOTH",
"15 316 OFFCURVE",
"74 260 OFFCURVE",
"177 260 CURVE SMOOTH",
"210 260 OFFCURVE",
"250 269 OFFCURVE",
"281 286 CURVE",
"305 0 LINE"
);
},
{
closed = 1;
nodes = (
"275 352 LINE",
"243 337 OFFCURVE",
"217 332 OFFCURVE",
"184 332 CURVE SMOOTH",
"115 332 OFFCURVE",
"84 363 OFFCURVE",
"84 415 CURVE SMOOTH",
"84 480 OFFCURVE",
"130 529 OFFCURVE",
"179 529 CURVE SMOOTH",
"244 529 OFFCURVE",
"267 487 OFFCURVE",
"272 398 CURVE SMOOTH"
);
}
);
width = 420;
}
);
unicode = 0669;
},
{
glyphname = uni066A;
lastChange = "2017-09-07 21:15:43 +0000";
layers = (
{
layerId = UUID0;
paths = (
{
closed = 1;
nodes = (
"366 586 LINE",
"63 0 LINE",
"137 0 LINE",
"439 586 LINE"
);
},
{
closed = 1;
nodes = (
"68 493 OFFCURVE",
"97 470 OFFCURVE",
"129 470 CURVE SMOOTH",
"161 470 OFFCURVE",
"187 496 OFFCURVE",
"187 529 CURVE SMOOTH",
"187 560 OFFCURVE",
"157 586 OFFCURVE",
"126 586 CURVE SMOOTH",
"98 586 OFFCURVE",
"68 560 OFFCURVE",
"68 529 CURVE SMOOTH"
);
},
{
closed = 1;
nodes = (
"310 14 OFFCURVE",
"340 -10 OFFCURVE",
"372 -10 CURVE SMOOTH",
"403 -10 OFFCURVE",
"429 16 OFFCURVE",
"429 49 CURVE SMOOTH",
"429 80 OFFCURVE",
"398 106 OFFCURVE",
"369 106 CURVE SMOOTH",
"341 106 OFFCURVE",
"310 81 OFFCURVE",
"310 49 CURVE SMOOTH"
);
}
);
width = 478;
}
);
unicode = 066A;
},
{
glyphname = uni066B;
lastChange = "2017-09-07 21:15:43 +0000";
layers = (
{
layerId = UUID0;
paths = (
{
closed = 1;
nodes = (
"111 116 LINE",
"84 -4 LINE",
"69 -71 LINE",
"55 -129 LINE",
"116 -129 LINE",
"153 -16 LINE SMOOTH",
"168 30 OFFCURVE",
"180 70 OFFCURVE",
"190 105 CURVE",
"183 116 LINE"
);
}
);
width = 262;
}
);
unicode = 066B;
},
{
glyphname = uni066C;
lastChange = "2017-09-07 21:15:43 +0000";
layers = (
{
layerId = UUID0;
paths = (
{
closed = 1;
nodes = (
"109 586 LINE",
"83 465 LINE",
"67 399 LINE SMOOTH",
"62 377 OFFCURVE",
"58 358 OFFCURVE",
"53 341 CURVE",
"114 341 LINE",
"125 370 OFFCURVE",
"137 407 OFFCURVE",
"152 453 CURVE SMOOTH",
"167 500 OFFCURVE",
"179 540 OFFCURVE",
"188 575 CURVE",
"181 586 LINE"
);
}
);
width = 262;
}
);
unicode = 066C;
},
{
glyphname = period;
lastChange = "2017-09-07 21:15:43 +0000";
layers = (
{
layerId = UUID0;
paths = (
{
closed = 1;
nodes = (
"192 95 OFFCURVE",
"169 118 OFFCURVE",
"132 118 CURVE SMOOTH",
"95 118 OFFCURVE",
"74 95 OFFCURVE",
"74 52 CURVE SMOOTH",
"74 5 OFFCURVE",
"99 -14 OFFCURVE",
"132 -14 CURVE SMOOTH",
"169 -14 OFFCURVE",
"192 9 OFFCURVE",
"192 52 CURVE SMOOTH"
);
}
);
width = 266;
}
);
unicode = 002E;
},
{
glyphname = uni060C;
lastChange = "2017-09-07 21:15:43 +0000";
layers = (
{
layerId = UUID0;
paths = (
{
closed = 1;
nodes = (
"143 0 LINE",
"169 121 LINE",
"185 187 LINE SMOOTH",
"190 209 OFFCURVE",
"194 228 OFFCURVE",
"199 245 CURVE",
"138 245 LINE",
"127 216 OFFCURVE",
"115 179 OFFCURVE",
"100 132 CURVE SMOOTH",
"85 86 OFFCURVE",
"73 46 OFFCURVE",
"63 11 CURVE",
"71 0 LINE"
);
}
);
width = 277;
}
);
unicode = 060C;
},
{
glyphname = uni061B;
lastChange = "2017-09-07 21:15:43 +0000";
layers = (
{
layerId = UUID0;
paths = (
{
closed = 1;
nodes = (
"187 311 LINE",
"202 398 OFFCURVE",
"218 477 OFFCURVE",
"239 556 CURVE",
"178 556 LINE",
"141 475 OFFCURVE",
"119 399 OFFCURVE",
"99 322 CURVE",
"106 311 LINE"
);
},
{
closed = 1;
nodes = (
"201 95 OFFCURVE",
"178 118 OFFCURVE",
"141 118 CURVE SMOOTH",
"104 118 OFFCURVE",
"83 95 OFFCURVE",
"83 52 CURVE SMOOTH",
"83 5 OFFCURVE",
"108 -14 OFFCURVE",
"141 -14 CURVE SMOOTH",
"177 -14 OFFCURVE",
"201 9 OFFCURVE",
"201 52 CURVE SMOOTH"
);
}
);
width = 284;
}
);
unicode = 061B;
},
{
glyphname = colon;
lastChange = "2017-09-07 21:15:43 +0000";
layers = (
{
layerId = UUID0;
paths = (
{
closed = 1;
nodes = (
"201 95 OFFCURVE",
"178 118 OFFCURVE",
"141 118 CURVE SMOOTH",
"104 118 OFFCURVE",
"83 95 OFFCURVE",
"83 52 CURVE SMOOTH",
"83 5 OFFCURVE",
"108 -14 OFFCURVE",
"141 -14 CURVE SMOOTH",
"177 -14 OFFCURVE",
"201 9 OFFCURVE",
"201 52 CURVE SMOOTH"
);
},
{
closed = 1;
nodes = (
"201 410 OFFCURVE",
"181 432 OFFCURVE",
"141 432 CURVE SMOOTH",
"102 432 OFFCURVE",
"83 410 OFFCURVE",
"83 366 CURVE SMOOTH",
"83 319 OFFCURVE",
"108 300 OFFCURVE",
"141 300 CURVE SMOOTH",
"177 300 OFFCURVE",
"201 322 OFFCURVE",
"201 366 CURVE SMOOTH"
);
}
);
width = 284;
}
);
unicode = 003A;
},
{
glyphname = uni061F;
lastChange = "2017-09-07 21:15:43 +0000";
layers = (
{
layerId = UUID0;
paths = (
{
closed = 1;
nodes = (
"262 197 LINE",
"262 223 LINE SMOOTH",
"262 278 OFFCURVE",
"239 318 OFFCURVE",
"184 358 CURVE SMOOTH",
"129 399 OFFCURVE",
"108 428 OFFCURVE",
"108 464 CURVE SMOOTH",
"108 512 OFFCURVE",
"149 546 OFFCURVE",
"212 546 CURVE SMOOTH",
"257 546 OFFCURVE",
"297 535 OFFCURVE",
"336 516 CURVE",
"365 577 LINE",
"312 604 OFFCURVE",
"262 617 OFFCURVE",
"209 617 CURVE SMOOTH",
"157 617 OFFCURVE",
"114 602 OFFCURVE",
"81 573 CURVE SMOOTH",
"48 544 OFFCURVE",
"32 506 OFFCURVE",
"32 461 CURVE SMOOTH",
"32 396 OFFCURVE",
"66 357 OFFCURVE",
"141 304 CURVE SMOOTH",
"178 278 OFFCURVE",
"197 248 OFFCURVE",
"197 213 CURVE SMOOTH",
"197 197 LINE"
);
},
{
closed = 1;
nodes = (
"174 13 OFFCURVE",
"194 -8 OFFCURVE",
"227 -8 CURVE SMOOTH",
"258 -8 OFFCURVE",
"280 9 OFFCURVE",
"280 52 CURVE SMOOTH",
"280 92 OFFCURVE",
"262 112 OFFCURVE",
"227 112 CURVE SMOOTH",
"194 112 OFFCURVE",
"174 91 OFFCURVE",
"174 52 CURVE SMOOTH"
);
}
);
width = 379;
}
);
unicode = 061F;
},
{
glyphname = exclam;
lastChange = "2017-09-07 21:15:43 +0000";
layers = (
{
layerId = UUID0;
paths = (
{
closed = 1;
nodes = (
"190 607 LINE",
"95 607 LINE",
"117 197 LINE",
"168 197 LINE"
);
},
{
closed = 1;
nodes = (
"195 91 OFFCURVE",
"175 112 OFFCURVE",
"142 112 CURVE SMOOTH",
"107 112 OFFCURVE",
"89 92 OFFCURVE",
"89 52 CURVE SMOOTH",
"89 9 OFFCURVE",
"111 -8 OFFCURVE",
"142 -8 CURVE SMOOTH",
"175 -8 OFFCURVE",
"195 13 OFFCURVE",
"195 52 CURVE SMOOTH"
);
}
);
width = 284;
}
);
unicode = 0021;
},
{
glyphname = parenleft;
lastChange = "2017-09-07 21:15:43 +0000";
layers = (
{
layerId = UUID0;
paths = (
{
closed = 1;
nodes = (
"187 689 LINE",
"91 576 OFFCURVE",
"40 422 OFFCURVE",
"40 250 CURVE SMOOTH",
"40 78 OFFCURVE",
"91 -71 OFFCURVE",
"187 -183 CURVE",
"265 -183 LINE",
"174 -59 OFFCURVE",
"125 97 OFFCURVE",
"125 250 CURVE SMOOTH",
"125 410 OFFCURVE",
"171 564 OFFCURVE",
"266 689 CURVE",
"187 689 LINE"
);
}
);
width = 296;
}
);
unicode = 0028;
},
{
glyphname = parenright;
lastChange = "2017-09-07 21:15:43 +0000";
layers = (
{
layerId = UUID0;
paths = (
{
closed = 1;
nodes = (
"109 -183 LINE",
"205 -72 OFFCURVE",
"256 77 OFFCURVE",
"256 250 CURVE SMOOTH",
"256 418 OFFCURVE",
"206 574 OFFCURVE",
"109 689 CURVE",
"30 689 LINE",
"125 564 OFFCURVE",
"171 410 OFFCURVE",
"171 250 CURVE SMOOTH",
"171 95 OFFCURVE",
"122 -60 OFFCURVE",
"31 -183 CURVE",
"109 -183 LINE"
);
}
);
width = 296;
}
);
unicode = 0029;
},
{
glyphname = bracketleft;
lastChange = "2017-09-07 21:15:43 +0000";
layers = (
{
layerId = UUID0;
paths = (
{
closed = 1;
nodes = (
"301 -91 LINE",
"155 -91 LINE",
"155 627 LINE",
"301 627 LINE",
"301 693 LINE",
"78 693 LINE",
"78 -158 LINE",
"301 -158 LINE"
);
}
);
width = 326;
}
);
unicode = 005B;
},
{
glyphname = bracketright;
lastChange = "2017-09-07 21:15:43 +0000";
layers = (
{
layerId = UUID0;
paths = (
{
closed = 1;
nodes = (
"24 -158 LINE",
"248 -158 LINE",
"248 693 LINE",
"24 693 LINE",
"24 627 LINE",
"170 627 LINE",
"170 -91 LINE",
"24 -91 LINE"
);
}
);
width = 326;
}
);
unicode = 005D;
},
{
glyphname = parenleft.alt;
lastChange = "2017-09-07 21:15:43 +0000";
layers = (
{
layerId = UUID0;
paths = (
{
closed = 1;
nodes = (
"78 931 LINE",
"78 416 LINE",
"129 416 LINE",
"129 880 LINE",
"563 880 LINE",
"563 931 LINE"
);
}
);
width = 539;
}
);
},
{
glyphname = parenright.alt;
lastChange = "2017-09-07 21:15:43 +0000";
layers = (
{
layerId = UUID0;
paths = (
{
closed = 1;
nodes = (
"-24 931 LINE",
"-24 880 LINE",
"410 880 LINE",
"410 416 LINE",
"461 416 LINE",
"461 931 LINE"
);
}
);
width = 539;
}
);
},
{
glyphname = guillemotleft;
lastChange = "2017-09-07 21:15:43 +0000";
layers = (
{
layerId = UUID0;
paths = (
{
closed = 1;
nodes = (
"40 197 LINE",
"207 -1 LINE",
"265 33 LINE",
"124 205 LINE",
"265 375 LINE",
"207 409 LINE",
"40 210 LINE"
);
},
{
closed = 1;
nodes = (
"233 197 LINE",
"401 -1 LINE",
"458 33 LINE",
"318 205 LINE",
"458 375 LINE",
"401 409 LINE",
"233 210 LINE"
);
}
);
width = 497;
}
);
unicode = 00AB;
},
{
glyphname = guillemotright;
lastChange = "2017-09-07 21:15:43 +0000";
layers = (
{
layerId = UUID0;
paths = (
{
closed = 1;
nodes = (
"457 210 LINE",
"289 409 LINE",
"232 375 LINE",
"372 205 LINE",
"232 33 LINE",
"289 -1 LINE",
"457 197 LINE"
);
},
{
closed = 1;
nodes = (
"264 210 LINE",
"96 409 LINE",
"39 375 LINE",
"179 205 LINE",
"39 33 LINE",
"96 -1 LINE",
"264 197 LINE"
);
}
);
width = 497;
}
);
unicode = 00BB;
},
{
glyphname = asterisk;
lastChange = "2017-09-07 21:15:43 +0000";
layers = (
{
layerId = UUID0;
paths = (
{
closed = 1;
nodes = (
"174 625 LINE",
"186 485 LINE",
"45 520 LINE",
"34 453 LINE",
"167 439 LINE",
"84 321 LINE",
"149 286 LINE",
"209 414 LINE",
"274 286 LINE",
"338 321 LINE",
"253 439 LINE",
"387 453 LINE",
"377 520 LINE",
"234 485 LINE",
"246 625 LINE"
);
}
);
width = 421;
}
);
unicode = 002A;
},
{
glyphname = plus;
lastChange = "2017-09-07 21:15:43 +0000";
layers = (
{
layerId = UUID0;
paths = (
{
closed = 1;
nodes = (
"318 534 LINE",
"254 534 LINE",
"254 336 LINE",
"63 336 LINE",
"63 271 LINE",
"254 271 LINE",
"254 74 LINE",
"318 74 LINE",
"318 271 LINE",
"509 271 LINE",
"509 336 LINE",
"318 336 LINE"
);
}
);
width = 573;
}
);
unicode = 002B;
},
{
glyphname = equal;
lastChange = "2017-09-07 21:15:43 +0000";
layers = (
{
layerId = UUID0;
paths = (
{
closed = 1;
nodes = (
"502 367 LINE",
"502 430 LINE",
"71 430 LINE",
"71 367 LINE"
);
},
{
closed = 1;
nodes = (
"502 177 LINE",
"502 241 LINE",
"71 241 LINE",
"71 177 LINE"
);
}
);
width = 573;
}
);
unicode = 003D;
},
{
glyphname = slash;
lastChange = "2017-09-07 21:15:43 +0000";
layers = (
{
layerId = UUID0;
paths = (
{
closed = 1;
nodes = (
"348 693 LINE",
"44 -123 LINE",
"113 -123 LINE",
"417 693 LINE"
);
}
);
width = 460;
}
);
unicode = 002F;
},
{
glyphname = backslash;
lastChange = "2017-09-07 21:15:43 +0000";
layers = (
{
layerId = UUID0;
paths = (
{
closed = 1;
nodes = (
"11 714 LINE",
"277 0 LINE",
"358 0 LINE",
"91 714 LINE"
);
}
);
width = 367;
}
);
unicode = 005C;
},
{
glyphname = hyphen;
lastChange = "2017-09-07 21:15:43 +0000";
layers = (
{
layerId = UUID0;
paths = (
{
closed = 1;
nodes = (
"281 231 LINE",
"281 305 LINE",
"41 305 LINE",
"41 231 LINE"
);
}
);
width = 322;
}
);
unicode = 002D;
},
{
glyphname = degree;
lastChange = "2017-09-07 21:15:43 +0000";
layers = (
{
layerId = UUID0;
paths = (
{
closed = 1;
nodes = (
"330 502 OFFCURVE",
"317 535 OFFCURVE",
"290 560 CURVE SMOOTH",
"263 586 OFFCURVE",
"231 599 OFFCURVE",
"193 599 CURVE SMOOTH",
"156 599 OFFCURVE",
"123 586 OFFCURVE",
"96 559 CURVE SMOOTH",
"69 532 OFFCURVE",
"56 500 OFFCURVE",
"56 462 CURVE SMOOTH",
"56 383 OFFCURVE",
"114 326 OFFCURVE",
"193 326 CURVE SMOOTH",
"230 326 OFFCURVE",
"262 339 OFFCURVE",
"289 366 CURVE SMOOTH",
"316 393 OFFCURVE",
"330 425 OFFCURVE",
"330 462 CURVE SMOOTH"
);
},
{
closed = 1;
nodes = (
"279 414 OFFCURVE",
"241 376 OFFCURVE",
"193 376 CURVE SMOOTH",
"144 376 OFFCURVE",
"107 414 OFFCURVE",
"107 462 CURVE SMOOTH",
"107 513 OFFCURVE",
"144 548 OFFCURVE",
"193 548 CURVE SMOOTH",
"241 548 OFFCURVE",
"279 513 OFFCURVE",
"279 462 CURVE SMOOTH"
);
}
);
width = 428;
}
);
unicode = 00B0;
},
{
glyphname = uni25CC;
lastChange = "2017-09-07 21:15:43 +0000";
layers = (
{
layerId = UUID0;
paths = (
{
closed = 1;
nodes = (
"522 297 LINE",
"518 336 OFFCURVE",
"503 373 OFFCURVE",
"476 408 CURVE",
"454 385 LINE",
"472 360 OFFCURVE",
"484 330 OFFCURVE",
"491 297 CURVE"
);
},
{
closed = 1;
nodes = (
"437 447 LINE",
"402 472 OFFCURVE",
"366 487 OFFCURVE",
"328 491 CURVE",
"328 458 LINE",
"359 455 OFFCURVE",
"388 443 OFFCURVE",
"415 424 CURVE"
);
},
{
closed = 1;
nodes = (
"490 244 LINE",
"486 214 OFFCURVE",
"474 185 OFFCURVE",
"455 158 CURVE",
"478 135 LINE",
"503 170 OFFCURVE",
"518 206 OFFCURVE",
"522 244 CURVE"
);
},
{
closed = 1;
nodes = (
"274 491 LINE",
"235 485 OFFCURVE",
"199 470 OFFCURVE",
"166 445 CURVE",
"188 422 LINE",
"213 441 OFFCURVE",
"242 453 OFFCURVE",
"274 458 CURVE"
);
},
{
closed = 1;
nodes = (
"128 407 LINE",
"103 374 OFFCURVE",
"88 337 OFFCURVE",
"84 297 CURVE",
"115 297 LINE",
"119 328 OFFCURVE",
"131 357 OFFCURVE",
"150 384 CURVE"
);
},
{
closed = 1;
nodes = (
"414 120 LINE",
"388 100 OFFCURVE",
"359 88 OFFCURVE",
"328 83 CURVE",
"328 51 LINE",
"368 56 OFFCURVE",
"404 72 OFFCURVE",
"437 97 CURVE"
);
},
{
closed = 1;
nodes = (
"152 158 LINE",
"133 184 OFFCURVE",
"120 213 OFFCURVE",
"115 244 CURVE",
"83 244 LINE",
"88 205 OFFCURVE",
"104 169 OFFCURVE",
"129 136 CURVE"
);
},
{
closed = 1;
nodes = (
"274 85 LINE",
"242 89 OFFCURVE",
"213 100 OFFCURVE",
"188 119 CURVE",
"165 97 LINE",
"200 72 OFFCURVE",
"236 57 OFFCURVE",
"274 53 CURVE"
);
}
);
width = 605;
}
);
unicode = 25CC;
},
{
glyphname = uni2670;
lastChange = "2017-09-07 21:15:43 +0000";
layers = (
{
layerId = UUID0;
paths = (
{
closed = 1;
nodes = (
"131 511 LINE",
"88 479 LINE",
"141 391 LINE",
"88 302 LINE",
"131 268 LINE",
"197 353 LINE",
"411 353 LINE",
"411 -47 LINE",
"321 -114 LINE",
"357 -157 LINE",
"446 -104 LINE",
"534 -157 LINE",
"573 -114 LINE",
"484 -47 LINE",
"484 353 LINE",
"697 353 LINE",
"764 268 LINE",
"807 299 LINE",
"753 388 LINE",
"807 476 LINE",
"764 511 LINE",
"697 426 LINE",
"484 426 LINE",
"484 648 LINE",
"573 714 LINE",
"538 757 LINE",
"449 704 LINE",
"360 757 LINE",
"321 714 LINE",
"411 647 LINE",
"411 426 LINE",
"197 426 LINE"
);
}
);
width = 895;
}
);
unicode = 2670;
},
{
glyphname = uni2671;
lastChange = "2017-09-07 21:15:43 +0000";
layers = (
{
layerId = UUID0;
paths = (
{
closed = 1;
nodes = (
"170 353 LINE",
"401 353 LINE",
"401 -75 LINE",
"323 -102 LINE",
"323 -125 LINE",
"342 -141 OFFCURVE",
"392 -157 OFFCURVE",
"436 -157 CURVE SMOOTH",
"477 -157 OFFCURVE",
"531 -142 OFFCURVE",
"552 -125 CURVE",
"552 -102 LINE",
"474 -74 LINE",
"474 353 LINE",
"705 353 LINE",
"732 274 LINE",
"756 274 LINE",
"772 294 OFFCURVE",
"787 344 OFFCURVE",
"787 387 CURVE SMOOTH",
"787 430 OFFCURVE",
"773 481 OFFCURVE",
"756 504 CURVE",
"732 504 LINE",
"705 426 LINE",
"474 426 LINE",
"474 675 LINE",
"552 703 LINE",
"552 726 LINE",
"531 743 OFFCURVE",
"482 757 OFFCURVE",
"439 757 CURVE SMOOTH",
"396 757 OFFCURVE",
"342 742 OFFCURVE",
"323 726 CURVE",
"323 703 LINE",
"401 675 LINE",
"401 426 LINE",
"170 426 LINE",
"143 504 LINE",
"119 504 LINE",
"102 483 OFFCURVE",
"88 434 OFFCURVE",
"88 391 CURVE SMOOTH",
"88 348 OFFCURVE",
"103 294 OFFCURVE",
"119 274 CURVE",
"143 274 LINE"
);
}
);
width = 875;
}
);
unicode = 2671;
},
{
glyphname = uni0722.FinaSoft;
lastChange = "2017-09-07 21:15:43 +0000";
layers = (
{
anchors = (
{
name = mark0;
position = "{102, -397}";
}
);
layerId = UUID0;
paths = (
{
closed = 1;
nodes = (
"272 76 LINE",
"220 76 OFFCURVE",
"172 72 OFFCURVE",
"128 63 CURVE SMOOTH",
"85 54 OFFCURVE",
"63 32 OFFCURVE",
"63 -5 CURVE SMOOTH",
"63 -48 OFFCURVE",
"90 -112 OFFCURVE",
"143 -197 CURVE SMOOTH",
"197 -283 OFFCURVE",
"257 -365 OFFCURVE",
"322 -442 CURVE",
"381 -400 LINE",
"330 -336 OFFCURVE",
"279 -264 OFFCURVE",
"228 -184 CURVE SMOOTH",
"177 -105 OFFCURVE",
"147 -48 OFFCURVE",
"138 -13 CURVE",
"145 -10 OFFCURVE",
"164 -7 OFFCURVE",
"195 -4 CURVE SMOOTH",
"226 -1 OFFCURVE",
"257 0 OFFCURVE",
"288 0 CURVE SMOOTH",
"340 0 LINE",
"340 76 LINE",
"272 76 LINE"
);
}
);
width = 340;
}
);
},
{
glyphname = Dot1;
lastChange = "2017-09-07 21:15:43 +0000";
layers = (
{
layerId = UUID0;
paths = (
{
closed = 1;
nodes = (
"52 96 OFFCURVE",
"33 116 OFFCURVE",
"0 116 CURVE SMOOTH",
"-31 116 OFFCURVE",
"-49 96 OFFCURVE",
"-49 59 CURVE SMOOTH",
"-49 19 OFFCURVE",
"-28 3 OFFCURVE",
"0 3 CURVE SMOOTH",
"32 3 OFFCURVE",
"52 23 OFFCURVE",
"52 59 CURVE SMOOTH"
);
}
);
width = 0;
}
);
},
{
glyphname = Dot2slant;
lastChange = "2017-09-07 21:15:43 +0000";
layers = (
{
layerId = UUID0;
paths = (
{
closed = 1;
nodes = (
"37 111 OFFCURVE",
"30 123 OFFCURVE",
"14 123 CURVE SMOOTH",
"1 123 OFFCURVE",
"-11 112 OFFCURVE",
"-21 89 CURVE",
"-32 67 OFFCURVE",
"-37 49 OFFCURVE",
"-37 36 CURVE SMOOTH",
"-37 20 OFFCURVE",
"-31 8 OFFCURVE",
"-14 8 CURVE SMOOTH",
"-1 8 OFFCURVE",
"10 19 OFFCURVE",
"21 42 CURVE SMOOTH",
"32 65 OFFCURVE",
"37 83 OFFCURVE",
"37 95 CURVE SMOOTH"
);
}
);
width = 0;
}
);
},
{
glyphname = Dot3;
lastChange = "2017-09-07 21:15:43 +0000";
layers = (
{
layerId = UUID0;
paths = (
{
closed = 1;
nodes = (
"37 70 OFFCURVE",
"20 83 OFFCURVE",
"0 83 CURVE SMOOTH",
"-21 83 OFFCURVE",
"-38 70 OFFCURVE",
"-38 42 CURVE SMOOTH",
"-38 13 OFFCURVE",
"-21 0 OFFCURVE",
"0 0 CURVE SMOOTH",
"20 0 OFFCURVE",
"37 13 OFFCURVE",
"37 42 CURVE SMOOTH"
);
}
);
width = 0;
}
);
},
{
glyphname = DotEncl;
lastChange = "2017-09-07 21:15:43 +0000";
layers = (
{
layerId = UUID0;
paths = (
{
closed = 1;
nodes = (
"293 -102 OFFCURVE",
"273 -88 OFFCURVE",
"250 -88 CURVE SMOOTH",
"225 -88 OFFCURVE",
"207 -102 OFFCURVE",
"207 -135 CURVE SMOOTH",
"207 -168 OFFCURVE",
"225 -182 OFFCURVE",
"250 -182 CURVE SMOOTH",
"273 -182 OFFCURVE",
"293 -168 OFFCURVE",
"293 -135 CURVE SMOOTH"
);
}
);
width = 0;
}
);
},
{
glyphname = Stretch;
lastChange = "2017-09-07 21:15:43 +0000";
layers = (
{
layerId = UUID0;
paths = (
{
closed = 1;
nodes = (
"269 76 LINE",
"0 76 LINE SMOOTH",
"-21 76 OFFCURVE",
"-39 61 OFFCURVE",
"-39 38 CURVE SMOOTH",
"-39 14 OFFCURVE",
"-21 0 OFFCURVE",
"0 0 CURVE SMOOTH",
"269 0 LINE"
);
}
);
width = 269;
}
);
},
{
glyphname = Stretch2;
lastChange = "2017-09-07 21:15:43 +0000";
layers = (
{
layerId = UUID0;
paths = (
{
closed = 1;
nodes = (
"391 76 LINE",
"0 76 LINE SMOOTH",
"-21 76 OFFCURVE",
"-39 61 OFFCURVE",
"-39 38 CURVE SMOOTH",
"-39 14 OFFCURVE",
"-21 0 OFFCURVE",
"0 0 CURVE SMOOTH",
"391 0 LINE"
);
}
);
width = 391;
}
);
},
{
glyphname = Stretch3;
lastChange = "2017-09-07 21:15:43 +0000";
layers = (
{
layerId = UUID0;
paths = (
{
closed = 1;
nodes = (
"32 76 LINE",
"0 76 LINE SMOOTH",
"-21 76 OFFCURVE",
"-39 61 OFFCURVE",
"-39 38 CURVE SMOOTH",
"-39 14 OFFCURVE",
"-21 0 OFFCURVE",
"0 0 CURVE SMOOTH",
"32 0 LINE"
);
}
);
width = 32;
}
);
},
{
glyphname = Stretch4;
lastChange = "2017-09-07 21:15:43 +0000";
layers = (
{
layerId = UUID0;
paths = (
{
closed = 1;
nodes = (
"129 76 LINE",
"0 76 LINE SMOOTH",
"-21 76 OFFCURVE",
"-39 61 OFFCURVE",
"-39 38 CURVE SMOOTH",
"-39 14 OFFCURVE",
"-21 0 OFFCURVE",
"0 0 CURVE SMOOTH",
"129 0 LINE"
);
}
);
width = 129;
}
);
},
{
glyphname = Stretch5;
lastChange = "2017-09-07 21:15:43 +0000";
layers = (
{
layerId = UUID0;
paths = (
{
closed = 1;
nodes = (
"76 76 LINE",
"0 76 LINE SMOOTH",
"-21 76 OFFCURVE",
"-39 61 OFFCURVE",
"-39 38 CURVE SMOOTH",
"-39 14 OFFCURVE",
"-21 0 OFFCURVE",
"0 0 CURVE SMOOTH",
"76 0 LINE"
);
}
);
width = 76;
}
);
},
{
glyphname = SAM4in;
lastChange = "2017-09-07 21:15:43 +0000";
layers = (
{
layerId = UUID0;
paths = (
{
closed = 1;
nodes = (
"-215 815 LINE",
"20 815 LINE",
"20 850 LINE",
"-215 850 LINE"
);
}
);
width = 0;
}
);
},
{
glyphname = SAM8in;
lastChange = "2017-09-07 21:15:43 +0000";
layers = (
{
layerId = UUID0;
paths = (
{
closed = 1;
nodes = (
"-410 815 LINE",
"20 815 LINE",
"20 850 LINE",
"-410 850 LINE"
);
}
);
width = 0;
}
);
},
{
glyphname = SAM4out;
lastChange = "2017-09-07 21:15:43 +0000";
layers = (
{
layerId = UUID0;
paths = (
{
closed = 1;
nodes = (
"-20 815 LINE",
"215 815 LINE",
"215 850 LINE",
"-20 850 LINE"
);
}
);
width = 0;
}
);
},
{
glyphname = SAM12out;
lastChange = "2017-09-07 21:15:43 +0000";
layers = (
{
layerId = UUID0;
paths = (
{
closed = 1;
nodes = (
"-20 815 LINE",
"605 815 LINE",
"605 850 LINE",
"-20 850 LINE"
);
}
);
width = 0;
}
);
},
{
glyphname = SAM18out;
lastChange = "2017-09-07 21:15:43 +0000";
layers = (
{
layerId = UUID0;
paths = (
{
closed = 1;
nodes = (
"-20 815 LINE",
"972 815 LINE",
"972 850 LINE",
"-20 850 LINE"
);
}
);
width = 0;
}
);
},
{
glyphname = SAM4xin;
lastChange = "2017-09-07 21:15:43 +0000";
layers = (
{
layerId = UUID0;
paths = (
{
closed = 1;
nodes = (
"-215 815 LINE",
"-68 815 LINE",
"-68 850 LINE",
"-215 850 LINE"
);
}
);
width = 0;
}
);
},
{
glyphname = SAM8xin;
lastChange = "2017-09-07 21:15:43 +0000";
layers = (
{
layerId = UUID0;
paths = (
{
closed = 1;
nodes = (
"-410 815 LINE",
"-68 815 LINE",
"-68 850 LINE",
"-410 850 LINE"
);
}
);
width = 0;
}
);
},
{
glyphname = SAM4xout;
lastChange = "2017-09-07 21:15:43 +0000";
layers = (
{
layerId = UUID0;
paths = (
{
closed = 1;
nodes = (
"59 815 LINE",
"215 815 LINE",
"215 850 LINE",
"59 850 LINE"
);
}
);
width = 0;
}
);
},
{
glyphname = SAM12xout;
lastChange = "2017-09-07 21:15:43 +0000";
layers = (
{
layerId = UUID0;
paths = (
{
closed = 1;
nodes = (
"59 815 LINE",
"605 815 LINE",
"605 850 LINE",
"59 850 LINE"
);
}
);
width = 0;
}
);
},
{
glyphname = SAM18xout;
lastChange = "2017-09-07 21:15:43 +0000";
layers = (
{
layerId = UUID0;
paths = (
{
closed = 1;
nodes = (
"59 815 LINE",
"972 815 LINE",
"972 850 LINE",
"59 850 LINE"
);
}
);
width = 0;
}
);
},
{
color = 5;
glyphname = H;
lastChange = "2017-09-08 15:50:18 +0000";
layers = (
{
anchors = (
{
name = mark0;
position = "{368, 0}";
},
{
name = mark1;
position = "{371, 714}";
},
{
name = mark2;
position = "{721, 714}";
},
{
name = mark3;
position = "{371, 357}";
}
);
hints = (
{
place = "{97, 90}";
},
{
place = "{553, 90}";
},
{
horizontal = 1;
place = "{0, 21}";
target = up;
type = BottomGhost;
},
{
horizontal = 1;
place = "{333, 79}";
},
{
horizontal = 1;
place = "{714, -20}";
target = down;
type = TopGhost;
}
);
layerId = UUID0;
paths = (
{
closed = 1;
nodes = (
"643 0 LINE",
"643 714 LINE",
"553 714 LINE",
"553 412 LINE",
"187 412 LINE",
"187 714 LINE",
"97 714 LINE",
"97 0 LINE",
"187 0 LINE",
"187 333 LINE",
"553 333 LINE",
"553 0 LINE"
);
}
);
width = 741;
}
);
unicode = 0048;
},
{
color = 5;
glyphname = O;
lastChange = "2017-09-08 15:50:18 +0000";
layers = (
{
anchors = (
{
name = mark0;
position = "{392, 0}";
},
{
name = mark1;
position = "{391, 714}";
},
{
name = mark2;
position = "{761, 714}";
},
{
name = mark3;
position = "{391, 357}";
}
);
hints = (
{
place = "{61, 95}";
},
{
place = "{625, 95}";
},
{
horizontal = 1;
place = "{-10, 78}";
},
{
horizontal = 1;
place = "{646, 79}";
}
);
layerId = UUID0;
paths = (
{
closed = 1;
nodes = (
"720 580 OFFCURVE",
"606 725 OFFCURVE",
"392 725 CURVE SMOOTH",
"168 725 OFFCURVE",
"61 578 OFFCURVE",
"61 359 CURVE SMOOTH",
"61 138 OFFCURVE",
"168 -10 OFFCURVE",
"391 -10 CURVE SMOOTH",
"606 -10 OFFCURVE",
"720 137 OFFCURVE",
"720 358 CURVE SMOOTH"
);
},
{
closed = 1;
nodes = (
"156 538 OFFCURVE",
"230 646 OFFCURVE",
"392 646 CURVE SMOOTH",
"553 646 OFFCURVE",
"625 538 OFFCURVE",
"625 358 CURVE SMOOTH",
"625 178 OFFCURVE",
"553 68 OFFCURVE",
"391 68 CURVE SMOOTH",
"230 68 OFFCURVE",
"156 178 OFFCURVE",
"156 358 CURVE SMOOTH"
);
}
);
width = 781;
}
);
unicode = 004F;
},
{
color = 5;
glyphname = e;
lastChange = "2017-09-08 15:50:18 +0000";
layers = (
{
anchors = (
{
name = mark0;
position = "{301, 0}";
},
{
name = mark1;
position = "{285, 536}";
},
{
name = mark2;
position = "{544, 536}";
},
{
name = mark3;
position = "{0, 0}";
}
);
hints = (
{
place = "{55, 91}";
},
{
place = "{421, 92}";
},
{
horizontal = 1;
place = "{-10, 75}";
},
{
horizontal = 1;
place = "{251, 70}";
},
{
horizontal = 1;
place = "{474, 72}";
}
);
layerId = UUID0;
paths = (
{
closed = 1;
nodes = (
"150 546 OFFCURVE",
"55 440 OFFCURVE",
"55 264 CURVE SMOOTH",
"55 85 OFFCURVE",
"160 -10 OFFCURVE",
"313 -10 CURVE SMOOTH",
"386 -10 OFFCURVE",
"434 1 OFFCURVE",
"489 25 CURVE",
"489 102 LINE",
"433 78 OFFCURVE",
"385 65 OFFCURVE",
"317 65 CURVE SMOOTH",
"210 65 OFFCURVE",
"149 130 OFFCURVE",
"146 251 CURVE",
"513 251 LINE",
"513 304 LINE SMOOTH",
"513 450 OFFCURVE",
"429 546 OFFCURVE",
"292 546 CURVE SMOOTH"
);
},
{
closed = 1;
nodes = (
"380 474 OFFCURVE",
"420 412 OFFCURVE",
"421 321 CURVE",
"148 321 LINE",
"157 417 OFFCURVE",
"207 474 OFFCURVE",
"291 474 CURVE SMOOTH"
);
}
);
width = 564;
}
);
unicode = 0065;
},
{
color = 5;
glyphname = n;
lastChange = "2017-09-08 15:50:18 +0000";
layers = (
{
anchors = (
{
name = mark0;
position = "{309, 0}";
},
{
name = mark1;
position = "{309, 536}";
},
{
name = mark2;
position = "{562, 536}";
},
{
name = mark3;
position = "{0, 0}";
}
);
hints = (
{
place = "{85, 88}";
},
{
place = "{450, 87}";
},
{
horizontal = 1;
place = "{0, 21}";
target = up;
type = BottomGhost;
},
{
horizontal = 1;
place = "{472, 74}";
},
{
horizontal = 1;
place = "{536, -20}";
target = down;
type = TopGhost;
}
);
layerId = UUID0;
paths = (
{
closed = 1;
nodes = (
"275 546 OFFCURVE",
"209 519 OFFCURVE",
"174 463 CURVE",
"169 463 LINE",
"156 536 LINE",
"85 536 LINE",
"85 0 LINE",
"173 0 LINE",
"173 278 LINE SMOOTH",
"173 403 OFFCURVE",
"211 472 OFFCURVE",
"330 472 CURVE SMOOTH",
"412 472 OFFCURVE",
"450 429 OFFCURVE",
"450 343 CURVE SMOOTH",
"450 0 LINE",
"537 0 LINE",
"537 349 LINE SMOOTH",
"537 487 OFFCURVE",
"471 546 OFFCURVE",
"343 546 CURVE SMOOTH"
);
}
);
width = 618;
}
);
unicode = 006E;
},
{
color = 5;
glyphname = o;
lastChange = "2017-09-08 15:50:18 +0000";
layers = (
{
anchors = (
{
name = mark0;
position = "{301, 0}";
},
{
name = mark1;
position = "{303, 536}";
},
{
name = mark2;
position = "{575, 536}";
},
{
name = mark3;
position = "{303, 268}";
}
);
background = {
paths = (
{
closed = 1;
nodes = (
"531 417 OFFCURVE",
"467 538 OFFCURVE",
"308 538 CURVE SMOOTH",
"161 538 OFFCURVE",
"75 432 OFFCURVE",
"75 264 CURVE SMOOTH",
"75 107 OFFCURVE",
"150 -10 OFFCURVE",
"302 -10 CURVE SMOOTH",
"459 -10 OFFCURVE",
"531 109 OFFCURVE",
"531 264 CURVE SMOOTH"
);
},
{
closed = 1;
nodes = (
"102 420 OFFCURVE",
"176 513 OFFCURVE",
"308 513 CURVE SMOOTH",
"449 513 OFFCURVE",
"504 402 OFFCURVE",
"504 264 CURVE SMOOTH",
"504 119 OFFCURVE",
"442 15 OFFCURVE",
"302 15 CURVE SMOOTH",
"167 15 OFFCURVE",
"102 117 OFFCURVE",
"102 264 CURVE SMOOTH"
);
},
{
closed = 1;
nodes = (
"551 446 OFFCURVE",
"449 546 OFFCURVE",
"304 546 CURVE SMOOTH",
"150 546 OFFCURVE",
"55 446 OFFCURVE",
"55 269 CURVE SMOOTH",
"55 91 OFFCURVE",
"159 -10 OFFCURVE",
"301 -10 CURVE SMOOTH",
"454 -10 OFFCURVE",
"551 91 OFFCURVE",
"551 269 CURVE SMOOTH"
);
},
{
closed = 1;
nodes = (
"146 396 OFFCURVE",
"193 472 OFFCURVE",
"302 472 CURVE SMOOTH",
"411 472 OFFCURVE",
"460 396 OFFCURVE",
"460 269 CURVE SMOOTH",
"460 142 OFFCURVE",
"411 63 OFFCURVE",
"303 63 CURVE SMOOTH",
"194 63 OFFCURVE",
"146 142 OFFCURVE",
"146 269 CURVE SMOOTH"
);
}
);
};
hints = (
{
place = "{55, 91}";
},
{
place = "{460, 91}";
},
{
horizontal = 1;
place = "{-10, 73}";
},
{
horizontal = 1;
place = "{472, 74}";
}
);
layerId = UUID0;
paths = (
{
closed = 1;
nodes = (
"551 446 OFFCURVE",
"449 546 OFFCURVE",
"304 546 CURVE SMOOTH",
"150 546 OFFCURVE",
"55 446 OFFCURVE",
"55 269 CURVE SMOOTH",
"55 91 OFFCURVE",
"159 -10 OFFCURVE",
"301 -10 CURVE SMOOTH",
"454 -10 OFFCURVE",
"551 91 OFFCURVE",
"551 269 CURVE SMOOTH"
);
},
{
closed = 1;
nodes = (
"146 396 OFFCURVE",
"193 472 OFFCURVE",
"302 472 CURVE SMOOTH",
"411 472 OFFCURVE",
"460 396 OFFCURVE",
"460 269 CURVE SMOOTH",
"460 142 OFFCURVE",
"411 63 OFFCURVE",
"303 63 CURVE SMOOTH",
"194 63 OFFCURVE",
"146 142 OFFCURVE",
"146 269 CURVE SMOOTH"
);
}
);
width = 605;
}
);
unicode = 006F;
},
{
color = 5;
glyphname = z;
lastChange = "2017-09-08 15:50:18 +0000";
layers = (
{
anchors = (
{
name = mark0;
position = "{242, 0}";
},
{
name = mark1;
position = "{235, 536}";
},
{
name = mark2;
position = "{430, 536}";
},
{
name = mark3;
position = "{0, 0}";
}
);
hints = (
{
place = "{39, 392}";
},
{
horizontal = 1;
place = "{0, 68}";
},
{
horizontal = 1;
place = "{468, 68}";
}
);
layerId = UUID0;
paths = (
{
closed = 1;
nodes = (
"431 0 LINE",
"431 68 LINE",
"140 68 LINE",
"424 470 LINE",
"424 536 LINE",
"56 536 LINE",
"56 468 LINE",
"327 468 LINE",
"39 58 LINE",
"39 0 LINE"
);
}
);
width = 470;
}
);
unicode = 007A;
},
{
color = 5;
glyphname = uni0621.loclSYRJ;
lastChange = "2017-09-08 19:29:21 +0000";
layers = (
{
anchors = (
{
name = bottom;
position = "{229, -98}";
},
{
name = top;
position = "{245, 466}";
}
);
background = {
paths = (
{
closed = 1;
nodes = (
"290 76 LINE SMOOTH",
"279 76 OFFCURVE",
"268 76 OFFCURVE",
"254 78 CURVE SMOOTH",
"188 84 OFFCURVE",
"150 141 OFFCURVE",
"150 193 CURVE SMOOTH",
"150 260 OFFCURVE",
"198 300 OFFCURVE",
"269 300 CURVE SMOOTH",
"292 300 OFFCURVE",
"318 296 OFFCURVE",
"345 289 CURVE",
"368 348 LINE",
"333 364 OFFCURVE",
"292 367 OFFCURVE",
"261 367 CURVE SMOOTH",
"163 367 OFFCURVE",
"78 299 OFFCURVE",
"78 191 CURVE SMOOTH",
"78 161 OFFCURVE",
"86 108 OFFCURVE",
"139 73 CURVE",
"139 70 LINE",
"44 70 LINE",
"44 7 LINE",
"392 7 LINE",
"392 76 LINE"
);
}
);
};
layerId = UUID0;
paths = (
{
closed = 1;
nodes = (
"290 76 LINE SMOOTH",
"279 76 OFFCURVE",
"268 76 OFFCURVE",
"254 78 CURVE SMOOTH",
"188 84 OFFCURVE",
"150 141 OFFCURVE",
"150 193 CURVE SMOOTH",
"150 260 OFFCURVE",
"198 300 OFFCURVE",
"269 300 CURVE SMOOTH",
"292 300 OFFCURVE",
"318 296 OFFCURVE",
"345 289 CURVE",
"368 348 LINE",
"333 364 OFFCURVE",
"292 367 OFFCURVE",
"261 367 CURVE SMOOTH",
"163 367 OFFCURVE",
"78 299 OFFCURVE",
"78 191 CURVE SMOOTH",
"78 161 OFFCURVE",
"86 108 OFFCURVE",
"139 73 CURVE",
"139 70 LINE",
"44 70 LINE",
"44 7 LINE",
"392 7 LINE",
"392 76 LINE"
);
}
);
width = 462;
}
);
},
{
color = 7;
glyphname = uni0621.loclSYRN;
lastChange = "2017-09-08 19:29:26 +0000";
layers = (
{
anchors = (
{
name = mark0;
position = "{238, -98}";
}
);
hints = (
{
place = "{87, 73}";
},
{
horizontal = 1;
place = "{7, 69}";
},
{
horizontal = 1;
place = "{300, 67}";
}
);
layerId = UUID0;
paths = (
{
closed = 1;
nodes = (
"299 76 LINE",
"206 73 OFFCURVE",
"166 123 OFFCURVE",
"160 193 CURVE",
"160 258 OFFCURVE",
"206 300 OFFCURVE",
"278 300 CURVE SMOOTH",
"301 300 OFFCURVE",
"327 296 OFFCURVE",
"354 289 CURVE",
"377 348 LINE",
"342 364 OFFCURVE",
"301 367 OFFCURVE",
"270 367 CURVE SMOOTH",
"219 367 OFFCURVE",
"176 351 OFFCURVE",
"140 318 CURVE SMOOTH",
"105 285 OFFCURVE",
"87 243 OFFCURVE",
"87 191 CURVE SMOOTH",
"87 143 OFFCURVE",
"107 101 OFFCURVE",
"148 73 CURVE",
"148 70 LINE",
"54 70 LINE",
"54 7 LINE",
"401 7 LINE",
"401 76 LINE"
);
}
);
width = 471;
}
);
},
{
color = 5;
glyphname = uni0712.loclSYRJ.Fina;
lastChange = "2017-09-08 15:50:18 +0000";
layers = (
{
anchors = (
{
name = QU;
position = "{749, 439}";
},
{
name = RU;
position = "{747, -104}";
},
{
name = bottom;
position = "{436, -98}";
},
{
name = top;
position = "{496, 512}";
}
);
layerId = UUID0;
paths = (
{
closed = 1;
nodes = (
"886 0 LINE",
"886 76 LINE",
"872 76 LINE SMOOTH",
"853 76 OFFCURVE",
"828 76 OFFCURVE",
"804 74 CURVE",
"803 78 LINE",
"817 95 OFFCURVE",
"823 122 OFFCURVE",
"823 146 CURVE SMOOTH",
"823 233 OFFCURVE",
"767 305 OFFCURVE",
"686 356 CURVE SMOOTH",
"627 393 OFFCURVE",
"562 414 OFFCURVE",
"481 414 CURVE SMOOTH",
"444 414 OFFCURVE",
"375 402 OFFCURVE",
"343 387 CURVE",
"359 326 LINE",
"397 337 OFFCURVE",
"448 339 OFFCURVE",
"471 339 CURVE SMOOTH",
"607 339 OFFCURVE",
"749 250 OFFCURVE",
"749 134 CURVE SMOOTH",
"749 107 OFFCURVE",
"734 76 OFFCURVE",
"679 76 CURVE SMOOTH",
"282 76 LINE SMOOTH",
"168 76 OFFCURVE",
"127 139 OFFCURVE",
"127 213 CURVE SMOOTH",
"127 220 LINE",
"61 216 LINE",
"60 211 OFFCURVE",
"59 189 OFFCURVE",
"59 186 CURVE SMOOTH",
"59 71 OFFCURVE",
"136 0 OFFCURVE",
"273 0 CURVE SMOOTH"
);
}
);
width = 886;
}
);
},
{
color = 5;
glyphname = uni072D.loclSYRJ.Fina;
lastChange = "2017-09-08 15:50:18 +0000";
layers = (
{
anchors = (
{
name = bottom;
position = "{435, -98}";
},
{
name = top;
position = "{417, 661}";
}
);
background = {
paths = (
{
closed = 1;
nodes = (
"886 0 LINE",
"886 76 LINE",
"872 76 LINE SMOOTH",
"853 76 OFFCURVE",
"828 76 OFFCURVE",
"804 74 CURVE",
"803 78 LINE",
"818 95 OFFCURVE",
"823 123 OFFCURVE",
"823 146 CURVE SMOOTH",
"823 312 OFFCURVE",
"643 411 OFFCURVE",
"485 411 CURVE SMOOTH",
"470 411 OFFCURVE",
"454 410 OFFCURVE",
"439 408 CURVE",
"439 412 LINE",
"463 434 OFFCURVE",
"526 495 OFFCURVE",
"549 520 CURVE SMOOTH",
"599 574 LINE",
"545 618 LINE",
"343 387 LINE",
"359 333 LINE",
"399 338 OFFCURVE",
"437 339 OFFCURVE",
"461 339 CURVE SMOOTH",
"617 339 OFFCURVE",
"749 254 OFFCURVE",
"749 134 CURVE SMOOTH",
"749 107 OFFCURVE",
"734 76 OFFCURVE",
"679 76 CURVE SMOOTH",
"282 76 LINE SMOOTH",
"168 76 OFFCURVE",
"127 139 OFFCURVE",
"127 213 CURVE SMOOTH",
"127 220 LINE",
"61 216 LINE",
"60 211 OFFCURVE",
"59 189 OFFCURVE",
"59 186 CURVE SMOOTH",
"59 71 OFFCURVE",
"136 0 OFFCURVE",
"273 0 CURVE SMOOTH"
);
}
);
};
layerId = UUID0;
paths = (
{
closed = 1;
nodes = (
"886 0 LINE",
"886 76 LINE",
"872 76 LINE SMOOTH",
"853 76 OFFCURVE",
"828 76 OFFCURVE",
"804 74 CURVE",
"803 78 LINE",
"818 95 OFFCURVE",
"823 123 OFFCURVE",
"823 146 CURVE SMOOTH",
"823 312 OFFCURVE",
"643 411 OFFCURVE",
"485 411 CURVE SMOOTH",
"470 411 OFFCURVE",
"454 410 OFFCURVE",
"439 408 CURVE",
"439 412 LINE",
"463 434 OFFCURVE",
"526 495 OFFCURVE",
"549 520 CURVE SMOOTH",
"599 574 LINE",
"545 618 LINE",
"343 387 LINE",
"359 333 LINE",
"399 338 OFFCURVE",
"437 339 OFFCURVE",
"461 339 CURVE SMOOTH",
"617 339 OFFCURVE",
"749 254 OFFCURVE",
"749 134 CURVE SMOOTH",
"749 107 OFFCURVE",
"734 76 OFFCURVE",
"679 76 CURVE SMOOTH",
"282 76 LINE SMOOTH",
"168 76 OFFCURVE",
"127 139 OFFCURVE",
"127 213 CURVE SMOOTH",
"127 220 LINE",
"61 216 LINE",
"60 211 OFFCURVE",
"59 189 OFFCURVE",
"59 186 CURVE SMOOTH",
"59 71 OFFCURVE",
"136 0 OFFCURVE",
"273 0 CURVE SMOOTH"
);
}
);
width = 886;
}
);
},
{
color = 5;
glyphname = uni0715.loclSYRJ.Fina;
lastChange = "2017-09-08 15:50:18 +0000";
layers = (
{
anchors = (
{
name = QU;
position = "{259, 231}";
},
{
name = RU;
position = "{258, -112}";
},
{
name = bottom;
position = "{117, -419}";
},
{
name = top;
position = "{144, 315}";
}
);
background = {
paths = (
{
closed = 1;
nodes = (
"96 -286 OFFCURVE",
"116 -302 OFFCURVE",
"145 -302 CURVE SMOOTH",
"178 -302 OFFCURVE",
"197 -283 OFFCURVE",
"197 -246 CURVE SMOOTH",
"197 -209 OFFCURVE",
"178 -189 OFFCURVE",
"145 -189 CURVE SMOOTH",
"114 -189 OFFCURVE",
"96 -209 OFFCURVE",
"96 -246 CURVE SMOOTH"
);
},
{
closed = 1;
nodes = (
"88 282 OFFCURVE",
"49 207 OFFCURVE",
"49 155 CURVE SMOOTH",
"49 106 OFFCURVE",
"73 74 OFFCURVE",
"122 34 CURVE SMOOTH",
"149 12 LINE",
"129 -19 OFFCURVE",
"105 -55 OFFCURVE",
"74 -87 CURVE",
"121 -128 LINE",
"196 -51 OFFCURVE",
"279 44 OFFCURVE",
"279 137 CURVE SMOOTH",
"279 214 OFFCURVE",
"235 282 OFFCURVE",
"163 282 CURVE SMOOTH"
);
}
);
};
components = (
{
name = Dot1.loclSYRJ;
transform = "{1, 0, 0, 1, 148, -327}";
},
{
name = uni0716.loclSYRJ.Fina;
}
);
layerId = UUID0;
width = 283;
}
);
},
